<?xml version="1.0" encoding="UTF-8" standalone="no"?>
<svg
   width="24"
   height="24"
   viewBox="0 0 24 24"
   version="1.1"
   id="svg1"
   xmlns="http://www.w3.org/2000/svg"
   xmlns:svg="http://www.w3.org/2000/svg">
  <defs
     id="defs1" />
  <path
     d="m 24,1.5486096 c -0.0655,0.128825 -0.242366,0.128825 -0.35809,0.2270814 -1.054618,0.1615771 -2.159456,0.2270814 -3.183506,0.4716306 -0.161577,0.4214106 0.292585,0.4061263 0.534951,0.3886585 0.08079,0.1135407 0.227081,-0.032752 0.244549,0 0,0.4869149 -0.7795,0.2925856 -0.633207,0.8602891 -0.406127,0.3733743 -1.02405,0.2270815 -1.445461,0.5851714 0.03275,0.032752 0.0655,0.048036 0.08079,0.080789 -0.698712,0.2773014 -1.427993,0.6179235 -2.176925,0.698712 0.113541,0.2751179 -0.30787,0.5043828 -0.438878,0.6659599 -0.469448,-0.032752 -0.812253,0.2117971 -1.200912,0.3886586 -0.467263,2.9236731 -1.473845,5.6355499 -2.301382,8.4129299 -0.875574,1.657257 -1.347205,3.476091 -2.759913,4.921553 -1.4454604,1.899622 -3.5066609,4.1093 -6.1552161,3.312331 -1.5590022,-0.650676 -3.55688185,-1.21838 -4.20537394,-3.054682 -0.0174678,-0.161578 0.12882503,-0.227082 0.25983353,-0.259834 0.1135407,-0.04804 0.0807886,0.0655 0.12882503,0.113541 0.19432927,0.11354 0.42141068,0.194329 0.4541628,0.47163 C 1.835545,20.418201 2.6783664,21.343994 3.9622497,21.195518 6.38154,20.937868 7.9252569,18.453073 9.0781317,16.584019 10.652417,13.41798 11.497422,9.9266032 12.276923,6.4177588 12.244171,6.3850067 12.211418,6.3697224 12.196134,6.3369703 10.18297,6.5160152 8.2331269,6.9527102 6.2374307,7.0029302 6.12389,6.841353 6.0911379,6.6623081 5.9928815,6.4985474 5.7810844,6.4177588 5.4884987,6.6775924 5.4077102,6.4177588 5.5212509,6.3850067 5.3902424,6.3369703 5.374958,6.3042181 5.6195072,6.3216859 5.7963687,6.142641 5.9120929,5.9461282 5.9775972,5.701579 5.6850115,5.6688269 5.5714708,5.5247176 5.4098936,5.4919654 5.2636008,5.4592133 5.2133809,5.2801684 c 0,-0.1615772 0,-0.3253378 0.1615771,-0.4214107 C 5.6020394,4.7124648 6.2352472,5.0203348 6.1042387,4.5814563 5.9579459,4.566172 5.5845716,4.6622449 5.5692873,4.3543749 5.5867551,4.1098257 5.6173238,3.8827443 5.9099094,3.9154965 7.9885777,4.0945414 9.7899446,3.4940858 11.835861,3.3805451 14.774818,2.9744187 17.567483,2.1294139 20.458404,1.7407554 21.434417,1.5813617 22.408247,1.4350689 23.38426,1.2713082 c 0.242366,0 0.567704,-0.030569 0.61574,0.2773014"
     id="path7" />
</svg>
