<?xml version="1.0" encoding="UTF-8" standalone="no"?>
<svg
   width="24"
   height="24"
   viewBox="0 0 24 24"
   version="1.1"
   id="svg1"
   xmlns="http://www.w3.org/2000/svg"
   xmlns:svg="http://www.w3.org/2000/svg">
  <defs
     id="defs1" />
  <g
     id="g1761"
     transform="matrix(0.29973334,0,0,0.29973334,48.148353,91.104475)"
     style="fill:#000000">
    <g
       id="g2"
       transform="matrix(0.6159321,0,0,0.6159321,-160.6373,-294.71277)"
       style="fill:#000000">
      <path
         d="M 50,100 A 50,50 0 0 1 50,0 h 30 a 50,50 0 0 1 0,100 z m 0,-12.5 a 37.5,37.5 0 0 1 0,-75 h 30 a 37.5,37.5 0 0 1 0,75 z"
         fill="#ed1c24"
         fill-rule="evenodd"
         id="path1"
         style="fill:#000000" />
      <path
         d="m 40.235,26.455 h 14.68 l 20.3,32.83 v -32.83 h 14.55 v 47.09 h -14.54 l -20.39,-32.84 v 32.84 h -14.59 z"
         fill="#ed1c24"
         id="path2"
         style="fill:#000000" />
    </g>
  </g>
</svg>
