<?xml version="1.0" encoding="UTF-8" standalone="no"?>
<svg
   role="img"
   viewBox="0 0 24 24"
   version="1.1"
   id="svg1"
   xmlns="http://www.w3.org/2000/svg"
   xmlns:svg="http://www.w3.org/2000/svg"
   xmlns:rdf="http://www.w3.org/1999/02/22-rdf-syntax-ns#"
   xmlns:cc="http://creativecommons.org/ns#"
   xmlns:dc="http://purl.org/dc/elements/1.1/">
  <defs
     id="defs1" />
  <title
     id="title1">Nintendo 3DS</title>
  <path
     id="path3"
     style="fill:#000000"
     class="st2"
     d="m 160.8,13.4 c 0,0 8.2,-1.3 8.2,-6.4 0,-5 -8.7,-7 -18,-7 -8.4,0 -13.9,1 -13.9,1 v 4.5 c 3.8,-0.9 7.4,-1.7 12.4,-1.7 5.3,0 9.4,1.6 9.4,3.8 0,2.7 -4,4.3 -12.7,4.3 h -4 V 16 h 3.7 c 9.1,0 14.3,1.4 14.3,4.7 0,3 -4.6,4.8 -10.4,4.8 -5,0 -9.6,-1.1 -13.4,-2.1 v 4.9 c 1.8,0.3 6.6,1.3 15.4,1.3 9.8,0 18.4,-3.2 18.4,-8.7 0,-4.7 -5.9,-7.4 -9.4,-7.5 M 119.29996,0.19997439 c -1.6,0 -2.89991,1.30010401 -2.89991,2.90010241 V 11.1 c 0,1.599998 1.29991,2.899913 2.89991,2.899913 h 11.1 c 1.6,0 2.9001,-1.299915 2.9001,-2.899913 V 3.1000768 c 0,-1.5999984 -1.3001,-2.90010241 -2.9001,-2.90010241 z m 0.10008,2.40007171 h 10.90003 c 0.3,0 0.59992,0.2999235 0.59992,0.5999232 V 11.1 c 0,0.3 -0.29992,0.599923 -0.59992,0.599923 h -10.90003 c -0.3,0 -0.60011,-0.299923 -0.60011,-0.599923 V 3.1999693 c 0,-0.2999997 0.30011,-0.5999232 0.60011,-0.5999232 z m -0.10008,13.0000409 c -1.6,0 -2.89991,1.299915 -2.89991,2.899913 v 7.900031 c 0,1.599998 1.29991,2.899913 2.89991,2.899913 h 11.1 c 1.6,0 2.9001,-1.299915 2.9001,-2.899913 V 18.5 c 0,-1.599998 -1.3001,-2.899913 -2.9001,-2.899913 z m 0.10008,2.399882 h 10.90003 c 0.3,0 0.59992,0.300113 0.59992,0.600113 v 7.899841 c 0,0.3 -0.29992,0.600113 -0.59992,0.600113 h -10.90003 c -0.3,0 -0.60011,-0.300113 -0.60011,-0.600113 v -7.899841 c 0,-0.3 0.30011,-0.600113 0.60011,-0.600113 z"
     transform="matrix(0.44609707,0,0,0.44609707,-51.925721,5.3977634)" />
  <metadata
     id="metadata1">
    <rdf:RDF>
      <cc:Work
         rdf:about="">
        <dc:title>Nintendo 3DS</dc:title>
      </cc:Work>
    </rdf:RDF>
  </metadata>
</svg>
