<svg width="24" height="24" viewBox="0 0 24 24" xmlns="http://www.w3.org/2000/svg"><path d="m 19.41546,6.900027 c -3.29058,0 -5.44964,0.985476 -5.44964,2.642129 0,1.613355 1.79425,2.327919 4.24027,3.226636 1.82882,0.671321 2.46538,1.039577 2.46538,1.689246 0,0.714638 -0.68528,1.277566 -2.34194,1.277566 -1.51373,0 -3.45295,-0.29239 -4.37115,-0.660533 v 1.700024 c 1.2896,0.216559 2.44916,0.324878 4.13073,0.324878 C 22.1842,17.099973 24,15.930561 24,14.306376 24,12.73634 22.55019,12.021715 19.94393,11.090519 18.07179,10.41919 17.00416,10.05092 17.00416,9.282137 c 0,-0.530566 0.69306,-1.050268 2.3194,-1.050268 1.51699,0 2.49352,0.357418 3.5958,0.563147 l -0.009,-1.580888 C 21.78898,7.008397 21.18257,6.900027 19.41546,6.900027 Z M 0,6.921776 v 10.156447 h 6.09175 c 1.59386,0 3.41727,-0.281495 4.38095,-0.714614 2.35506,-1.06113 3.11319,-2.760986 3.11319,-4.363512 0,-1.602515 -0.76444,-3.302577 -3.11084,-4.363707 C 9.50921,7.20328 7.68561,6.921776 6.09175,6.921776 Z m 3.29287,1.375146 h 1.94907 c 2.99173,0 4.87904,1.310227 4.87904,3.703175 0,2.392958 -1.88731,3.681426 -4.87904,3.681426 H 3.29287 Z"/></svg>
