<?xml version="1.0" encoding="UTF-8" standalone="no"?>
<svg
   width="24"
   height="24"
   viewBox="0 0 24 24"
   version="1.1"
   id="svg1"
   xmlns="http://www.w3.org/2000/svg"
   xmlns:svg="http://www.w3.org/2000/svg">
  <defs
     id="defs1" />
  <g
     id="g1">
    <path
       d="m 24,21.686007 h -8.559727 v -0.969283 c 0.309427,-0.0091 0.707606,-0.04095 1.194539,-0.09556 0.4869,-0.0546 0.82137,-0.131966 1.003414,-0.232081 0.28212,-0.172923 0.489173,-0.370874 0.62116,-0.593857 0.131949,-0.222979 0.197933,-0.502842 0.197952,-0.83959 V 4.8668942 H 18.25256 L 11.645051,21.372014 H 10.962458 L 4.6689424,4.5255975 H 4.4914675 V 16.088737 c -4.9e-6,1.119459 0.07053,1.970425 0.2116045,2.552901 0.1410639,0.582483 0.357218,1.00114 0.6484639,1.255973 0.2002217,0.191128 0.614328,0.373153 1.242321,0.546075 0.6279783,0.172925 1.0375343,0.263938 1.2286686,0.273038 v 0.969283 H 0 V 20.716724 C 0.4095553,20.680324 0.8395891,20.61206 1.2901023,20.511945 1.740612,20.411833 2.0887343,20.261663 2.3344712,20.061434 2.6530114,19.806601 2.8714414,19.415247 2.9897613,18.887372 3.1080735,18.359503 3.167232,17.476683 3.1672355,16.238908 V 6.3276453 C 3.167232,5.7542822 3.0989735,5.2855683 2.9624572,4.9215017 2.8259353,4.5574687 2.6302583,4.2616781 2.375427,4.0341299 2.0932853,3.7884139 1.7474382,3.6063887 1.3378843,3.4880548 0.9283263,3.3697566 0.5233206,3.3014974 0.1228667,3.2832765 V 2.313993 H 6.7303753 L 12.273038,16.83959 17.01024,4.68942 c 0.172905,-0.445944 0.3208,-0.9123826 0.443685,-1.3993173 0.122849,-0.4868984 0.188833,-0.8122676 0.197952,-0.9761097 h 6.320821 v 0.9692835 c -0.254861,0.00912 -0.580227,0.050075 -0.976113,0.1228667 -0.395928,0.072828 -0.684892,0.1410876 -0.866891,0.2047783 C 21.820229,3.7201547 21.6109,3.9021793 21.501706,4.1569966 21.39247,4.4118489 21.337866,4.6894368 21.337887,4.989761 v 13.965871 c -2.1e-5,0.318546 0.05459,0.587033 0.163819,0.805461 0.109194,0.218431 0.318523,0.409557 0.627988,0.573378 0.163798,0.09101 0.45504,0.175201 0.87372,0.25256 0.418631,0.07736 0.750826,0.120593 0.996586,0.129693 z"
       id="path6717" />
  </g>
</svg>
