<?xml version="1.0" encoding="UTF-8" standalone="no"?>
<!-- Created with Inkscape (http://www.inkscape.org/) -->

<svg
   version="1.1"
   width="166.01503"
   height="210.11107"
   id="svg8030"
   xmlns="http://www.w3.org/2000/svg"
   xmlns:svg="http://www.w3.org/2000/svg">
  <defs
     id="defs8032">
    <clipPath
       id="clipPath3404">
      <path
         d="m 52.912,623.106 h 25.733 v 32.015 H 52.912 Z"
         id="path3406" />
    </clipPath>
    <clipPath
       id="clipPath3410">
      <path
         d="M 52.912,655.121 H 78.645 V 623.106 H 52.912 Z"
         id="path3412" />
    </clipPath>
    <clipPath
       id="clipPath3422">
      <path
         d="m 52.912,623.106 h 25.733 v 32.015 H 52.912 Z"
         id="path3424" />
    </clipPath>
    <clipPath
       id="clipPath3428">
      <path
         d="M 52.912,655.121 H 78.645 V 623.106 H 52.912 Z"
         id="path3430" />
    </clipPath>
    <clipPath
       id="clipPath3440">
      <path
         d="m 52.912,623.106 h 25.733 v 32.015 H 52.912 Z"
         id="path3442" />
    </clipPath>
    <clipPath
       id="clipPath3446">
      <path
         d="M 52.912,655.121 H 78.645 V 623.106 H 52.912 Z"
         id="path3448" />
    </clipPath>
    <clipPath
       id="clipPath3458">
      <path
         d="m 52.912,623.106 h 25.733 v 32.015 H 52.912 Z"
         id="path3460" />
    </clipPath>
    <clipPath
       id="clipPath3464">
      <path
         d="M 52.912,655.121 H 78.645 V 623.106 H 52.912 Z"
         id="path3466" />
    </clipPath>
    <clipPath
       id="clipPath3476">
      <path
         d="m 52.912,623.106 h 25.733 v 32.015 H 52.912 Z"
         id="path3478" />
    </clipPath>
    <clipPath
       id="clipPath3482">
      <path
         d="M 52.912,655.121 H 78.645 V 623.106 H 52.912 Z"
         id="path3484" />
    </clipPath>
    <clipPath
       id="clipPath3494">
      <path
         d="m 52.912,623.106 h 25.733 v 32.015 H 52.912 Z"
         id="path3496" />
    </clipPath>
    <clipPath
       id="clipPath3500">
      <path
         d="M 52.912,655.121 H 78.645 V 623.106 H 52.912 Z"
         id="path3502" />
    </clipPath>
    <clipPath
       id="clipPath3512">
      <path
         d="m 52.912,623.106 h 25.733 v 32.015 H 52.912 Z"
         id="path3514" />
    </clipPath>
    <clipPath
       id="clipPath3518">
      <path
         d="M 52.912,655.121 H 78.645 V 623.106 H 52.912 Z"
         id="path3520" />
    </clipPath>
    <clipPath
       id="clipPath3530">
      <path
         d="m 52.912,623.106 h 25.733 v 32.015 H 52.912 Z"
         id="path3532" />
    </clipPath>
    <clipPath
       id="clipPath3536">
      <path
         d="M 52.912,655.121 H 78.645 V 623.106 H 52.912 Z"
         id="path3538" />
    </clipPath>
    <clipPath
       id="clipPath3548">
      <path
         d="m 52.912,623.106 h 25.733 v 32.015 H 52.912 Z"
         id="path3550" />
    </clipPath>
    <clipPath
       id="clipPath3554">
      <path
         d="M 52.912,655.121 H 78.645 V 623.106 H 52.912 Z"
         id="path3556" />
    </clipPath>
    <clipPath
       id="clipPath3566">
      <path
         d="m 52.912,623.106 h 25.733 v 32.015 H 52.912 Z"
         id="path3568" />
    </clipPath>
    <clipPath
       id="clipPath3572">
      <path
         d="M 52.912,655.121 H 78.645 V 623.106 H 52.912 Z"
         id="path3574" />
    </clipPath>
    <clipPath
       id="clipPath3584">
      <path
         d="m 52.912,623.106 h 25.733 v 32.015 H 52.912 Z"
         id="path3586" />
    </clipPath>
    <clipPath
       id="clipPath3590">
      <path
         d="M 52.912,655.121 H 78.645 V 623.106 H 52.912 Z"
         id="path3592" />
    </clipPath>
    <clipPath
       id="clipPath3602">
      <path
         d="m 52.912,623.106 h 25.733 v 32.015 H 52.912 Z"
         id="path3604" />
    </clipPath>
    <clipPath
       id="clipPath3608">
      <path
         d="M 52.912,655.121 H 78.645 V 623.106 H 52.912 Z"
         id="path3610" />
    </clipPath>
    <clipPath
       id="clipPath3620">
      <path
         d="m 52.912,623.106 h 25.733 v 32.015 H 52.912 Z"
         id="path3622" />
    </clipPath>
    <clipPath
       id="clipPath3626">
      <path
         d="M 52.912,655.121 H 78.645 V 623.106 H 52.912 Z"
         id="path3628" />
    </clipPath>
    <clipPath
       id="clipPath3638">
      <path
         d="m 52.912,623.106 h 25.733 v 32.015 H 52.912 Z"
         id="path3640" />
    </clipPath>
    <clipPath
       id="clipPath3644">
      <path
         d="M 52.912,655.121 H 78.645 V 623.106 H 52.912 Z"
         id="path3646" />
    </clipPath>
    <clipPath
       id="clipPath3656">
      <path
         d="m 52.912,623.106 h 25.733 v 32.015 H 52.912 Z"
         id="path3658" />
    </clipPath>
    <clipPath
       id="clipPath3662">
      <path
         d="M 52.912,655.121 H 78.645 V 623.106 H 52.912 Z"
         id="path3664" />
    </clipPath>
    <clipPath
       id="clipPath3674">
      <path
         d="m 52.912,623.106 h 25.733 v 32.015 H 52.912 Z"
         id="path3676" />
    </clipPath>
    <clipPath
       id="clipPath3680">
      <path
         d="M 52.912,655.121 H 78.645 V 623.106 H 52.912 Z"
         id="path3682" />
    </clipPath>
    <clipPath
       id="clipPath3692">
      <path
         d="m 52.912,623.106 h 25.733 v 32.015 H 52.912 Z"
         id="path3694" />
    </clipPath>
    <clipPath
       id="clipPath3698">
      <path
         d="M 52.912,655.121 H 78.645 V 623.106 H 52.912 Z"
         id="path3700" />
    </clipPath>
  </defs>
  <g
     transform="translate(-16.992486,-824.30671)"
     id="layer1">
    <g
       transform="matrix(6.9323129,0,0,-6.9279567,-355.65746,5357.1129)"
       id="g6447">
      <g
         id="g4939">
        <g
           id="g3400">
          <g
             clip-path="url(#clipPath3404)"
             id="g3402">
            <g
               clip-path="url(#clipPath3410)"
               id="g3408">
              <g
                 transform="translate(433.672,294.87)"
                 id="g3414">
                <path
                   d="m -356.25,357 c 0,1.174 -0.951,2.126 -2.125,2.126 h -19.135 c -1.174,0 -2.125,-0.952 -2.125,-2.126 v -22.645 h 23.385 z"
                   id="path3416"
                   style="fill:#000000;fill-opacity:1;fill-rule:nonzero;stroke:none" />
              </g>
            </g>
          </g>
        </g>
        <g
           id="g3418">
          <g
             clip-path="url(#clipPath3422)"
             id="g3420">
            <g
               clip-path="url(#clipPath3428)"
               id="g3426">
              <g
                 transform="translate(433.672,269.358)"
                 id="g3432">
                <path
                   d="m -356.25,357 c 0,-1.174 -0.951,-2.127 -2.125,-2.127 h -19.135 c -1.174,0 -2.125,0.953 -2.125,2.127 v 25.512 c 0,1.174 0.951,2.126 2.125,2.126 h 19.135 c 1.174,0 2.125,-0.952 2.125,-2.126 z"
                   id="path3434"
                   style="fill:none;stroke:#000000;stroke-width:0.563;stroke-linecap:butt;stroke-linejoin:miter;stroke-miterlimit:4;stroke-dasharray:none;stroke-opacity:1" />
              </g>
            </g>
          </g>
        </g>
        <g
           id="g3436">
          <g
             clip-path="url(#clipPath3440)"
             id="g3438">
            <g
               clip-path="url(#clipPath3446)"
               id="g3444">
              <g
                 transform="translate(416.118,294.901)"
                 id="g3450">
                <path
                   d="m -356.25,357 c -0.425,0.285 -0.927,0.448 -1.445,0.448 -1.187,0 -1.525,-0.95 -1.525,-1.998 0,-1.196 0.581,-2.165 1.872,-2.165 0.673,0 1.288,0.252 1.869,0.563 l -0.434,-1.264 c -0.562,-0.155 -1.142,-0.208 -1.723,-0.208 -0.881,0 -1.627,0.15 -2.319,0.744 -0.667,0.564 -1.022,1.378 -1.022,2.26 0,0.798 0.338,1.637 0.944,2.176 0.658,0.56 1.567,0.768 2.415,0.768 l 1.309,-0.112 z"
                   id="path3452"
                   style="fill:#ffffff;fill-opacity:1;fill-rule:nonzero;stroke:none" />
              </g>
            </g>
          </g>
        </g>
        <g
           id="g3454">
          <g
             clip-path="url(#clipPath3458)"
             id="g3456">
            <g
               clip-path="url(#clipPath3464)"
               id="g3462">
              <g
                 transform="translate(419.019,291.352)"
                 id="g3468">
                <path
                   d="m -356.25,357 c 0.286,-0.116 0.606,-0.131 0.909,-0.131 0.484,0 0.935,0.079 1.263,0.477 h 0.044 l -0.346,-1.307 h -3.834 v 0.027 c 0.422,0.266 0.363,0.753 0.363,1.201 v 3.24 c 0,0.449 0.059,0.943 -0.363,1.201 v 0.027 h 3.029 c 0.129,0 0.27,0 0.363,0.045 h 0.026 v -1.257 h -0.026 c -0.234,0.408 -0.726,0.363 -1.151,0.363 h -0.277 v -1.401 h 0.804 c 0.122,0 0.243,0.007 0.322,0.042 h 0.043 v -1.211 h -0.043 c -0.124,0.346 -0.52,0.311 -0.84,0.311 h -0.286 z"
                   id="path3470"
                   style="fill:#ffffff;fill-opacity:1;fill-rule:nonzero;stroke:none" />
              </g>
            </g>
          </g>
        </g>
        <g
           id="g3472">
          <g
             clip-path="url(#clipPath3476)"
             id="g3474">
            <g
               clip-path="url(#clipPath3482)"
               id="g3480">
              <g
                 transform="translate(423.434,295.247)"
                 id="g3486">
                <path
                   d="m -356.25,357 c 0.171,0 0.355,-0.017 0.503,-0.12 0.233,-0.165 0.346,-0.458 0.346,-0.739 0,-0.544 -0.4,-1.002 -0.933,-1.096 V 357 h 0.084 m -0.084,-2.416 1.002,-1.886 c 0.301,-0.536 0.58,-0.615 1.16,-0.583 l 1.195,0.079 c -0.347,0.285 -0.598,0.651 -0.832,1.04 l -1.029,1.723 c 0.572,0.244 1.029,0.718 1.029,1.368 0,0.581 -0.26,1.038 -0.77,1.317 -0.39,0.207 -0.736,0.198 -1.16,0.198 h -2.562 v -0.027 c 0.424,-0.267 0.364,-0.759 0.364,-1.21 v -3.221 c 0,-0.452 0.06,-0.945 -0.364,-1.211 v -0.027 h 2.329 v 0.027 c -0.426,0.266 -0.362,0.759 -0.362,1.211 z"
                   id="path3488"
                   style="fill:#ffffff;fill-opacity:1;fill-rule:nonzero;stroke:none" />
              </g>
            </g>
          </g>
        </g>
        <g
           id="g3490">
          <g
             clip-path="url(#clipPath3494)"
             id="g3492">
            <g
               clip-path="url(#clipPath3500)"
               id="g3498">
              <g
                 transform="translate(427.924,293.49)"
                 id="g3504">
                <path
                   d="m -356.25,357 c 0,0.892 0.449,1.87 1.471,1.87 1.187,0 1.575,-1.411 1.575,-2.399 0,-0.424 -0.06,-0.865 -0.322,-1.212 -0.276,-0.372 -0.691,-0.606 -1.15,-0.606 -0.492,0 -0.928,0.33 -1.168,0.746 -0.244,0.433 -0.406,1.099 -0.406,1.601 m -1.682,-0.233 c 0,-1.829 1.377,-2.98 3.153,-2.98 1.757,0 3.255,1.1 3.255,2.986 0,1.906 -1.334,2.962 -3.152,2.962 -1.757,0 -3.256,-1.126 -3.256,-2.968"
                   id="path3506"
                   style="fill:#ffffff;fill-opacity:1;fill-rule:nonzero;stroke:none" />
              </g>
            </g>
          </g>
        </g>
        <g
           id="g3508">
          <g
             clip-path="url(#clipPath3512)"
             id="g3510">
            <g
               clip-path="url(#clipPath3518)"
               id="g3516">
              <g
                 transform="translate(420.109,280.326)"
                 id="g3522">
                <path
                   d="m -356.25,357 h 2.948 c 0.925,0 1.693,-0.299 1.693,-1.304 0,-1.036 -0.838,-1.46 -1.693,-1.46 h -2.948 V 357 m 4.397,-5.496 c 2.285,0 4.291,1.382 4.291,3.784 0,0.848 -0.262,1.899 -1.291,2.638 -0.384,0.283 -0.68,0.392 -1.274,0.534 0.454,0.141 0.733,0.251 1.082,0.533 0.471,0.377 0.959,1.053 0.959,2.073 0,1.979 -1.639,3.313 -4.099,3.313 h -8.026 v -12.875 h 8.358 m -4.397,10.143 h 3.106 c 0.889,0 1.063,-0.754 1.063,-1.115 0,-0.801 -0.47,-1.35 -1.063,-1.35 h -3.106 z"
                   id="path3524"
                   style="fill:none;stroke:#ffffff;stroke-width:3.049;stroke-linecap:butt;stroke-linejoin:miter;stroke-miterlimit:4;stroke-dasharray:none;stroke-opacity:1" />
              </g>
            </g>
          </g>
        </g>
        <g
           id="g3526">
          <g
             clip-path="url(#clipPath3530)"
             id="g3528">
            <g
               clip-path="url(#clipPath3536)"
               id="g3534">
              <g
                 transform="translate(420.109,280.326)"
                 id="g3540">
                <path
                   d="m -356.25,357 h 2.948 c 0.925,0 1.693,-0.299 1.693,-1.304 0,-1.036 -0.838,-1.46 -1.693,-1.46 h -2.948 V 357 m 4.397,-5.496 c 2.285,0 4.291,1.382 4.291,3.784 0,0.848 -0.262,1.899 -1.291,2.638 -0.384,0.283 -0.68,0.392 -1.274,0.534 0.454,0.141 0.733,0.251 1.082,0.533 0.471,0.377 0.959,1.053 0.959,2.073 0,1.979 -1.639,3.313 -4.099,3.313 h -8.026 v -12.875 h 8.358 m -4.397,10.143 h 3.106 c 0.889,0 1.063,-0.754 1.063,-1.115 0,-0.801 -0.47,-1.35 -1.063,-1.35 h -3.106 z"
                   id="path3542"
                   style="fill:none;stroke:#000000;stroke-width:1.524;stroke-linecap:butt;stroke-linejoin:miter;stroke-miterlimit:4;stroke-dasharray:none;stroke-opacity:1" />
              </g>
            </g>
          </g>
        </g>
        <g
           id="g3544">
          <g
             clip-path="url(#clipPath3548)"
             id="g3546">
            <g
               clip-path="url(#clipPath3554)"
               id="g3552">
              <g
                 transform="translate(420.109,280.326)"
                 id="g3558">
                <path
                   d="m -356.25,357 h 2.948 c 0.925,0 1.693,-0.299 1.693,-1.304 0,-1.036 -0.838,-1.46 -1.693,-1.46 h -2.948 V 357 m 4.397,-5.496 c 2.285,0 4.291,1.382 4.291,3.784 0,0.848 -0.262,1.899 -1.291,2.638 -0.384,0.283 -0.68,0.392 -1.274,0.534 0.454,0.141 0.733,0.251 1.082,0.533 0.471,0.377 0.959,1.053 0.959,2.073 0,1.979 -1.639,3.313 -4.099,3.313 h -8.026 v -12.875 h 8.358 m -4.397,10.143 h 3.106 c 0.889,0 1.063,-0.754 1.063,-1.115 0,-0.801 -0.47,-1.35 -1.063,-1.35 h -3.106 z"
                   id="path3560"
                   style="fill:#000000;fill-opacity:1;fill-rule:nonzero;stroke:none" />
              </g>
            </g>
          </g>
        </g>
        <g
           id="g3562">
          <g
             clip-path="url(#clipPath3566)"
             id="g3564">
            <g
               clip-path="url(#clipPath3572)"
               id="g3570">
              <g
                 transform="translate(419.855,280.326)"
                 id="g3576">
                <path
                   d="m -356.25,357 h 2.95 c 0.924,0 1.691,-0.299 1.691,-1.304 0,-1.036 -0.837,-1.46 -1.691,-1.46 h -2.95 V 357 m 4.397,-5.496 c 2.285,0 4.292,1.382 4.292,3.784 0,0.848 -0.262,1.899 -1.291,2.638 -0.384,0.283 -0.681,0.392 -1.274,0.534 0.455,0.141 0.734,0.251 1.082,0.533 0.471,0.377 0.96,1.053 0.96,2.073 0,1.979 -1.64,3.313 -4.1,3.313 h -8.025 v -12.875 h 8.356 m -4.397,10.143 h 3.106 c 0.891,0 1.064,-0.754 1.064,-1.115 0,-0.801 -0.47,-1.35 -1.064,-1.35 h -3.106 z"
                   id="path3578"
                   style="fill:#ffffff;fill-opacity:1;fill-rule:nonzero;stroke:none" />
              </g>
            </g>
          </g>
        </g>
        <g
           id="g3580">
          <g
             clip-path="url(#clipPath3584)"
             id="g3582">
            <g
               clip-path="url(#clipPath3590)"
               id="g3588">
              <g
                 transform="translate(411.528,271.394)"
                 id="g3594">
                <path
                   d="m -356.25,357 v -0.429 h 0.507 v -2.711 h 0.397 V 357 Z"
                   id="path3596"
                   style="fill:#000000;fill-opacity:1;fill-rule:nonzero;stroke:none" />
              </g>
            </g>
          </g>
        </g>
        <g
           id="g3598">
          <g
             clip-path="url(#clipPath3602)"
             id="g3600">
            <g
               clip-path="url(#clipPath3608)"
               id="g3606">
              <g
                 transform="translate(414.34,269.374)"
                 id="g3612">
                <path
                   d="m -356.25,357 c -0.166,-0.032 -0.301,-0.08 -0.363,-0.255 -0.031,-0.084 -0.047,-0.268 -0.047,-0.347 v -0.088 h 1.736 v -0.43 h -2.13 v 0.346 c 0,0.494 0.032,1.069 0.668,1.184 l 0.649,0.12 c 0.292,0.056 0.433,0.148 0.433,0.538 0,0.391 -0.155,0.554 -0.641,0.554 -0.553,0 -0.672,-0.159 -0.676,-0.653 h -0.39 c 0.007,0.677 0.169,1.084 1.042,1.084 0.5,0 1.056,-0.076 1.056,-0.985 0,-0.398 -0.1,-0.61 -0.288,-0.758 -0.063,-0.048 -0.205,-0.155 -0.42,-0.195 z"
                   id="path3614"
                   style="fill:#000000;fill-opacity:1;fill-rule:nonzero;stroke:none" />
              </g>
            </g>
          </g>
        </g>
        <g
           id="g3616">
          <g
             clip-path="url(#clipPath3620)"
             id="g3618">
            <g
               clip-path="url(#clipPath3626)"
               id="g3624">
              <g
                 transform="translate(416.123,268.6)"
                 id="g3630">
                <path
                   d="m -356.25,357 c 0.294,0.08 0.82,0.232 1.462,0.582 v -0.749 c 0,-0.088 -0.003,-0.124 -0.109,-0.124 h -0.542 l 0.052,-0.414 h 0.655 c 0.192,0 0.304,0.119 0.304,0.315 v 1.187 c 0.441,0.291 0.668,0.595 0.801,0.766 l -0.287,0.267 c -0.08,-0.116 -0.203,-0.295 -0.514,-0.546 v 0.681 h 1.125 v 0.407 h -1.125 v 0.662 h -0.36 v -0.662 h -1.591 v -0.407 h 1.591 v -0.936 c -0.291,-0.171 -0.751,-0.443 -1.591,-0.622 z"
                   id="path3632"
                   style="fill:#000000;fill-opacity:1;fill-rule:nonzero;stroke:none" />
              </g>
            </g>
          </g>
        </g>
        <g
           id="g3634">
          <g
             clip-path="url(#clipPath3638)"
             id="g3636">
            <g
               clip-path="url(#clipPath3644)"
               id="g3642">
              <g
                 transform="translate(420.309,271.168)"
                 id="g3648">
                <path
                   d="m -356.25,357 c 0.297,-0.408 0.417,-0.603 0.632,-1.08 l 0.317,0.266 c -0.238,0.471 -0.387,0.718 -0.682,1.057 L -356.25,357 m -0.95,-2.95 c 0.44,0.164 1.182,0.514 1.565,0.733 l -0.07,0.379 c -0.356,-0.188 -0.885,-0.419 -0.885,-0.419 v 2.651 h -0.362 v -2.799 c -0.166,-0.067 -0.221,-0.083 -0.31,-0.115 l 0.062,-0.43 m 2.77,3.316 h -0.371 v -0.686 c 0,-0.988 -0.096,-2.156 -1.443,-2.543 l 0.186,-0.41 c 0.225,0.079 0.737,0.267 1.138,0.873 0.212,-0.303 0.377,-0.55 0.506,-0.861 l 0.294,0.362 c -0.171,0.299 -0.31,0.479 -0.609,0.85 0.195,0.45 0.299,1.124 0.299,1.702 z"
                   id="path3650"
                   style="fill:#000000;fill-opacity:1;fill-rule:nonzero;stroke:none" />
              </g>
            </g>
          </g>
        </g>
        <g
           id="g3652">
          <g
             clip-path="url(#clipPath3656)"
             id="g3654">
            <g
               clip-path="url(#clipPath3662)"
               id="g3660">
              <g
                 transform="translate(424.26,271.634)"
                 id="g3666">
                <path
                   d="m -356.25,357 v -1.204 h 1.241 v -0.426 h -1.241 v -1.555 h 1.453 v -0.419 h -3.13 v 0.419 h 1.313 V 357 Z"
                   id="path3668"
                   style="fill:#000000;fill-opacity:1;fill-rule:nonzero;stroke:none" />
              </g>
            </g>
          </g>
        </g>
        <g
           id="g3670">
          <g
             clip-path="url(#clipPath3674)"
             id="g3672">
            <g
               clip-path="url(#clipPath3680)"
               id="g3678">
              <g
                 transform="translate(427.758,270.143)"
                 id="g3684">
                <path
                   d="m -356.25,357 c 0.099,-0.175 0.242,-0.45 0.44,-1.06 l -0.337,-0.199 c -0.099,0.346 -0.252,0.745 -0.418,1.056 l 0.315,0.203 m 0.967,1.494 v -0.737 h 0.274 v -0.426 h -0.274 v -2.213 c 0,-0.306 -0.136,-0.362 -0.391,-0.362 h -0.503 l -0.086,0.41 h 0.513 c 0.105,0 0.113,0.012 0.113,0.096 v 2.069 h -0.801 v 0.426 h 0.801 v 0.737 h 0.354 m -2.493,-1.306 c 0.094,-0.092 0.259,-0.256 0.524,-0.578 0.115,0.386 0.148,0.677 0.168,0.873 h -1.002 v 0.406 h 0.622 v 0.605 h 0.351 v -0.605 h 0.576 v -0.406 h -0.193 c -0.032,-0.236 -0.098,-0.678 -0.267,-1.2 0.151,-0.207 0.354,-0.499 0.475,-0.782 l -0.277,-0.266 c -0.069,0.138 -0.176,0.35 -0.36,0.633 -0.222,-0.491 -0.517,-0.809 -0.748,-1.037 l -0.239,0.368 c 0.14,0.127 0.48,0.434 0.742,1.016 -0.286,0.383 -0.503,0.582 -0.623,0.694 z"
                   id="path3686"
                   style="fill:#000000;fill-opacity:1;fill-rule:nonzero;stroke:none" />
              </g>
            </g>
          </g>
        </g>
        <g
           id="g3688">
          <g
             clip-path="url(#clipPath3692)"
             id="g3690">
            <g
               clip-path="url(#clipPath3698)"
               id="g3696">
              <path
                 d="m 75.546,627.163 h -0.867 v 0.371 h 0.867 z m -1.979,0.685 c 0.146,0.1 0.248,0.184 0.318,0.251 h 0.956 c -0.063,-0.087 -0.129,-0.163 -0.215,-0.251 H 73.567 M 73.11,625.52 c 0.652,0.164 1.046,0.375 1.268,0.531 0.019,-0.052 0.03,-0.087 0.043,-0.14 -0.205,-0.143 -0.679,-0.406 -1.459,-0.573 l 0.108,-0.351 c 0.725,0.203 1.172,0.442 1.401,0.602 0.006,-0.236 -0.01,-0.299 -0.202,-0.299 h -0.291 l 0.076,-0.395 h 0.3 c 0.179,0 0.444,0 0.444,0.582 0,0.075 -0.01,0.59 -0.238,0.925 -0.063,0.087 -0.109,0.144 -0.139,0.175 0.142,0.076 0.258,0.164 0.397,0.267 0.165,-1.223 0.641,-1.583 1.098,-1.849 l 0.212,0.362 c -0.112,0.069 -0.407,0.243 -0.639,0.519 0.212,0.143 0.367,0.291 0.53,0.458 l -0.271,0.283 c -0.129,-0.167 -0.291,-0.299 -0.451,-0.427 -0.046,0.104 -0.119,0.339 -0.164,0.654 h 0.74 v 1.004 h -0.764 c 0.139,0.161 0.159,0.184 0.205,0.251 v 0.32 h -1.148 c 0.037,0.051 0.053,0.076 0.1,0.151 l -0.355,0.088 c -0.367,-0.538 -0.827,-0.686 -0.989,-0.737 l 0.139,-0.351 c 0.083,0.035 0.103,0.048 0.149,0.071 v -0.797 h 1.095 c -0.394,-0.223 -0.826,-0.323 -1.254,-0.411 l 0.113,-0.326 c 0.185,0.039 0.545,0.119 0.973,0.319 0.046,-0.048 0.072,-0.081 0.095,-0.112 -0.38,-0.243 -0.797,-0.379 -1.224,-0.442 l 0.102,-0.352 m 1.251,1.643 h -0.83 v 0.371 h 0.83 z"
                 id="path3702"
                 style="fill:#000000;fill-opacity:1;fill-rule:nonzero;stroke:none" />
            </g>
          </g>
        </g>
      </g>
    </g>
  </g>
</svg>
