<svg width="24" height="24" viewBox="0 0 500 500" xmlns="http://www.w3.org/2000/svg"><g fill="none"><rect fill="#ffcc03" height="500" rx="49.050633" width="500"/><g fill="#fff"><path d="m157.230741 376.479495h48.465462v-253.375394h-43.798849c-7.758296 21.579072-22.247297 33.209265-35.315076 37.677958v48.465601c.905897 0 10.085586 0 30.648463-17.184744z"/><path d="m373.743767 334.096703v42.382792h-136.401995v-35.472555l9.382288-15.388091c34.758975-57.132208 55.643633-92.92649 62.654537-107.383805 7.620545-15.714472 11.430762-27.973622 11.430762-36.777822 0-6.756711-1.150736-11.798575-3.452243-15.125743-2.301508-3.327169-5.804861-4.990727-10.510165-4.990727-4.705305 0-8.208658 1.842711-10.510166 5.52819-2.242494 3.590979-3.392475 10.632161-3.449973 21.123749l-.002271 24.483822h-55.542769v-9.060089c0-13.922921.716014-24.902412 2.148063-32.938802 1.432049-8.036391 4.960975-15.944696 10.586882-23.725151 5.625906-7.780455 12.939476-13.666895 21.940929-17.659497 9.001451-3.992602 19.792802-5.988873 32.374376-5.988873 24.651701 0 43.293633 6.116779 55.926351 18.350521 8.421814 8.155828 12.896943 23.668518 13.425394 46.538069 0 20.161569-1.713337 35.181894-5.140008 45.060975l-.443147.973457c-7.509224 16.248929-28.304924 49.605138-62.387693 100.06958z"/></g></g></svg>
