<svg width="24" height="24" viewBox="0 0 500 500" xmlns="http://www.w3.org/2000/svg"><g fill="none"><rect fill="#000" height="500" rx="49.050633" width="500"/><g fill="#fff"><path d="m30.6484625 253.375394h48.4654616v-253.375394h-43.7988482c-7.7582968 21.5790724-22.2472976 33.2092654-35.3150759 37.6779592v48.4655998c.90589648 0 10.0855852 0 30.6484625-17.1847435z" transform="translate(132.911392 123.104101)"/><g transform="translate(243.670886 123.104101)"><path d="m83.0646445 0c23.5944435 0 42.7215185 19.1430048 42.7215185 42.7570978v35.5960557c0 23.6140935-19.127075 42.7570975-42.7215185 42.7570975h-40.3431255c-23.5944434 0-42.721519-19.143004-42.721519-42.7570975v-35.5960557c0-23.614093 19.1270756-42.7570978 42.721519-42.7570978zm-20.9649565 25.496895c-7.4322204 0-11.1483306 6.8491485-11.1483306 20.5474451v34.9088333c0 12.9605671 3.7161102 19.4408506 11.1483306 19.4408506 7.4322202 0 11.1483305-6.4802835 11.1483305-19.4408506v-34.9088333c0-13.6982966-3.7161103-20.5474451-11.1483305-20.5474451z"/><path d="m83.0646445 119.516695c23.5944435 0 42.7215185 19.143005 42.7215185 42.757098v48.344504c0 23.614092-19.127075 42.757097-42.7215185 42.757097h-40.3431255c-23.5944434 0-42.721519-19.143005-42.721519-42.757097v-48.344504c0-23.614093 19.1270756-42.757098 42.721519-42.757098zm-19.809067 15.93556c-9.3349144 0-13.3163962 7.869234-11.9444455 23.607702v40.108022c-1.6425054 14.890864 2.3389764 22.336297 11.9444455 22.336297 9.6054692 0 13.586951-7.445433 11.9444456-22.336297v-40.108022c1.3719508-15.738468-2.609531-23.607702-11.9444456-23.607702z"/></g></g></g></svg>
