<svg
   version="1.1"
   id="Ebene_1"
   x="0px"
   y="0px"
   width="425.72699"
   height="425.71701"
   viewBox="0 0 425.72699 425.71702"
   enable-background="new 0 0 426.082 519.378"
   xml:space="preserve"
   xmlns:xlink="http://www.w3.org/1999/xlink"
   xmlns="http://www.w3.org/2000/svg"
   xmlns:svg="http://www.w3.org/2000/svg"><defs
   id="defs13" />
<g
   id="g13">
	<defs
   id="defs1">
		<rect
   id="SVGID_1_"
   y="-3.6240001"
   width="426.082"
   height="536.125"
   x="0" />
	</defs>
	<clipPath
   id="SVGID_2_">
		<use
   xlink:href="#SVGID_1_"
   overflow="visible"
   id="use1" />
	</clipPath>
	<rect
   clip-path="url(#SVGID_2_)"
   fill="#f5a200"
   width="425.72699"
   height="425.71701"
   id="rect1"
   x="0"
   y="0" />
	<path
   clip-path="url(#SVGID_2_)"
   fill="#ffffff"
   d="M 149.868,365.254 H 83.447 V 134.505 H 40.029 V 95.339 c 29.8,0.422 49.386,-11.931 60.027,-40.877 h 49.812 z"
   id="path1" />
	<path
   clip-path="url(#SVGID_2_)"
   fill="#ffffff"
   d="m 280.125,189 c 12.77,-11.926 22.145,-20.439 43.427,-20.439 39.593,0 60.453,33.635 60.453,96.226 0,58.756 -15.328,105.586 -85.569,105.586 -49.391,0 -74.507,-25.126 -83.446,-72.81 -3.83,-20.86 -4.262,-46.414 -4.262,-81.314 0.432,-42.583 0.853,-68.127 4.692,-88.987 8.939,-47.679 34.047,-72.801 83.438,-72.801 44.692,0 80.892,27.677 80.892,74.512 v 15.756 h -62.16 v -7.248 c 0,-21.282 -8.091,-26.818 -18.731,-26.818 -12.77,1.706 -18.311,13.627 -18.732,30.648 V 189 Z m 19.155,40.868 c -13.191,0 -19.154,13.206 -19.154,41.299 0,28.524 5.963,41.294 19.154,41.294 14.054,0 20.017,-12.77 20.017,-41.294 -0.001,-28.094 -5.964,-41.299 -20.017,-41.299"
   id="path2" />
</g>
</svg>
