<svg
   version="1.1"
   id="Ebene_1"
   x="0px"
   y="0px"
   width="425.71701"
   height="425.71201"
   viewBox="0 0 425.71702 425.712"
   enable-background="new 0 0 425.292 519.372"
   xml:space="preserve"
   xmlns:xlink="http://www.w3.org/1999/xlink"
   xmlns="http://www.w3.org/2000/svg"
   xmlns:svg="http://www.w3.org/2000/svg"><defs
   id="defs13" />
<g
   id="g13">
	<defs
   id="defs1">
		<rect
   id="SVGID_1_"
   y="-3.6240001"
   width="426.082"
   height="536.12"
   x="0" />
	</defs>
	<clipPath
   id="SVGID_2_">
		<use
   xlink:href="#SVGID_1_"
   overflow="visible"
   id="use1" />
	</clipPath>
	<rect
   clip-path="url(#SVGID_2_)"
   fill="#e2011a"
   width="425.71701"
   height="425.71201"
   id="rect1"
   x="0"
   y="0" />
	<path
   clip-path="url(#SVGID_2_)"
   fill="#ffffff"
   d="M 149.866,365.25 H 83.451 V 134.503 H 40.028 V 95.337 c 29.805,0.422 49.39,-11.93 60.031,-40.876 h 49.807 V 365.25 Z"
   id="path1" />
	<path
   clip-path="url(#SVGID_2_)"
   fill="#ffffff"
   d="m 211.162,276.699 c 0,-30.657 6.812,-52.361 31.923,-71.524 -20.86,-20.86 -28.52,-39.17 -28.52,-67.264 0,-48.963 31.079,-83.45 82.166,-83.45 51.086,0 82.166,34.487 82.166,83.45 0,28.093 -7.66,46.403 -28.521,67.264 25.126,19.164 31.923,40.867 31.923,71.524 0,55.765 -17.438,93.67 -85.568,93.67 -68.112,0 -85.569,-37.905 -85.569,-93.67 m 85.569,-43.426 c -15.329,0 -19.164,10.641 -19.164,39.597 0,29.368 3.835,39.587 19.164,39.587 15.319,0 19.163,-10.219 19.163,-39.587 0,-28.956 -3.844,-39.597 -19.163,-39.597 m 0,-122.611 c -14.045,0 -17.457,6.811 -17.457,36.194 0,29.368 3.412,36.184 17.457,36.184 14.044,0 17.457,-6.816 17.457,-36.184 0,-29.383 -3.413,-36.194 -17.457,-36.194"
   id="path2" />
</g>
</svg>
