<svg width="24" height="24" viewBox="0 0 24 24" xmlns="http://www.w3.org/2000/svg"><path d="m 14.61074,1.6465269 c 0.89189,0.13392 1.80276,0.44538 2.27772,0.59068 0.95696,0.29249 2.51047,1.20165 3.05904,1.63773 0.25949,0.20619 0.80521,0.74622 1.01651,1.01804 0.20581,0.2648 0.59903,0.8384 0.84998,1.19178 0.39928,0.58328 0.86951,1.45203 1.26842,2.25155 0.44556,0.89322 0.4761,1.15195 0.61078,1.8987401 l 0.29458,1.3164 c 0.0277,0.22762 0.0506,1.06261 -0.4395,1.17965 -0.48995,0.11703 -0.94292,-0.10907 -1.1565,-0.4395 -0.29553,-0.45733 -0.25475,-1.10643 -0.58897,-1.84942 C 21.54217,9.8416369 21.42817,8.9689069 21.012,8.3412369 l -0.32644,-0.55198 c -0.57759,-0.88924 -1.17965,-1.59505 -1.53872,-2.05541 -0.3162,-0.38677 -0.90669,-0.91257 -1.46644,-1.28663 -0.51765,-0.31393 -1.35454,-0.67186 -1.95811,-0.85623 -0.19234,-0.0626 -1.01557,-0.30464 -1.52715,-0.37273 -0.69424,-0.078 -1.151,-0.18779 -1.81072,-0.23426 -0.81451,-0.0575 -1.20525,-0.12994 -2.26179,-0.006 -0.40024,0.1085 -1.03435,0.15155 -1.60511,0.36988 -0.46093,0.18798 -1.10206,0.49166 -1.73011,0.8606 -0.67584,0.37064 -1.70184,1.12862 -2.38224,1.77582 -0.68571,0.73275 -1.02866,1.12596 -1.50154,2.05485 -0.20941,0.4596 -0.61438,1.17054 -0.7777,1.67244 -0.11154,0.5094901 -0.32436,1.4598101 -0.28851,1.9213101 0.0161,0.82683 -0.0562,0.99717 0.006,1.67301 0.002,0.60851 0.20201,1.03036 0.28509,1.5281 0.0711,0.34389 0.401,1.53378 0.6051,1.80996 0.92774,1.99889 2.17302,2.86461 3.56074,3.48905 0.39113,0.19917 1.61516,0.52675 1.9693,0.62064 0.60377,0.10888 1.39835,0.18153 2.16316,0.19633 0.80464,0.0157 1.91372,-0.0933 2.58672,-0.34106 0.72839,-0.26783 1.57058,-0.64852 1.56091,-0.6379 0.33802,-0.18627 0.85377,-0.49034 1.01443,-0.62406 0.31051,-0.19898 0.49754,-0.27599 0.68153,-0.46757 0.26537,-0.23218 0.42603,-0.3659 0.6271,-0.65366 0.11191,-0.16217 0.28965,-0.41047 0.46283,-0.62994 0.18627,-0.3052 0.29325,-0.6269 0.47516,-1.02486 0.21756,-0.58859 0.1838,-0.56032 0.22515,-1.18552 0.0391,-0.18115 -0.004,-0.79004 -0.037,-0.89341 -0.0981,-0.56185 -0.0633,-1.05749 -0.19196,-1.60302 -0.17375,-0.73806 -0.3181,-1.29042 -0.53984,-1.99851 -0.20846,-0.79725 -0.82076,-1.5358801 -1.28036,-2.0633901 -0.28472,-0.32701 -1.16808,-1.09941 -2.39363,-1.58177 -0.34503,-0.11609 -0.90991,-0.24773 -1.2686,-0.31317 -0.76576,-0.08 -0.89038,-0.0286 -1.62351,0.025 -0.25228,0.044 -0.83802,0.1637 -1.05331,0.23938 -0.62975,0.22117 -0.86136,0.36173 -1.50515,0.75608 -0.2997,0.17394 -0.52561,0.3071 -0.83195,0.59428 -0.2445,0.22629 -0.4192,0.61097 -0.61723,0.83651 -0.27125,0.36912 -0.57323,0.8615401 -0.77581,1.3926601 -0.21965,0.52827 -0.29041,1.27202 -0.25702,1.75059 0,0.36476 0.0992,1.03245 0.13866,1.17851 0.0393,0.14624 0.1379,0.59959 0.15933,0.69064 0.0214,0.0909 0.25721,0.57056 0.28965,0.63999 0.13297,0.28301 0.38752,0.68969 0.8164,1.10491 0.31639,0.3456 0.92812,0.68476 1.38602,0.81621 0.41067,0.22534 1.1032,0.26366 1.48636,0.26442 0.18855,-0.0114 0.67016,-0.041 0.92149,-0.10129 0.50968,-0.12235 0.60376,-0.12557 1.129,-0.35376 0.47136,-0.21852 0.79117,-0.29724 1.11951,-0.53984 0,0 0.45069,-0.3532 0.65555,-0.61155 0.10812,-0.13638 0.29344,-0.78624 0.26044,-1.18875 -0.0154,-0.55103 0.0649,-0.86363 -0.0476,-1.31697 -0.11249,-0.45335 -0.30445,-0.97877 -0.51253,-1.30256 -0.21074,-0.32796 -0.66389,-0.64758 -1.17964,-0.90195 -0.2887,-0.14264 -0.97289,-0.27485 -1.26311,-0.30918 -0.55141,-0.0654 -1.01253,0.18475 -1.29251,0.47098 -0.24279,0.27751 -0.72269,0.85396 -0.53149,1.44995 0.17299,0.53927 0.38183,1.11382 1.19065,1.07114 0.55501,0.11552 1.19709,-0.0522 1.41086,0.0463 0.31735,0.1802 0.43931,0.57816 0.32398,0.85567 -0.0804,0.5351 -0.59295,0.59921 -1.14,0.63999 -0.48938,0.082 -1.73238,-0.15762 -2.00552,-0.36229 -0.18324,-0.10888 -0.46378,-0.37046 -0.66143,-0.54705 -0.14208,-0.12709 -0.30293,-0.41048 -0.41276,-0.61401 -0.13486,-0.25 -0.20296,-0.434 -0.23767,-0.59693 -0.0412,-0.19348 -0.12595,-0.5628 -0.0939,-0.93211 0.0216,-0.24906 0.0884,-0.35509 0.15478,-0.71928 0.13221,-0.41295 0.29648,-0.72725 0.5607,-1.08538 0.34428,-0.3493901 0.7815,-0.7653701 1.20829,-0.9586601 0.37634,-0.19879 1.03568,-0.272 1.63223,-0.2371 0.48389,0.0463 1.05635,0.10527 1.43477,0.23217 0.64777,0.23141 0.8329,0.27751 1.36459,0.61287 0.44936,0.2780801 0.90138,0.7896501 1.15366,1.2134101 0.53661,1.09808 0.84447,2.31964 0.62064,3.96401 -0.0184,0.27789 -0.10489,0.54933 -0.27807,0.91713 -0.15991,0.33953 -0.44045,0.75247 -0.86136,1.06336 -0.16958,0.15687 -0.43684,0.34997 -0.65441,0.46302 -0.3088,0.18741 -0.51651,0.28491 -0.83897,0.4469 -0.28301,0.13297 -0.61287,0.28509 -1.04307,0.40459 -0.46625,0.18438 -0.82399,0.19196 -1.4103,0.27941 -0.57721,0.14473 -2.15633,0.0414 -3.09697,-0.37349 -0.64208,-0.26992 -1.3625,-0.74584 -1.91012,-1.32589 -0.30425,-0.31886 -0.60187,-0.89739 -0.68931,-1.01576 -0.43552,-0.83726 -0.52088,-1.62483 -0.59068,-1.79024 -0.0948,-0.22477 -0.14207,-0.72876 -0.20562,-1.07361 -0.0717,-0.38657 -0.0273,-2.0078 0.36306,-3.04841 0.22003,-0.4142701 0.34883,-0.7835801 0.49773,-0.9776301 0.26764,-0.3807 0.39701,-0.61856 0.62463,-0.88848 0.34314,-0.41617 0.59295,-0.7557 0.92717,-0.99508 0.85169,-0.69254 1.56319,-1.05787 2.52546,-1.51501 1.19576,-0.48692 1.55484,-0.38619 2.68649,-0.36817 0.50911,0.004 1.25002,0.16445 1.61421,0.23084 0.67641,0.0901 1.06394,0.25304 1.52146,0.3807 0.48919,0.13657 0.77201,0.35452 1.17338,0.59712 0.33043,0.2134 0.71928,0.5057 0.97612,0.74299 0.65706,0.4818 0.97402,0.98826 1.37672,1.61023 0.073,0.10433 0.55122,1.1235 0.62748,1.4072701 0.0353,0.14207 0.14359,0.55008 0.21301,0.78851 0.0893,0.37823 0.13259,0.71322 0.23218,1.14 0.0891,0.43969 0.24089,1.26994 0.30671,2.04594 0.11059,0.6656 -0.0666,2.0243 -0.17109,2.44142 -0.23274,0.7777 -0.6398,1.72688 -1.44369,2.64097 -0.34143,0.40478 -0.70448,0.71852 -1.12387,1.059 -0.32076,0.26765 -0.59599,0.42338 -1.09144,0.71929 -0.673,0.40156 -1.18515,0.65801 -2.12845,1.02676 -0.38411,0.12329 -0.86799,0.28547 -1.38962,0.3934 -1.01045,0.0933 -2.04878,0.18286 -3.18214,0.0482 -1.13355,-0.13487 -2.269,-0.45429 -2.93972,-0.66029 -0.37008,-0.13885 -1.08708,-0.4395 -1.38773,-0.6013 -0.19557,-0.0994 -0.8513,-0.54781 -0.96265,-0.65574 -0.44936,-0.27807 -1.45506,-1.22384 -2.10435,-2.10549 -0.14227,-0.27238 -0.65384,-1.08973 -0.76481,-1.44786 -0.29496,-0.60566 -0.50058,-1.33822 -0.6214,-1.65119 -0.12747,-0.73048 -0.34276,-1.20089 -0.42679,-1.93421 0.01,-0.17262 -0.0347,-0.57873 -0.07380000311,-0.8035 C 0.05715,12.212947 -0.01915,11.739877 0.08045,11.193587 c 0.0874,-0.46112 0.20334,-0.65365 0.23084,-1.07039 0.0269,-0.1783001 0.25645,-0.7145401 0.31753,-0.9531601 0.18513,-0.39302 0.23123,-0.71681 0.47288,-1.15593 0.34826,-0.68438 0.71227,-1.47176 1.27165,-2.15956 0.15971,-0.2132 0.61268,-0.72478 0.76708,-0.90213 0.36495,-0.36476 0.5791,-0.42243 0.99299,-0.78852 0.0431,-0.0271 0.3164,-0.33877 0.60263,-0.44595 0.4744,-0.36646 0.88431,-0.50095 1.33575,-0.83423 0.9048,-0.45068 1.23466,-0.60281 2.13281,-0.97649 0.51898,-0.18513 1.24281,-0.28756 1.50344,-0.38866 0.49583,-0.0307 0.99906,-0.18893 1.52069,-0.15744 0.58556,-0.005 1.17566,0.0362 1.76406,0.0897 0.39815,0.0245 0.9158,0.0438 1.61801,0.19613 z"/></svg>
