<svg width="24" height="24" viewBox="0 0 24 24" xmlns="http://www.w3.org/2000/svg"><path d="m 20.84605,20.22559 -5.12648,-6.81751 v 9.01761 L 12.46677,24 V 10.35872 l 3.4682,-1.3619 5.25784,7.01843 V 6.54505 L 24,5.50785 V 18.95011 Z M 5.78954,19.55788 3.95013,16.12255 v 4.3295 z M 11.4909,24 V 10.35872 L 8.10787,8.99682 v 6.79645 L 3.19676,6.3861 0,5.13365 v 13.94319 l 3.18304,1.37521 v -7.5999 l 4.9118,9.69503 z m 8.92244,-3.3827 -4.08297,-5.38201 v 2.24353 l 1.53593,2.10097 z M 12.02308,5.93385 15.51926,7.28873 16.31915,5.93385 V 1.79699 l -3.23708,1.23033 -1.05899,1.9329 z M 10.19666,6.65095 12.12824,3.02012 9.17391,1.7714 7.75435,4.39794 9.05511,7.12296 Z M 12.02308,9.509 15.50007,8.16247 12.02308,6.72032 8.54609,8.2581 Z M 3.28077,3.08003 0,4.39794 3.70425,5.68538 6.75607,4.39794 Z M 15.81903,1.23233 12.71793,0 9.61702,1.21725 12.71812,2.44958 Z M 17.59492,4.70771 20.81384,5.89185 24,4.70771 21.04559,3.52351 Z M 8.43993,7.33573 7.32109,5.10736 4.18505,6.34791 7.40753,12.54025 V 7.81359 Z m 9.15499,-1.90199 -1.50059,2.36927 4.38623,6.24066 V 6.54505 Z"/></svg>
