<svg width="24" height="24" viewBox="0 0 24 24" xmlns="http://www.w3.org/2000/svg"><path d="m 21.2405,4.14 -0.006,3.33 h -10.6 a 0.4,0.4 0 0 0 0,0.798 l 2.76,-0.016 A 7.87,7.87 0 0 1 13.3935,23.99 L 2.7595,24 2.7645,20.625 h 10.635 a 4.5050001,4.5050001 0 1 0 -0.002,-9.01 l -2.771,-0.03 a 3.7230005,3.7230005 0 1 1 -0.004,-7.446 h 10.618 z M 2.7745,19.843 2.7705,16.512 h 10.609 c 0.21,0 0.383,-0.175 0.383,-0.387 a 0.385,0.385 0 0 0 -0.384,-0.385 h -2.744 c -4.345,0 -7.867,-3.525 -7.867,-7.871 C 2.7675,3.523 6.2895,0 10.6345,0 l 10.6,0.003 0.006,3.35 -10.604,0.003 c -2.49,0 -4.5,2.019 -4.5,4.507 a 4.51,4.51 0 0 0 4.515,4.504 l 2.775,0.03 a 3.722,3.722 0 0 1 0,7.443 h -10.65 z"/></svg>
