<?xml version="1.0" encoding="UTF-8" standalone="no"?>
<svg
   width="24"
   height="24"
   viewBox="0 0 24 24"
   version="1.1"
   id="svg1"
   xmlns="http://www.w3.org/2000/svg"
   xmlns:svg="http://www.w3.org/2000/svg">
  <defs
     id="defs1" />
  <g
     id="g1761"
     transform="matrix(0.29973334,0,0,0.29973334,48.148353,91.104475)"
     style="fill:#000000">
    <path
       id="path4768"
       style="color:#000000;font-style:normal;font-variant:normal;font-weight:normal;font-stretch:normal;font-size:medium;line-height:normal;font-family:sans-serif;text-indent:0;text-align:start;text-decoration:none;text-decoration-line:none;text-decoration-style:solid;text-decoration-color:#000000;letter-spacing:normal;word-spacing:normal;text-transform:none;writing-mode:lr-tb;direction:ltr;baseline-shift:baseline;text-anchor:start;white-space:normal;clip-rule:nonzero;display:inline;overflow:visible;visibility:visible;isolation:auto;mix-blend-mode:normal;color-interpolation:sRGB;color-interpolation-filters:linearRGB;solid-color:#000000;solid-opacity:1;fill:#000000;fill-opacity:1;fill-rule:evenodd;stroke:none;stroke-width:3.20285;stroke-linecap:round;stroke-linejoin:round;stroke-miterlimit:4;stroke-dasharray:none;stroke-dashoffset:0;stroke-opacity:1;color-rendering:auto;image-rendering:auto;shape-rendering:auto;text-rendering:auto;enable-background:accumulate"
       d="m -120.72961,-289.52122 a 25.598256,25.605062 0 0 0 -22.9798,14.4095 c 0.076,-0.1575 0.1357,-0.3037 0.2166,-0.4673 -2.0213,0.9829 -3.927,2.0022 -5.6837,3.051 -3.9065,2.3325 -7.103,4.7716 -9.2341,7.6517 -2.1312,2.8801 -3.0655,6.8693 -1.2978,10.205 1.5045,2.8389 4.7263,3.7983 7.6151,3.8247 2.6153,0.024 5.4862,-0.5336 8.6508,-1.3847 a 25.598256,25.605062 0 0 0 3.8536,5.5696 c -6.5156,0.8124 -10.3974,0.6376 -10.3974,0.6376 -1.8486,-0.1073 -3.4279,1.3181 -3.51,3.168 -0.082,1.85 1.3648,3.4097 3.2157,3.4665 0,0 7.0646,0.2939 18.0267,-1.7218 a 25.598256,25.605062 0 0 0 11.5243,2.8003 25.598256,25.605062 0 0 0 23.093504,-14.6175 c -0.1527,0.3303 -0.3163,0.6858 -0.4143,0.8836 3.3947,-1.498 6.3654,-3.028 8.8792,-4.6276 2.9104,-1.852 5.255,-3.8257 6.8264,-6.271 1.5713,-2.4454 2.1933,-5.4997 1.4935,-8.4083 -0.371,-1.5418 -1.3,-3.0016 -2.5393,-3.9415 -1.2394,-0.9399 -2.6611,-1.3909 -4.0819,-1.595 -2.8417,-0.4082 -5.8925,0.057 -9.3466,0.8869 -0.385,0.092 -0.7916,0.2085 -1.1859,0.3112 a 25.598256,25.605062 0 0 0 -3.186804,-4.7592 c 6.258504,-0.3312 10.109704,0.2335 10.109704,0.2335 1.831,0.2981 3.5511,-0.9617 3.8194,-2.7974 0.2684,-1.8356 -1.0193,-3.5352 -2.8591,-3.7736 0,0 -3.2261,-0.4676 -8.5541,-0.3723 -2.765004,0.049 -6.096004,0.2504 -9.836004,0.747 a 25.598256,25.605062 0 0 0 -12.2177,-3.1089 z m 0,3.8562 a 21.743019,21.7488 0 0 1 18.9267,11.0596 c -5.8119,1.81 -12.3324,4.3933 -18.8904,7.0167 -7.5497,3.0201 -15.118,6.0785 -21.2851,8.0187 a 21.743019,21.7488 0 0 1 -0.4942,-4.3461 21.743019,21.7488 0 0 1 21.743,-21.7489 z m -23.4736,11.6177 a 25.598256,25.605062 0 0 0 -0.7864,2.1096 c 0.2377,-0.7724 0.4995,-1.4479 0.7864,-2.1096 z m 54.597104,3.6711 c 0.4648,-0.01 0.8646,0.015 1.1893,0.061 0.6494,0.093 0.945,0.2613 1.0131,0.3129 0.068,0.052 0.037,-0.044 0.096,0.2033 0.3015,1.253 0.1566,2.0499 -0.6243,3.2651 -0.7809,1.2153 -2.374,2.7115 -4.8046,4.2582 -0.7914,0.5036 -1.6664,1.0115 -2.6206,1.5243 -2e-4,0 -7e-4,0 -9e-4,0.01 a 25.598256,25.605062 0 0 0 0.2267,-3.1714 25.598256,25.605062 0 0 0 -0.6061,-5.5042 c 0.1523,-0.038 0.3193,-0.088 0.469,-0.1237 2.2889,-0.5497 4.268,-0.8134 5.6624,-0.8322 z m -9.8465,2.0048 a 21.743019,21.7488 0 0 1 0.4661,4.4553 21.743019,21.7488 0 0 1 -21.743104,21.7488 21.743019,21.7488 0 0 1 -18.937,-11.1634 c 6.5339,-2.0717 14.0351,-5.1301 21.44,-8.0922 6.685,-2.6742 13.2827,-5.2523 18.774004,-6.9485 z m -46.663804,1.498 a 25.598256,25.605062 0 0 0 -0.2115,2.9573 25.598256,25.605062 0 0 0 0.6431,5.4033 c -2.6304,0.6693 -4.8756,1.039 -6.3478,1.0256 -1.7352,-0.016 -1.8068,-0.2918 -1.8079,-0.2939 -0.4966,-0.9371 -0.4714,-1.4697 0.7682,-3.145 1.1916,-1.6103 3.6268,-3.6589 6.9002,-5.6581 0.019,-0.1132 0.036,-0.1794 0.056,-0.2892 z m 50.623604,7.065 c -0.141,0.9076 -0.3358,1.7784 -0.5653,2.5997 a 25.598256,25.605062 0 0 0 0.5653,-2.5997 z m -0.8884,3.6771 c -0.2904,0.8911 -0.5939,1.6832 -0.8766,2.3508 a 25.598256,25.605062 0 0 0 0.8766,-2.3508 z" />
  </g>
</svg>
