<?xml version="1.0" encoding="UTF-8" standalone="no"?>
<svg
   width="24"
   height="24"
   viewBox="0 0 24 24"
   version="1.1"
   id="svg1"
   xmlns="http://www.w3.org/2000/svg"
   xmlns:svg="http://www.w3.org/2000/svg">
  <defs
     id="defs1" />
  <g
     id="g1761"
     transform="matrix(0.29973334,0,0,0.29973334,48.148353,91.104475)"
     style="fill:#000000">
    <path
       id="path1702"
       style="fill:#000000;fill-opacity:1;stroke:none;stroke-width:1.02404;stroke-linecap:round;stroke-miterlimit:4;stroke-dasharray:none"
       d="M -472.09672 -1105.7193 A 56.021402 56.081938 0 0 0 -494.13895 -1101.2124 A 56.021402 56.081938 0 0 0 -528.17511 -1049.4193 A 55.416915 51.215124 0 0 1 -489.70588 -1034.6916 A 55.416915 51.215124 0 0 1 -473.27888 -994.8186 L -471.99821 -993.56257 A 56.021402 56.081938 0 0 0 -420.27901 -1028.4607 A 56.021402 56.081938 0 0 0 -432.83939 -1089.6125 A 56.021402 56.081938 0 0 0 -472.09672 -1105.7193 z M -360.48176 -1050.0104 A 56.021401 56.081938 0 0 0 -382.52399 -1045.5034 A 56.021401 56.081938 0 0 0 -416.53552 -993.68571 A 55.416915 51.215123 0 0 1 -378.06629 -978.98268 A 55.416915 51.215123 0 0 1 -361.63929 -939.10964 L -360.38325 -937.8536 A 56.021401 56.081938 0 0 0 -308.66405 -972.75175 A 56.021401 56.081938 0 0 0 -321.22443 -1033.9035 A 56.021401 56.081938 0 0 0 -360.48176 -1050.0104 z M -543.02591 -1009.7433 A 64.102241 32.196859 0 0 0 -607.13309 -977.55424 A 64.102241 32.196859 0 0 0 -543.02591 -945.3652 A 64.102241 32.196859 0 0 0 -478.91873 -977.55424 A 64.102241 32.196859 0 0 0 -543.02591 -1009.7433 z M -431.43558 -953.61564 A 64.102241 32.196859 0 0 0 -495.54276 -921.4266 A 64.102241 32.196859 0 0 0 -431.43558 -889.23755 A 64.102241 32.196859 0 0 0 -367.3284 -921.4266 A 64.102241 32.196859 0 0 0 -431.43558 -953.61564 z "
       transform="scale(0.26458333)" />
  </g>
</svg>
