<svg width="24" height="24" viewBox="0 0 24 24" xmlns="http://www.w3.org/2000/svg"><path d="m 11.996913,3.5624998 c -1.154321,0 -1.932099,0.5771605 -2.3364198,1.875 C 9.2870362,6.7600306 6.8919749,15.965278 6.8919749,15.965278 L 3.7499997,3.7060183 H -2e-7 c 0,0 3.6018518,13.0617287 4.0925925,14.5925927 0.3719136,1.180555 1.2962963,2.138889 2.6234567,2.138889 1.5570992,0 2.2824072,-1.12963 2.5987652,-2.138889 0.347222,-1.04321 2.6820988,-9.6620368 2.6820988,-9.6620368 0,0 2.337963,8.6249998 2.652778,9.6620368 0.347222,1.007716 1.064815,2.138889 2.595679,2.138889 1.356482,0 2.246914,-0.958334 2.654321,-2.138889 C 20.385802,16.770833 24,3.7060183 24,3.7060183 H 20.219135 L 17.100308,15.965278 c 0,0 -2.391975,-9.2052474 -2.796296,-10.5277782 -0.373457,-1.3024692 -1.188271,-1.875 -2.307099,-1.875 z"/></svg>
