<svg width="24" height="24" viewBox="0 0 500 500" xmlns="http://www.w3.org/2000/svg"><g fill="none"><rect fill="#0095d9" height="500" rx="49.050633" width="500"/><g fill="#fff"><path d="m304.667413 123.104101c22.730945 0 39.634424 6.244774 50.710943 18.734509 11.076521 12.489735 16.614696 30.42284 16.614696 53.799853v112.265661c0 22.151605-5.827125 39.118537-17.481549 50.901307-11.654425 11.782768-28.268956 17.674064-49.84409 17.674064-21.478816 0-38.069269-5.891296-49.771853-17.674064-11.702584-11.78277-17.553788-28.749702-17.553788-50.901307v-112.265661c0-23.377013 5.562256-41.310118 16.686935-53.799853 11.124677-12.489735 28.004078-18.734509 50.638706-18.734509zm.623486 36.422713c-5.779054 0-9.318673 2.427577-10.618959 7.282802-1.300287 4.855225-1.950421 10.519572-1.950421 16.993205v136.102264c0 4.803019 1.131714 9.136113 3.395177 12.99941 2.263462 3.863299 5.3215 5.794919 9.174203 5.794919 3.949019 0 7.031136-1.93162 9.24644-5.794919 2.215303-3.863297 3.322938-8.196391 3.322938-12.99941v-136.102264c0-6.473633-.650133-12.13798-1.950421-16.993205-1.300286-4.855225-4.839903-7.282802-10.618957-7.282802z"/><path d="m157.230741 376.479495h48.465462v-253.375394h-43.798849c-7.758296 21.579072-22.247297 33.209265-35.315076 37.677958v48.465601c.905897 0 10.085586 0 30.648463-17.184744z"/></g></g></svg>
