<svg xmlns="http://www.w3.org/2000/svg" width="166.029" height="210.111" xmlns:v="https://vecta.io/nano"><defs><clipPath id="A"><path d="M14.478 623.106h26.066v32.015H14.478z"/></clipPath><clipPath id="B"><path d="M14.478 655.121h26.066v-32.015H14.478z"/></clipPath><clipPath id="C"><path d="M14.478 623.106h26.066v32.015H14.478z"/></clipPath><clipPath id="D"><path d="M14.478 655.121h26.066v-32.015H14.478z"/></clipPath><clipPath id="E"><path d="M14.478 623.106h26.066v32.015H14.478z"/></clipPath><clipPath id="F"><path d="M14.478 655.121h26.066v-32.015H14.478z"/></clipPath><clipPath id="G"><path d="M14.478 623.106h26.066v32.015H14.478z"/></clipPath><clipPath id="H"><path d="M14.478 655.121h26.066v-32.015H14.478z"/></clipPath><clipPath id="I"><path d="M14.478 623.106h26.066v32.015H14.478z"/></clipPath><clipPath id="J"><path d="M14.478 655.121h26.066v-32.015H14.478z"/></clipPath><clipPath id="K"><path d="M14.478 623.106h26.066v32.015H14.478z"/></clipPath><clipPath id="L"><path d="M14.478 655.121h26.066v-32.015H14.478z"/></clipPath><clipPath id="M"><path d="M14.478 623.106h26.066v32.015H14.478z"/></clipPath><clipPath id="N"><path d="M14.478 655.121h26.066v-32.015H14.478z"/></clipPath><clipPath id="O"><path d="M14.478 623.106h26.066v32.015H14.478z"/></clipPath><clipPath id="P"><path d="M14.478 655.121h26.066v-32.015H14.478z"/></clipPath><clipPath id="Q"><path d="M14.478 623.106h26.066v32.015H14.478z"/></clipPath><clipPath id="R"><path d="M14.478 655.121h26.066v-32.015H14.478z"/></clipPath><clipPath id="S"><path d="M14.478 623.106h26.066v32.015H14.478z"/></clipPath><clipPath id="T"><path d="M14.478 655.121h26.066v-32.015H14.478z"/></clipPath><clipPath id="U"><path d="M14.478 623.106h26.066v32.015H14.478z"/></clipPath><clipPath id="V"><path d="M14.478 655.121h26.066v-32.015H14.478z"/></clipPath><clipPath id="W"><path d="M14.478 623.106h26.066v32.015H14.478z"/></clipPath><clipPath id="X"><path d="M14.478 655.121h26.066v-32.015H14.478z"/></clipPath><clipPath id="Y"><path d="M14.478 623.106h26.066v32.015H14.478z"/></clipPath><clipPath id="Z"><path d="M14.478 655.121h26.066v-32.015H14.478z"/></clipPath><clipPath id="a"><path d="M14.478 623.106h26.066v32.015H14.478z"/></clipPath><clipPath id="b"><path d="M14.478 655.121h26.066v-32.015H14.478z"/></clipPath><clipPath id="c"><path d="M14.478 623.106h26.066v32.015H14.478z"/></clipPath><clipPath id="d"><path d="M14.478 655.121h26.066v-32.015H14.478z"/></clipPath><path id="e" d="M29.98 633.558l.557-1.712h3.909l-4.886 12.86h-4.099l-4.885-12.86h3.908l.541 1.712h4.955m-4.153 2.465l1.675 5.244 1.693-5.244z"/></defs><g transform="matrix(6.932313 0 0 -6.92796 -107.079972 4532.808313)"><g clip-path="url(#A)"><g clip-path="url(#B)"><path d="M39.115 651.87c0 1.174-.953 2.126-2.125 2.126H17.854c-1.173 0-2.126-.952-2.126-2.126v-22.645h23.387z"/></g></g><g clip-path="url(#C)"><g clip-path="url(#D)"><path d="M39.115 626.358a2.13 2.13 0 0 0-2.125-2.127H17.854a2.13 2.13 0 0 0-2.126 2.127v25.512c0 1.174.953 2.126 2.126 2.126H36.99c1.172 0 2.125-.952 2.125-2.126z" fill="none" stroke="#000" stroke-width=".563"/></g></g><g clip-path="url(#E)"><g clip-path="url(#F)"><path d="M21.56 651.901c-.424.285-.926.449-1.445.449-1.186 0-1.525-.951-1.525-1.998 0-1.197.581-2.166 1.871-2.166.675 0 1.289.252 1.869.563l-.433-1.264c-.562-.155-1.141-.208-1.722-.208-.882 0-1.628.15-2.32.744-.668.564-1.022 1.378-1.022 2.261 0 .797.338 1.636.944 2.175.658.561 1.567.768 2.415.768l1.308-.112z" fill="#fff"/></g></g><g clip-path="url(#G)"><g clip-path="url(#H)"><path d="M24.461 648.352c.286-.115.606-.131.909-.131.484 0 .935.079 1.264.477h.044l-.348-1.307h-3.834v.027c.423.266.363.753.363 1.201v3.24c0 .45.06.943-.363 1.201v.027h3.03c.13 0 .269 0 .363.045h.026v-1.256h-.026c-.233.408-.727.363-1.151.363h-.277v-1.402h.804c.123 0 .243.007.321.043h.045v-1.212h-.045c-.122.346-.519.311-.839.311h-.286z" fill="#fff"/></g></g><g clip-path="url(#I)"><g clip-path="url(#J)"><path d="M28.876 652.247c.172 0 .356-.016.502-.119.235-.166.348-.459.348-.739 0-.545-.4-1.002-.936-1.097v1.955h.086m-.086-2.416l1.004-1.886c.301-.536.58-.615 1.16-.583l1.196.079c-.348.286-.599.651-.832 1.04l-1.031 1.723c.573.244 1.031.718 1.031 1.368 0 .581-.26 1.038-.772 1.317-.388.207-.734.198-1.158.198h-2.563v-.027c.423-.266.364-.758.364-1.21v-3.22c0-.452.059-.946-.364-1.212v-.027h2.329v.027c-.426.266-.364.76-.364 1.212z" fill="#fff"/></g></g><g clip-path="url(#K)"><g clip-path="url(#L)"><path d="M33.366 650.491c0 .891.45 1.869 1.471 1.869 1.187 0 1.574-1.41 1.574-2.399 0-.423-.059-.865-.32-1.212-.277-.371-.691-.606-1.15-.606-.492 0-.928.33-1.168.746-.244.433-.407 1.1-.407 1.602m-1.682-.234c0-1.829 1.378-2.98 3.153-2.98 1.758 0 3.255 1.101 3.255 2.987 0 1.905-1.333 2.961-3.151 2.961-1.758 0-3.257-1.126-3.257-2.968" fill="#fff"/></g></g><g clip-path="url(#M)"><g clip-path="url(#N)"><use href="#e" fill="none" stroke="#fff" stroke-width="3.049"/></g></g><g clip-path="url(#O)"><g clip-path="url(#P)"><use href="#e" fill="none" stroke="#000" stroke-width="1.524"/></g></g><g clip-path="url(#Q)"><g clip-path="url(#R)"><use href="#e"/></g></g><g clip-path="url(#S)"><g clip-path="url(#T)"><path d="M29.726 633.558l.558-1.712h3.908l-4.886 12.86h-4.099l-4.885-12.86h3.908l.541 1.712h4.955m-4.153 2.465l1.675 5.244 1.693-5.244z" fill="#fff"/></g></g><g clip-path="url(#U)"><g clip-path="url(#V)"><path d="M20.458 627.369v.009c-.41.255-.785.569-1.104.94-.402-.474-.717-.718-1.076-.94v-.009h2.18m-2.332-.091a4.7 4.7 0 0 0-.486-.248l-.203.407c.621.219 1.311.718 1.698 1.232h.446c.391-.502.953-.969 1.722-1.224l-.223-.406c-.124.052-.243.099-.479.239v-.304h-1.032v-.538h1.26v-.362h-1.26v-.649h1.614v-.412h-3.659v.412h1.619v.649h-1.252v.362h1.252v.538h-1.017z"/></g></g><g clip-path="url(#W)"><g clip-path="url(#X)"><path d="M23.365 627.847v-.542h-1.311v-1.112h-.602v-.402h1.913v-.897h.423v.897h1.455v.402h-1.455v.722h1.172v.39h-1.172v.542h1.299v.404h-2.443c.056.115.087.207.12.299l-.463.111c-.156-.542-.466-.953-.897-1.276l.283-.355c.16.128.434.348.742.817h.936m0-1.654h-.881v.722h.881z"/></g></g><g clip-path="url(#Y)"><g clip-path="url(#Z)"><path d="M26.906 627.298l-.083-.471.227-.052c.04.168.064.319.088.479l-.232.044m-.901-.044c.012-.052.068-.267.076-.479l.251.048c-.024.207-.036.275-.08.475l-.247-.044m1.643-.479v-.37h.251v-1.511h.378v1.511h.431v-.742c0-.068-.045-.068-.099-.068h-.224l.056-.41h.331c.175 0 .315.056.315.334v1.256h-1.439m.33.71c.037.048.212.315.367.705a2.97 2.97 0 0 1 .423-.705h-.79m-1.634-1.097c-.111-.182-.275-.362-.438-.509v.509h.438m.849 0v-.469c-.187.167-.326.366-.394.469h.394m.534.774c.064.068.084.088.116.14h.008v-.192h1.072v.195c.052-.051.08-.075.164-.143l.203.419c-.336.266-.618.622-.773 1.06h-.395c-.116-.455-.347-.809-.53-1.005v.144h-.793v.263h.749v.335h-.749v.263h-.371v-.861h-.399v.689h-.37v-.689h-.212v-.359h2.109l.171-.259m-1.821-.458v.55h-.347v-2.36h.347v.163h1.287v-.163h.355v2.36h-.355v-.55h-.478v.594h-.311v-.594h-.498m.809-.59h.008c.04-.088.151-.295.339-.534l.123.235h.008v-.407h-1.287v.471h.007l.14-.284c.084.088.211.215.343.475h.008v-.522h.311z"/></g></g><g clip-path="url(#a)"><g clip-path="url(#b)"><path d="M31.296 626.939c.199-.311.383-.71.502-1.056l.406.199c-.238.61-.41.885-.529 1.06l-.379-.203m-1.761.112c.142-.112.406-.311.749-.694-.316-.582-.726-.889-.893-1.016l.286-.368c.279.228.635.546.901 1.037.224-.283.351-.495.435-.633l.335.266c-.147.284-.391.575-.574.782.204.522.283.964.323 1.2h.23v.406h-.693v.605h-.422v-.605h-.75v-.406h1.208a3.72 3.72 0 0 0-.203-.873l-.63.578-.302-.279m2.877 1.585v-.737h-.964v-.426h.964v-2.069c0-.084-.008-.096-.135-.096h-.617l.103-.41h.605c.307 0 .471.056.471.362v2.213h.33v.426h-.33v.737z"/></g></g><g clip-path="url(#c)"><g clip-path="url(#d)"><path d="M36.538 627.162h-1.043v.371h1.043zm-2.382.685a3.04 3.04 0 0 1 .382.251h1.153c-.076-.087-.156-.163-.26-.251h-1.275m-.551-2.328c.785.164 1.26.375 1.527.531.024-.052.035-.087.052-.139-.247-.144-.817-.407-1.758-.574l.132-.351c.873.203 1.41.442 1.685.602.008-.236-.011-.299-.243-.299h-.35l.092-.395h.362c.216 0 .534 0 .534.582 0 .076-.012.59-.287.925-.075.087-.131.143-.167.175.171.076.311.164.477.268.201-1.224.774-1.584 1.325-1.85l.255.362c-.136.069-.491.243-.769.519.254.143.441.291.637.458l-.326.283c-.157-.167-.352-.299-.543-.427-.055.104-.143.339-.2.655h.894v1.003h-.921l.247.251v.32h-1.384a1.59 1.59 0 0 1 .12.151l-.426.088a2.22 2.22 0 0 0-1.192-.737l.168-.351.179.071v-.796h1.319c-.474-.224-.996-.324-1.51-.412l.135-.326a6 6 0 0 1 1.172.319c.056-.048.088-.081.115-.112-.458-.243-.961-.379-1.474-.442l.123-.352m1.508 1.643h-1.001v.371h1.001z"/></g></g></g></svg>
