<?xml version="1.0" encoding="UTF-8" standalone="no"?>
<svg width="24" height="24" viewBox="0 0 500 500" xmlns="http://www.w3.org/2000/svg">
  <rect fill="#000000" height="500" rx="49.050633" width="500" />
  <path fill="#ffffff" d="m 253.23485,62.500058 c -53.79174,0 -101.77164,19.178829 -135.05041,53.629542 -33.27877,34.45071 -51.066063,82.89814 -51.066063,136.71871 0,56.61051 20.472658,104.7445 55.135073,136.88146 34.66241,32.13697 81.65055,47.77017 131.30692,47.77017 54.54144,0 97.58262,-19.35596 126.70895,-46.42739 43.33797,-40.27208 48.6907,-89.7152 49.88605,-105.957 l 2.64485,-36.1328 h 0.0814 l -0.0407,-0.36621 0.0407,-0.44759 h -0.0814 l -4.35384,-37.55696 c -1.71281,-14.78582 -7.60352,-62.67367 -46.4274,-100.46383 l -0.0407,-0.0407 C 343.10825,72.389498 292.0864,62.500058 253.23485,62.500058 Z m 0,17.211908 c 35.57042,0 82.56796,9.566762 116.78057,42.765294 34.16688,33.25719 39.66495,75.96993 41.30044,90.08786 l 2.23795,19.20572 h -106.3639 -15.86913 l -1.26139,-15.82844 c -1.51143,-18.76627 -6.4209,-24.46022 -11.9222,-28.03548 -5.5013,-3.57525 -14.93534,-5.04557 -26.48925,-5.04557 -15.76328,0 -22.40171,3.216 -30.35481,14.85189 l -0.0814,0.12207 -0.12207,0.16276 c -2.12782,2.97119 -6.17972,15.27984 -7.93457,27.46581 -1.75485,12.18597 -2.23795,24.68687 -2.23795,30.19205 0,19.54843 6.81908,41.71272 10.05045,46.75291 9.35385,13.07367 13.86385,15.09602 32.59276,15.09602 12.43036,0 22.3515,-0.60798 31.29068,-12.93945 3.32102,-4.8219 3.67535,-8.55716 5.24902,-23.72232 l 1.58692,-15.42154 h 122.63994 l -1.34278,18.43261 c -1.18479,16.0986 -5.23272,58.17657 -44.43358,94.60446 -26.19144,24.34441 -64.26964,41.82941 -114.9902,41.82941 -46.09329,0 -88.56982,-14.41378 -119.58817,-43.17218 -31.01836,-28.75841 -49.641914,-71.60196 -49.641914,-124.26754 0,-50.11976 16.364454,-93.84481 46.223944,-124.75582 29.85949,-30.911013 72.83182,-48.380524 122.68062,-48.380524 z m -7.03938,17.211916 c -91.82155,0 -151.692661,63.077298 -151.692661,155.924428 0,97.45112 66.989571,150.22781 152.058871,150.22781 46.90441,0 79.9705,-15.61073 103.23077,-37.23143 35.07102,-32.58902 37.84748,-67.29594 39.02178,-83.25192 h -88.6637 c -1.5808,15.23379 -2.34341,23.39267 -8.26009,31.90103 -13.00768,18.07743 -31.1242,20.22297 -45.32876,20.22297 -22.04079,0 -35.08231,-6.07203 -46.91568,-22.70507 -7.0684,-10.65237 -12.98014,-33.67435 -12.98014,-56.35577 0,-12.77382 1.96016,-51.71164 13.38704,-67.66763 10.65907,-15.59488 24.86348,-22.33886 44.55565,-22.33886 25.20238,0 51.9739,4.60737 55.54198,48.90949 h 87.0768 c -1.55821,-13.45087 -6.7392,-51.02277 -36.25487,-79.75258 C 321.41161,106.12169 278.48883,96.923882 246.19547,96.923882 Z m 5.45247,103.149378 c 10.5054,0 16.4258,1.82065 17.13053,2.27865 0.70473,0.458 2.8712,-0.40349 4.1097,14.97395 l 2.56347,31.65689 h 0.61035 l -3.09244,30.06998 c -1.40691,13.55803 -1.4862,14.5236 -2.0752,15.42154 -4.86398,6.7293 -6.64165,5.81868 -17.33398,5.81868 -15.07841,0 -12.14624,1.4716 -18.18847,-7.28352 0.66945,1.00889 -7.24283,-20.65742 -7.24283,-37.3535 0,-4.62239 0.48522,-16.66893 2.07519,-27.70996 1.58997,-11.04102 6.34494,-21.9391 4.88281,-19.89745 l 0.20345,-0.32552 0.24414,-0.32552 c 5.24389,-7.67214 4.2836,-7.32422 16.11328,-7.32422 z" />
</svg>
