<?xml version="1.0" encoding="UTF-8" standalone="no"?>
<svg width="24" height="24" viewBox="0 0 500 500" xmlns="http://www.w3.org/2000/svg">
  <rect fill="#000000" height="500" rx="49.050633" width="500" />
  <path fill="#ffffff" d="M 65.062917,62.499999 V 437.5 H 297.88186 c 34.15513,0 67.45875,-10.12203 93.52625,-31.4873 26.06752,-21.36534 43.52897,-55.23641 43.52897,-93.52626 0,-23.02872 -7.36939,-54.17499 -30.55164,-78.4335 10.42299,-14.79726 18.22519,-34.34005 18.2252,-57.60469 0,-33.22813 -15.22457,-64.4427 -39.90832,-84.413645 C 358.0186,72.063665 325.53908,62.499999 290.07105,62.499999 Z M 83.084723,80.521804 H 290.07105 c 32.21337,0 60.49847,8.692731 81.28119,25.507156 20.78237,16.81446 33.23661,42.17115 33.23661,70.41929 0,27.10147 -12.29032,47.26826 -25.46648,59.43535 29.51163,21.24992 37.79291,52.97709 37.79291,76.60284 0,33.26868 -14.6409,61.3377 -36.9386,79.61326 -22.29774,18.2755 -51.56969,27.37849 -82.09482,27.37849 H 83.084723 Z M 95.045019,98.421567 V 401.57843 H 291.94239 c 53.83239,0 101.09298,-32.53875 101.09298,-89.09199 0,-19.9655 -6.18736,-44.72112 -30.4296,-62.12031 -9.04667,-6.66302 -16.0116,-9.22723 -29.9821,-12.57051 10.71936,-3.31974 17.26793,-5.93104 25.46648,-12.57052 11.0963,-8.87617 22.61878,-24.76174 22.61878,-48.77685 0,-46.59402 -38.62212,-78.026683 -96.57734,-78.026683 z m 93.282161,64.317093 h 73.18562 c 20.9911,0 25.05966,17.78064 25.05966,26.28011 0,18.85892 -11.0656,31.77207 -25.05966,31.77207 h -73.18562 z m 23.87991,17.94045 v 22.21197 h 55.24517 c 1.48193,0 2.31643,-0.2813 3.86473,-2.19679 1.54829,-1.91549 3.29518,-5.75182 3.29518,-11.67552 0,-1.38652 -0.79787,-5.11387 -1.66793,-6.42765 -0.87007,-1.31376 -0.0461,-1.91201 -5.49198,-1.91201 z m -23.87991,91.49219 h 69.5243 c 21.76855,0 39.82697,7.05241 39.82697,30.71436 0,24.39182 -19.70755,34.37568 -39.82697,34.37568 h -69.5243 z m 23.87991,17.89976 v 29.24983 h 51.58386 c 7.09706,0 13.38892,-1.9637 16.76068,-4.47494 3.37177,-2.51123 5.16653,-4.59144 5.16653,-11.96029 0,-7.27118 -0.97172,-7.50823 -3.62064,-9.23465 -2.64892,-1.72642 -9.35326,-3.57995 -18.30657,-3.57995 z" />
</svg>
