<svg
   version="1.1"
   id="Ebene_1"
   x="0px"
   y="0px"
   width="425.72198"
   height="425.71701"
   viewBox="0 0 425.72199 425.71702"
   enable-background="new 0 0 426.086 519.378"
   xml:space="preserve"
   xmlns:xlink="http://www.w3.org/1999/xlink"
   xmlns="http://www.w3.org/2000/svg"
   xmlns:svg="http://www.w3.org/2000/svg"><defs
   id="defs13" />
<g
   id="g13">
	<defs
   id="defs1">
		<rect
   id="SVGID_1_"
   y="-3.6240001"
   width="426.086"
   height="536.125"
   x="0" />
	</defs>
	<clipPath
   id="SVGID_2_">
		<use
   xlink:href="#SVGID_1_"
   overflow="visible"
   id="use1" />
	</clipPath>
	<rect
   clip-path="url(#SVGID_2_)"
   fill="#f5a200"
   width="425.72198"
   height="425.71701"
   id="rect1"
   x="0"
   y="0" />
	<path
   clip-path="url(#SVGID_2_)"
   fill="#ffffff"
   d="M 149.873,365.254 H 83.461 V 134.505 H 40.034 V 95.339 C 69.839,95.761 89.42,83.408 100.061,54.462 h 49.812 z"
   id="path1" />
	<path
   clip-path="url(#SVGID_2_)"
   fill="#ffffff"
   d="m 376.351,302.241 v 63.022 H 213.719 V 299.26 c 74.071,-100.894 97.922,-117.924 97.922,-156.664 0,-15.755 -5.973,-25.117 -17.457,-25.117 -15.751,0 -19.164,12.338 -19.164,26.396 v 18.296 h -62.159 v -20.429 c 0,-48.11 23.41,-87.276 81.323,-87.276 55.343,0 85.569,34.905 85.569,90.685 0,66.411 -56.196,109.838 -94.514,157.09 z"
   id="path2" />
</g>
</svg>
