<svg
   version="1.1"
   id="Ebene_1"
   x="0px"
   y="0px"
   width="425.71701"
   height="425.71701"
   viewBox="0 0 425.71701 425.71702"
   enable-background="new 0 0 426.082 519.378"
   xml:space="preserve"
   xmlns:xlink="http://www.w3.org/1999/xlink"
   xmlns="http://www.w3.org/2000/svg"
   xmlns:svg="http://www.w3.org/2000/svg"><defs
   id="defs12" />
<g
   id="g12">
	<defs
   id="defs1">
		<rect
   id="SVGID_1_"
   y="-3.6240001"
   width="426.082"
   height="536.125"
   x="0" />
	</defs>
	<clipPath
   id="SVGID_2_">
		<use
   xlink:href="#SVGID_1_"
   overflow="visible"
   id="use1" />
	</clipPath>
	<rect
   clip-path="url(#SVGID_2_)"
   fill="#a5c400"
   width="425.71701"
   height="425.71701"
   id="rect1"
   x="0"
   y="0" />
	<path
   clip-path="url(#SVGID_2_)"
   fill="#ffffff"
   d="m 183.924,178.78 h 14.471 c 22.993,0 27.25,-11.916 27.25,-32.776 0,-25.975 -5.101,-34.488 -17.889,-34.488 -10.642,0 -16.6,8.935 -16.6,29.795 v 11.926 h -62.581 c 0,-63.435 20.007,-98.775 83.873,-98.775 48.954,0 79.612,28.098 79.612,86.006 0,38.313 -11.926,54.49 -30.658,61.728 22.145,12.348 34.914,25.539 34.914,71.099 0,60.448 -22.566,97.078 -87.271,97.078 -75.365,0 -85.153,-48.968 -84.731,-113.687 h 65.567 v 28.108 c 0,17.025 6.812,24.264 16.599,24.264 12.774,0 20.86,-8.944 20.86,-37.47 0,-31.492 -6.797,-42.564 -30.648,-42.564 h -12.77 V 178.78 Z"
   id="path1" />
</g>
</svg>
