<?xml version="1.0" encoding="UTF-8" standalone="no"?>
<svg width="24" height="24" viewBox="0 0 500 500" xmlns="http://www.w3.org/2000/svg">
  <rect fill="#000000" height="500" rx="49.050633" width="500" />
  <path fill="#ffffff" d="M 65.185657,62.495786 V 437.49554 h 35.888653 131.42895 c 27.90497,0 100.25444,1.81247 151.00089,-46.95634 45.20554,-43.20793 51.31019,-101.08993 51.31019,-137.24764 0,-11.80964 -0.77535,-35.53411 -7.56835,-62.62203 -6.78992,-27.07557 -19.51348,-58.88991 -48.4212,-81.6243 C 353.5662,89.099166 309.66038,62.495786 232.50326,62.495786 Z M 83.129983,80.440109 H 232.50326 c 73.71838,0 110.87073,23.456451 135.21314,42.683891 24.20589,19.03293 35.86899,47.03654 42.11423,71.94006 6.24737,24.91209 7.03939,47.42454 7.03939,58.2275 0,33.98419 -5.93995,86.20284 -45.77635,124.2675 -43.24862,41.58033 -111.89752,41.99216 -138.59041,41.99216 H 101.07431 83.129983 Z M 95.092866,98.384428 V 401.6069 H 226.56251 c 25.47977,0 90.3922,-2.60605 126.13925,-36.98728 34.47539,-32.92118 40.28317,-79.51368 40.28317,-111.32806 0,-19.5926 -3.29736,-85.38761 -42.31768,-116.04811 C 327.23619,118.73411 296.83206,98.384428 226.56251,98.384428 Z m 93.261664,69.498652 h 48.86878 c 41.49293,0 59.61097,37.34793 59.61097,80.60705 0,34.05152 -11.54791,83.57742 -59.61097,83.57742 h -48.86878 z m 23.92576,17.94433 v 128.29582 h 30.92446 c 17.86711,0 25.27892,-6.98135 31.98241,-19.53124 6.70349,-12.54989 9.64354,-31.09932 9.64354,-46.10186 0,-19.12833 -4.28618,-36.02206 -11.27115,-46.63083 -6.98497,-10.60877 -14.99342,-16.03189 -30.3548,-16.03189 z m 17.94433,17.94432 h 12.98013 c 9.97634,0 11.11886,1.46146 15.38085,7.93457 4.26199,6.47311 8.30078,20.15668 8.30078,36.78383 0,12.97938 -3.00738,29.1757 -7.52766,37.63832 -4.52029,8.46262 -4.4512,10.05045 -16.15397,10.05045 h -12.98013 z" />
</svg>
