<?xml version="1.0" encoding="UTF-8"?>
<!-- Taken from Gnome Highscore -->
<svg height="24px" viewBox="0 0 24 24" width="24px" xmlns="http://www.w3.org/2000/svg">
  <path d="m 5.007812 4.007812 c -0.179687 0 -0.359374 0.011719 -0.5 0.027344 c -0.390624 0.050782 -0.773437 0.15625 -1.132812 0.320313 c -0.25 0.113281 -0.46875 0.453125 -0.503906 0.726562 l -0.210938 1.6875 c -0.601562 0.441407 -1.082031 1.039063 -1.363281 1.746094 c -0.203125 0.511719 -0.253906 0.964844 -0.253906 0.964844 c -0.394531 3.003906 -0.675781 5.019531 -0.921875 7.027343 c -0.0625002 0.550782 -0.1289065 1.464844 0.082031 1.96875 c 0.253906 0.597657 0.730469 1.074219 1.328125 1.328126 c 0.507812 0.214843 1.445312 0.210937 1.949219 -0.003907 c 0.195312 -0.082031 0.382812 -0.191406 0.550781 -0.324219 c 0.433594 -0.335937 0.652344 -0.75 0.652344 -0.75 l 2.734375 -4.855468 c 0.304687 -0.535156 0.875 -0.871094 1.492187 -0.871094 h 6.195313 c 0.621093 0 1.191406 0.335938 1.492187 0.871094 l 2.253906 3.984375 c 0.273438 0.484375 0.707032 1.289062 1.140626 1.625 c 0.167968 0.128906 0.351562 0.238281 0.546874 0.320312 c 0.503907 0.214844 1.441407 0.21875 1.945313 0.003907 c 0.597656 -0.253907 1.074219 -0.730469 1.324219 -1.328126 c 0.214844 -0.503906 0.152344 -1.421874 0.089844 -1.96875 c -0.230469 -2.015624 -0.519532 -4.027343 -0.792969 -6.039062 c -0.074219 -0.546875 -0.179688 -1.441406 -0.382813 -1.953125 c -0.285156 -0.707031 -0.765625 -1.308594 -1.367187 -1.746094 l -0.210938 -1.695312 c -0.035156 -0.273438 -0.253906 -0.613281 -0.507812 -0.726563 c -0.359375 -0.160156 -0.742188 -0.265625 -1.128907 -0.316406 c -0.140624 -0.015625 -0.320312 -0.023438 -0.5 -0.023438 c -0.179687 0 -0.359374 0.007813 -0.496093 0.023438 v 0.003906 c -0.394531 0.050782 -0.777344 0.15625 -1.136719 0.320313 c -0.25 0.113281 -0.46875 0.453125 -0.503906 0.726562 l -0.199219 1.597657 c -0.425781 0.175781 -0.90625 0.320312 -1.285156 0.320312 h -6.738281 c -0.382813 0 -0.875 -0.148438 -1.308594 -0.328125 l -0.199219 -1.597656 c -0.03125 -0.273438 -0.25 -0.613281 -0.503906 -0.726563 c -0.359375 -0.160156 -0.742188 -0.265625 -1.132813 -0.316406 c -0.136718 -0.015625 -0.316406 -0.023438 -0.496094 -0.023438 z m -0.75 2.992188 h 1.5 c 0.136719 0 0.25 0.113281 0.25 0.25 v 0.765625 c 0 0.160156 -0.0625 0.316406 -0.175781 0.425781 l -0.648437 0.648438 c -0.097656 0.097656 -0.253906 0.097656 -0.355469 0 l -0.289063 -0.292969 c -0.117187 -0.117187 -0.234374 -0.234375 -0.355468 -0.355469 c -0.113282 -0.113281 -0.175782 -0.265625 -0.175782 -0.425781 v -0.765625 c 0 -0.136719 0.113282 -0.25 0.25 -0.25 z m 14.75 0 c 0.550782 0 1 0.449219 1 1 c 0 0.554688 -0.449218 1 -1 1 c -0.550781 0 -1 -0.445312 -1 -1 c 0 -0.550781 0.449219 -1 1 -1 z m -16.75 2 h 0.789063 c 0.164063 0 0.316406 0.066406 0.429687 0.175781 v 0.003907 c 0.117188 0.117187 0.238282 0.234374 0.355469 0.351562 l 0.289063 0.292969 c 0.101562 0.097656 0.101562 0.257812 0 0.355469 l -0.644532 0.644531 c -0.109374 0.113281 -0.265624 0.175781 -0.425781 0.175781 h -0.792969 c -0.136718 0 -0.25 -0.109375 -0.25 -0.25 v -1.5 c 0 -0.136719 0.113282 -0.25 0.25 -0.25 z m 4.707032 0 h 0.792968 c 0.136719 0 0.25 0.113281 0.25 0.25 v 1.5 c 0 0.140625 -0.113281 0.25 -0.25 0.25 h -0.792968 c -0.160156 0.003906 -0.3125 -0.0625 -0.425782 -0.175781 c -0.117187 -0.117188 -0.238281 -0.234375 -0.355468 -0.351563 l -0.292969 -0.292968 c -0.09375 -0.097657 -0.09375 -0.257813 0 -0.355469 l 0.644531 -0.644531 c 0.113282 -0.113282 0.269532 -0.179688 0.429688 -0.179688 z m 10.042968 0 c 0.550782 0 1 0.449219 1 1 c 0 0.554688 -0.449218 1 -1 1 c -0.550781 0 -1 -0.445312 -1 -1 c 0 -0.550781 0.449219 -1 1 -1 z m 4 0 c 0.550782 0 1 0.449219 1 1 c 0 0.554688 -0.449218 1 -1 1 c -0.550781 0 -1 -0.445312 -1 -1 c 0 -0.550781 0.449219 -1 1 -1 z m -16 1.785156 c 0.066407 0 0.128907 0.027344 0.175782 0.074219 l 0.292968 0.289063 c 0.117188 0.121093 0.234376 0.238281 0.351563 0.355468 h 0.003906 c 0.113281 0.117188 0.175781 0.269532 0.175781 0.429688 v 0.816406 c 0 0.140625 -0.113281 0.25 -0.25 0.25 h -1.5 c -0.136718 0 -0.25 -0.109375 -0.25 -0.25 v -0.820312 c 0 -0.15625 0.0625 -0.3125 0.175782 -0.425782 l 0.355468 -0.351562 l 0.292969 -0.292969 c 0.046875 -0.046875 0.109375 -0.074219 0.175781 -0.074219 z m 4.25 0.214844 h 1.5 c 0.136719 0 0.25 0.113281 0.25 0.25 v 0.5 c 0 0.140625 -0.113281 0.25 -0.25 0.25 h -1.5 c -0.136718 0 -0.25 -0.109375 -0.25 -0.25 v -0.5 c 0 -0.136719 0.113282 -0.25 0.25 -0.25 z m 9.75 0 c 0.550782 0 1 0.449219 1 1 c 0 0.554688 -0.449218 1 -1 1 c -0.550781 0 -1 -0.445312 -1 -1 c 0 -0.550781 0.449219 -1 1 -1 z m -5.808593 0.003906 c 0.015625 0 0.035156 0.003906 0.050781 0.007813 l 1.714844 0.429687 c 0.0625 0.015625 0.0625 0.105469 0 0.121094 l -1.714844 0.445312 c -0.125 0.027344 -0.242188 -0.066406 -0.242188 -0.191406 v -0.617187 c 0 -0.105469 0.085938 -0.191407 0.191407 -0.195313 z m 0 0"/>
</svg>
