<?xml version="1.0" encoding="UTF-8"?>
<!-- Adapted from Gnome Highscore -->
<svg height="24px" viewBox="0 0 24 24" width="24px" xmlns="http://www.w3.org/2000/svg">
  <path d="M 5.0078125 4.0078125 C 4.8281285 4.0078125 4.648437 4.0195327 4.5078125 4.0351562 C 4.1171945 4.0859382 3.734369 4.1914073 3.375 4.3554688 C 3.125003 4.4687468 2.9062483 4.8085987 2.8710938 5.0820312 L 2.6601562 6.7695312 C 2.0586047 7.2109322 1.5781205 7.8086045 1.296875 8.515625 C 1.093753 9.0273365 1.0429687 9.4804688 1.0429688 9.4804688 C 0.6484429 12.48433 0.367184 14.500045 0.12109375 16.507812 C 0.058594484 17.058594 -0.0078093365 17.972671 0.203125 18.476562 C 0.45702725 19.074219 0.933603 19.550781 1.53125 19.804688 C 2.0390545 20.019516 2.9765693 20.015618 3.4804688 19.800781 C 3.6757778 19.718751 3.863284 19.609375 4.03125 19.476562 C 4.464838 19.14064 4.6835937 18.726562 4.6835938 18.726562 L 6.7460938 15.0625 A 2.5 2.5 0 0 0 9 16.5 A 2.5 2.5 0 0 0 11.5 14 L 12.5 14 A 2.5 2.5 0 0 0 15 16.5 A 2.5 2.5 0 0 0 17.261719 15.046875 L 18.851562 17.855469 C 19.125 18.339829 19.558594 19.144531 19.992188 19.480469 C 20.160141 19.609375 20.343765 19.71875 20.539062 19.800781 C 21.042969 20.015625 21.980484 20.019523 22.484375 19.804688 C 23.082016 19.550781 23.558594 19.074219 23.808594 18.476562 C 24.023438 17.972671 23.960927 17.054688 23.898438 16.507812 C 23.667973 14.49224 23.378891 12.480439 23.105469 10.46875 C 23.03125 9.9218825 22.925781 9.0273365 22.722656 8.515625 C 22.437515 7.8086045 21.957016 7.2070252 21.355469 6.7695312 L 21.144531 5.0742188 C 21.109375 4.8007838 20.89061 4.4609367 20.636719 4.3476562 C 20.277344 4.1875032 19.894531 4.0820295 19.507812 4.03125 C 19.367203 4.015625 19.1875 4.0078125 19.007812 4.0078125 C 18.82814 4.0078125 18.648438 4.015622 18.511719 4.03125 L 18.511719 4.0351562 C 18.117188 4.0859342 17.734375 4.1914073 17.375 4.3554688 C 17.125 4.4687468 16.90625 4.8085987 16.871094 5.0820312 L 16.671875 6.6796875 C 16.246094 6.8554655 15.76561 7 15.386719 7 L 8.6484375 7 C 8.2656305 7 7.7734303 6.851559 7.3398438 6.671875 L 7.140625 5.0742188 C 7.109375 4.8007838 6.8906203 4.4609367 6.6367188 4.3476562 C 6.2773483 4.1875032 5.8945267 4.0820295 5.5039062 4.03125 C 5.3671912 4.015625 5.1874975 4.0078125 5.0078125 4.0078125 z M 4.2578125 7 L 5.7578125 7 C 5.894531 7 6.0078125 7.1132815 6.0078125 7.25 L 6.0078125 8.015625 C 6.0078125 8.17578 5.9453117 8.3320322 5.8320312 8.4414062 L 5.1835938 9.0898438 C 5.0859378 9.1874993 4.9296875 9.1874993 4.828125 9.0898438 L 4.5390625 8.796875 L 4.1835938 8.4414062 C 4.0703123 8.3281262 4.0078125 8.17578 4.0078125 8.015625 L 4.0078125 7.25 C 4.0078125 7.1132815 4.121095 7 4.2578125 7 z M 19.007812 7 C 19.558594 7 20.007812 7.4492226 20.007812 8 C 20.007812 8.5546844 19.558594 9 19.007812 9 C 18.457037 9 18.007812 8.5546844 18.007812 8 C 18.007812 7.4492226 18.457037 7 19.007812 7 z M 2.2578125 9 L 3.046875 9 C 3.2109366 9 3.3632822 9.0664076 3.4765625 9.1757812 L 3.4765625 9.1796875 C 3.5937498 9.2968708 3.7148456 9.4140627 3.8320312 9.53125 L 4.1210938 9.8242188 C 4.2226544 9.9218741 4.2226544 10.082031 4.1210938 10.179688 L 3.4765625 10.824219 C 3.3671892 10.9375 3.2109375 11 3.0507812 11 L 2.2578125 11 C 2.1210952 11 2.0078125 10.890625 2.0078125 10.75 L 2.0078125 9.25 C 2.0078125 9.1132817 2.1210952 9 2.2578125 9 z M 6.9355469 9 C 6.9455166 8.999486 6.954834 9 6.9648438 9 L 7.7578125 9 C 7.8945307 9 8.0078125 9.1132818 8.0078125 9.25 L 8.0078125 10.75 C 8.0078125 10.890625 7.8945307 11 7.7578125 11 L 6.9648438 11 C 6.8046886 11.003906 6.6523437 10.9375 6.5390625 10.824219 C 6.4218763 10.707031 6.3007792 10.589844 6.1835938 10.472656 L 5.890625 10.179688 C 5.7968758 10.082028 5.7968758 9.921874 5.890625 9.8242188 L 6.5351562 9.1796875 C 6.6413573 9.0734864 6.7860023 9.0077104 6.9355469 9 z M 17.007812 9 C 17.558594 9 18.007812 9.4492244 18.007812 10 C 18.007812 10.554679 17.558594 11 17.007812 11 C 16.45704 11 16.007812 10.554679 16.007812 10 C 16.007812 9.4492244 16.45704 9 17.007812 9 z M 21.007812 9 C 21.558594 9 22.007812 9.449225 22.007812 10 C 22.007812 10.554678 21.558594 11 21.007812 11 C 20.457041 11 20.007812 10.554678 20.007812 10 C 20.007812 9.449225 20.457041 9 21.007812 9 z M 9.2558594 9.5 L 10.755859 9.5 C 10.892578 9.5 11.005859 9.6132822 11.005859 9.75 L 11.005859 10.25 C 11.005859 10.390625 10.892578 10.5 10.755859 10.5 L 9.2558594 10.5 C 9.1191426 10.5 9.0058594 10.390625 9.0058594 10.25 L 9.0058594 9.75 C 9.0058594 9.6132822 9.1191426 9.5 9.2558594 9.5 z M 13.197266 9.5039062 C 13.212896 9.5039062 13.232427 9.5078188 13.248047 9.5117188 L 14.962891 9.9414062 C 15.025391 9.9570362 15.025391 10.046875 14.962891 10.0625 L 13.248047 10.507812 C 13.123047 10.535152 13.005859 10.441402 13.005859 10.316406 L 13.005859 9.6992188 C 13.005859 9.5937512 13.091799 9.5078122 13.197266 9.5039062 z M 5.0078125 10.785156 C 5.0742184 10.785156 5.1367188 10.812495 5.1835938 10.859375 L 5.4765625 11.148438 C 5.5937494 11.26952 5.7109391 11.386719 5.828125 11.503906 L 5.8320312 11.503906 C 5.9453111 11.621094 6.0078125 11.773438 6.0078125 11.933594 L 6.0078125 12.75 C 6.0078125 12.890625 5.8945304 13 5.7578125 13 L 4.2578125 13 C 4.1210956 13 4.0078125 12.890625 4.0078125 12.75 L 4.0078125 11.929688 C 4.0078125 11.773438 4.0703129 11.617188 4.1835938 11.503906 L 4.5390625 11.152344 L 4.8320312 10.859375 C 4.8789062 10.812505 4.9414076 10.785156 5.0078125 10.785156 z M 19.007812 11 C 19.558594 11 20.007812 11.449232 20.007812 12 C 20.007812 12.554675 19.558594 13 19.007812 13 C 18.457044 13 18.007812 12.554675 18.007812 12 C 18.007812 11.449232 18.457044 11 19.007812 11 z M 9 12.25 A 1.75 1.75 0 0 1 10.75 14 A 1.75 1.75 0 0 1 9 15.75 A 1.75 1.75 0 0 1 7.25 14 A 1.75 1.75 0 0 1 9 12.25 z M 15 12.25 A 1.75 1.75 0 0 1 16.75 14 A 1.75 1.75 0 0 1 15 15.75 A 1.75 1.75 0 0 1 13.25 14 A 1.75 1.75 0 0 1 15 12.25 z M 9 13 A 1 1 0 0 0 8 14 A 1 1 0 0 0 9 15 A 1 1 0 0 0 10 14 A 1 1 0 0 0 9 13 z M 15 13 A 1 1 0 0 0 14 14 A 1 1 0 0 0 15 15 A 1 1 0 0 0 16 14 A 1 1 0 0 0 15 13 z " />
</svg>
