<?xml version="1.0" encoding="UTF-8"?>
<svg height="24px" viewBox="0 0 24 24" width="24px" xmlns="http://www.w3.org/2000/svg">
  <path d="M 5.4296875 7.0351562 C 2.0012329 7.1175262 0.83171849 10.431523 0.51953125 11.714844 C 0.21347477 12.972955 0.021825906 13.809181 0.07421875 14.611328 C 0.12947018 15.457241 0.45773928 16.262451 1.2792969 17.341797 C 2.1471379 18.48195 4.0127786 19.225655 6.1035156 18.763672 C 7.4040133 18.476301 10.126746 18.255859 12 18.255859 C 13.873254 18.255859 16.595992 18.476301 17.896484 18.763672 C 19.987222 19.225655 21.852863 18.48195 22.720703 17.341797 C 23.542259 16.262451 23.870531 15.457241 23.925781 14.611328 C 23.978174 13.809181 23.78652 12.972955 23.480469 11.714844 C 23.135984 10.298765 21.746875 6.409982 17.431641 7.1191406 C 16.262006 7.3113559 14.104394 7.9410647 12 7.8671875 C 9.895607 7.9410646 7.7379926 7.3113559 6.5683594 7.1191406 C 6.1638057 7.0526572 5.7843549 7.0266359 5.4296875 7.0351562 z M 19 9.5 A 1 1 0 0 1 20 10.5 A 1 1 0 0 1 19 11.5 A 1 1 0 0 1 18 10.5 A 1 1 0 0 1 19 9.5 z M 6 10.5 A 2 2 0 0 1 8 12.5 A 2 2 0 0 1 6 14.5 A 2 2 0 0 1 4 12.5 A 2 2 0 0 1 6 10.5 z M 17 11.5 A 1 1 0 0 1 18 12.5 A 1 1 0 0 1 17 13.5 A 1 1 0 0 1 16 12.5 A 1 1 0 0 1 17 11.5 z M 21 11.5 A 1 1 0 0 1 22 12.5 A 1 1 0 0 1 21 13.5 A 1 1 0 0 1 20 12.5 A 1 1 0 0 1 21 11.5 z M 12.853516 11.75 C 13.030754 11.745213 13.203609 11.835076 13.298828 12 C 13.437328 12.239889 13.357075 12.545094 13.117188 12.683594 L 12.25 13.183594 C 12.010111 13.322094 11.706859 13.239889 11.568359 13 C 11.429861 12.760111 11.510111 12.454906 11.75 12.316406 L 12.617188 11.816406 C 12.692152 11.773125 12.772952 11.752176 12.853516 11.75 z M 19 13.5 A 1 1 0 0 1 20 14.5 A 1 1 0 0 1 19 15.5 A 1 1 0 0 1 18 14.5 A 1 1 0 0 1 19 13.5 z M 12.853516 13.75 C 13.030755 13.745213 13.203609 13.835076 13.298828 14 C 13.437328 14.239889 13.357076 14.545094 13.117188 14.683594 L 12.25 15.183594 C 12.010111 15.322094 11.706859 15.239889 11.568359 15 C 11.42986 14.760111 11.510111 14.454906 11.75 14.316406 L 12.617188 13.816406 C 12.692153 13.773125 12.772952 13.752176 12.853516 13.75 z " />
  <path d="m 7,12.5 a 1,1 0 0 1 -1,1 1,1 0 0 1 -1,-1 1,1 0 0 1 1,-1 1,1 0 0 1 1,1 z" fill-opacity="0.75" />
</svg>
