<?xml version="1.0" encoding="UTF-8"?>
<!-- Taken from Gnome Highscore -->
<svg height="24px" viewBox="0 0 24 24" width="24px" xmlns="http://www.w3.org/2000/svg">
  <path d="m 12 5 c -2.015625 -0.007812 -10.046875 0.402344 -10.992188 1 c -0.796874 0.503906 -1.0507808 7.621094 -0.9999995 10 s 4.9960935 3 11.9921875 3 h 0.007812 c 6.996094 0 11.941407 -0.621094 11.992188 -3 c 0.039062 -1.71875 -0.085938 -4.941406 -0.457031 -7.910156 c -0.140625 -1.140625 -0.320313 -1.949219 -0.542969 -2.089844 c -0.9375 -0.59375 -8.945312 -1.007812 -10.992188 -1 c -0.003906 0 -0.003906 0 -0.007812 0 z m 0 1.992188 c 1.367188 0 1.722656 0.109374 3.09375 0.332031 c 0.824219 0.136719 1.367188 0.9375 1.222656 1.746093 l -1.152344 5.53125 c -0.140624 0.804688 -0.847656 1.398438 -1.664062 1.398438 h -3 c -0.816406 0 -1.5 -0.597656 -1.667969 -1.398438 l -1.152343 -5.53125 c -0.140626 -0.808593 0.398437 -1.609374 1.222656 -1.746093 c 1.355468 -0.21875 1.730468 -0.328125 3.097656 -0.332031 z m -7 2.246093 v 1.027344 l -0.355469 0.351563 l -0.644531 0.648437 l -0.648438 -0.648437 l -0.351562 -0.355469 v -1.023438 c 0.664062 -0.316406 1.332031 -0.320312 2 0 z m 16.5 -0.238281 c 0.828125 0 1.5 0.671875 1.5 1.5 s -0.671875 1.5 -1.5 1.5 s -1.5 -0.671875 -1.5 -1.5 s 0.671875 -1.5 1.5 -1.5 z m -20.234375 2 h 1.023437 l 0.355469 0.351562 l 0.648438 0.648438 l -0.648438 0.644531 l -0.351562 0.355469 h -1.027344 c -0.363281 -0.679688 -0.34375 -1.34375 0 -2 z m 4.441406 0 h 1.027344 c 0.34375 0.652344 0.363281 1.320312 0 2 h -1.027344 l -1 -1 l 0.644531 -0.648438 z m 12.792969 1 c 0.828125 0 1.5 0.671875 1.5 1.5 s -0.671875 1.5 -1.5 1.5 s -1.5 -0.671875 -1.5 -1.5 s 0.671875 -1.5 1.5 -1.5 z m -14.5 0.679688 l 1 1 v 1.027343 c -0.65625 0.359375 -1.320312 0.421875 -2 0 v -1.027343 l 0.351562 -0.355469 z m 0 0"/>
</svg>
