<?xml version="1.0" encoding="UTF-8"?>
<!-- Taken from Gnome Highscore -->
<svg height="24px" viewBox="0 0 24 24" width="24px" xmlns="http://www.w3.org/2000/svg">
  <path d="m 2 5 c -1.105469 0 -2 0.894531 -2 2 v 8 c 0 1.105469 0.847656 2.292969 1.910156 2.59375 c 6.871094 1.945312 13.585938 1.808594 20.175782 -0.015625 c 1.066406 -0.292969 1.914062 -1.472656 1.914062 -2.578125 v -8 c 0 -1.105469 -0.894531 -2 -2 -2 z m 7 2 h 6 c 0.550781 0 1 0.449219 1 1 v 7 c 0 0.550781 -0.398438 1.207031 -0.914062 1.402344 c -2.046876 0.789062 -4.101563 0.804687 -6.171876 0.003906 c -0.515624 -0.199219 -0.914062 -0.855469 -0.914062 -1.40625 v -7 c 0 -0.550781 0.449219 -1 1 -1 z m 12.5 0 c 0.828125 0 1.5 0.671875 1.5 1.5 s -0.671875 1.5 -1.5 1.5 s -1.5 -0.671875 -1.5 -1.5 s 0.671875 -1.5 1.5 -1.5 z m -17.5 3 c 1.105469 0 2 0.894531 2 2 s -0.894531 2 -2 2 s -2 -0.894531 -2 -2 s 0.894531 -2 2 -2 z m 14.5 0 c 0.828125 0 1.5 0.671875 1.5 1.5 s -0.671875 1.5 -1.5 1.5 s -1.5 -0.671875 -1.5 -1.5 s 0.671875 -1.5 1.5 -1.5 z m 0 0"/>
</svg>
