<?xml version="1.0" encoding="UTF-8"?>
<svg height="24px" viewBox="0 0 24 24" width="24px" xmlns="http://www.w3.org/2000/svg">
  <path d="M 6.1445312 4.5234375 C 4.9893646 4.5024746 3.744745 4.8790169 3 5.6015625 C 1.8084088 6.7576347 -0.038638641 14.04561 0 17 C 0.038638641 19.95439 0.99982461 20.679317 1.7832031 20.910156 C 2.6618323 21.169062 4.5414206 19.87926 6.2988281 18 C 7.3937944 16.82911 10.000022 16.474313 12 16.503906 C 13.999978 16.474316 16.606205 16.82911 17.701172 18 C 19.458577 19.87926 21.338169 21.169062 22.216797 20.910156 C 23.000173 20.679317 23.961361 19.95439 24 17 C 24.038639 14.04561 22.191594 6.7576347 21 5.6015625 C 19.808407 4.4454904 17.337169 4.1786763 16 5 C 15.052648 5.58189 13.482237 5.7011719 12 5.7011719 C 10.517763 5.7011719 8.9473532 5.58189 8 5 C 7.4985633 4.6920036 6.8376324 4.5360153 6.1445312 4.5234375 z M 18.5 5.5449219 A 1 1 0 0 1 19.5 6.5449219 A 1 1 0 0 1 18.5 7.5449219 A 1 1 0 0 1 17.5 6.5449219 A 1 1 0 0 1 18.5 5.5449219 z M 5 6 A 2 2 0 0 1 7 8 A 2 2 0 0 1 5 10 A 2 2 0 0 1 3 8 A 2 2 0 0 1 5 6 z M 5 7 A 1 1 0 0 0 4 8 A 1 1 0 0 0 5 9 A 1 1 0 0 0 6 8 A 1 1 0 0 0 5 7 z M 16.5 7.5449219 A 1 1 0 0 1 17.5 8.5449219 A 1 1 0 0 1 16.5 9.5449219 A 1 1 0 0 1 15.5 8.5449219 A 1 1 0 0 1 16.5 7.5449219 z M 20.5 7.5449219 A 1 1 0 0 1 21.5 8.5449219 A 1 1 0 0 1 20.5 9.5449219 A 1 1 0 0 1 19.5 8.5449219 A 1 1 0 0 1 20.5 7.5449219 z M 18.5 9.5449219 A 1 1 0 0 1 19.5 10.544922 A 1 1 0 0 1 18.5 11.544922 A 1 1 0 0 1 17.5 10.544922 A 1 1 0 0 1 18.5 9.5449219 z M 15 11 A 2 2 0 0 1 17 13 A 2 2 0 0 1 15 15 A 2 2 0 0 1 13 13 A 2 2 0 0 1 15 11 z M 7.625 11.455078 L 8.375 11.455078 C 8.4442495 11.455078 8.5 11.510828 8.5 11.580078 L 8.5 12.455078 L 9.375 12.455078 C 9.4442494 12.455078 9.5 12.510828 9.5 12.580078 L 9.5 13.330078 C 9.5 13.399328 9.4442494 13.455078 9.375 13.455078 L 8.5 13.455078 L 8.5 14.330078 C 8.5 14.399328 8.4442495 14.455078 8.375 14.455078 L 7.625 14.455078 C 7.5557505 14.455078 7.5 14.399328 7.5 14.330078 L 7.5 13.455078 L 6.625 13.455078 C 6.5557506 13.455078 6.5 13.399328 6.5 13.330078 L 6.5 12.580078 C 6.5 12.510828 6.5557506 12.455078 6.625 12.455078 L 7.5 12.455078 L 7.5 11.580078 C 7.5 11.510828 7.5557505 11.455078 7.625 11.455078 z M 15 12 A 1 1 0 0 0 14 13 A 1 1 0 0 0 15 14 A 1 1 0 0 0 16 13 A 1 1 0 0 0 15 12 z " />
</svg>
