<?xml version="1.0" encoding="UTF-8"?>
<svg height="24px" viewBox="0 0 24 24" width="24px" xmlns="http://www.w3.org/2000/svg">
  <path d="M 7 2 C -2.99979 2 -0.25801626 16.039718 3 23 L 11.507812 23 L 12.492188 23 L 21 23 C 24.258022 16.039718 26.99979 2 17 2 L 16 2 C 18.999997 2 15.999996 7.7421875 12 7.7421875 C 8.000004 7.7421875 5.000003 2 8 2 L 7 2 z M 4.4941406 5 L 5.5058594 5 C 5.7828534 5 6.0058594 5.223006 6.0058594 5.5 L 6.0058594 6.9941406 L 7.5 6.9941406 C 7.7769943 6.9941406 8 7.2171463 8 7.4941406 L 8 8.5058594 C 8 8.7828537 7.7769943 9.0058594 7.5 9.0058594 L 6.0058594 9.0058594 L 6.0058594 10.5 C 6.0058594 10.777 5.7828534 11 5.5058594 11 L 4.4941406 11 C 4.2171466 11 3.9941406 10.777 3.9941406 10.5 L 3.9941406 9.0058594 L 2.5 9.0058594 C 2.2230057 9.0058594 2 8.7828537 2 8.5058594 L 2 7.4941406 C 2 7.2171463 2.2230057 6.9941406 2.5 6.9941406 L 3.9941406 6.9941406 L 3.9941406 5.5 C 3.9941406 5.223006 4.2171466 5 4.4941406 5 z M 21 5 A 1 1 0 0 1 22 6 A 1 1 0 0 1 21 7 A 1 1 0 0 1 20 6 A 1 1 0 0 1 21 5 z M 19 7 A 1 1 0 0 1 20 8 A 1 1 0 0 1 19 9 A 1 1 0 0 1 18 8 A 1 1 0 0 1 19 7 z M 11.675781 9 C 11.77012 8.9953044 11.85691 9.0244988 11.919922 9.0898438 C 12.06395 9.2392009 12.026261 9.5193576 11.833984 9.71875 L 11.029297 10.552734 C 10.83702 10.75213 10.565903 10.793891 10.421875 10.644531 C 10.277847 10.495171 10.317489 10.213067 10.509766 10.013672 L 11.3125 9.1796875 C 11.420656 9.0675291 11.554489 9.0060372 11.675781 9 z M 13.332031 9 C 13.42637 8.9953044 13.515113 9.0244988 13.578125 9.0898438 C 13.722153 9.2392011 13.682511 9.5193574 13.490234 9.71875 L 12.6875 10.552734 C 12.495223 10.75213 12.224106 10.793891 12.080078 10.644531 C 11.93605 10.495171 11.973739 10.213067 12.166016 10.013672 L 12.970703 9.1796875 C 13.078859 9.067529 13.210739 9.0060372 13.332031 9 z M 17 9 A 1 1 0 0 1 18 10 A 1 1 0 0 1 17 11 A 1 1 0 0 1 16 10 A 1 1 0 0 1 17 9 z M 8.4746094 14 C 8.483155 13.99957 8.4913438 14 8.5 14 L 9.5 14 C 9.7769961 14 10 14.223 10 14.5 C 10 14.777 9.7769961 15 9.5 15 L 8.5 15 C 8.2230039 15 8 14.777 8 14.5 C 8 14.231657 8.2096977 14.013342 8.4746094 14 z M 11.474609 14 C 11.483155 13.99957 11.491344 14 11.5 14 L 12.5 14 C 12.777 14 13 14.223 13 14.5 C 13 14.777 12.777 15 12.5 15 L 11.5 15 C 11.223 15 11 14.777 11 14.5 C 11 14.231657 11.209706 14.013342 11.474609 14 z M 14.474609 14 C 14.483155 13.99957 14.491344 14 14.5 14 L 15.5 14 C 15.777 14 16 14.223 16 14.5 C 16 14.777 15.777 15 15.5 15 L 14.5 15 C 14.223 15 14 14.777 14 14.5 C 14 14.231657 14.209705 14.013342 14.474609 14 z M 11.470703 15.988281 C 11.479249 15.987851 11.487438 15.988281 11.496094 15.988281 L 12.496094 15.988281 C 12.773085 15.988281 12.996094 16.21129 12.996094 16.488281 C 12.996094 16.765281 12.773085 16.988281 12.496094 16.988281 L 11.496094 16.988281 C 11.219094 16.988281 10.996094 16.765281 10.996094 16.488281 C 10.996094 16.219946 11.205789 16.001623 11.470703 15.988281 z M 8.4746094 16 C 8.483155 15.99957 8.4913438 16 8.5 16 L 9.5 16 C 9.776997 16 10 16.223 10 16.5 C 10 16.777 9.776997 17 9.5 17 L 8.5 17 C 8.223003 17 8 16.777 8 16.5 C 8 16.231657 8.2096971 16.013342 8.4746094 16 z M 14.474609 16 C 14.483155 15.99957 14.491344 16 14.5 16 L 15.5 16 C 15.777 16 16 16.223 16 16.5 C 16 16.777 15.777 17 15.5 17 L 14.5 17 C 14.223 17 14 16.777 14 16.5 C 14 16.231657 14.209702 16.013342 14.474609 16 z M 8.4746094 18 C 8.483155 17.99957 8.4913438 18 8.5 18 L 9.5 18 C 9.7769979 18 10 18.223 10 18.5 C 10 18.777 9.7769979 19 9.5 19 L 8.5 19 C 8.2230021 19 8 18.777 8 18.5 C 8 18.231657 8.2096965 18.013342 8.4746094 18 z M 11.474609 18 C 11.483155 17.99957 11.491344 18 11.5 18 L 12.5 18 C 12.777 18 13 18.223 13 18.5 C 13 18.777 12.777 19 12.5 19 L 11.5 19 C 11.223 19 11 18.777 11 18.5 C 11 18.231657 11.2097 18.013342 11.474609 18 z M 14.474609 18 C 14.483155 17.99957 14.491344 18 14.5 18 L 15.5 18 C 15.777 18 16 18.223 16 18.5 C 16 18.777 15.777 19 15.5 19 L 14.5 19 C 14.223 19 14 18.777 14 18.5 C 14 18.231657 14.209699 18.013342 14.474609 18 z M 8.4746094 20 C 8.483155 19.99957 8.4913438 20 8.5 20 L 9.5 20 C 9.7769988 20 10 20.223 10 20.5 C 10 20.777 9.7769988 21 9.5 21 L 8.5 21 C 8.2230012 21 8 20.777 8 20.5 C 8 20.231657 8.2096959 20.013342 8.4746094 20 z M 11.474609 20 C 11.483155 19.99957 11.491344 20 11.5 20 L 12.5 20 C 12.777 20 13 20.223 13 20.5 C 13 20.777 12.777 21 12.5 21 L 11.5 21 C 11.223 21 11 20.777 11 20.5 C 11 20.231657 11.209697 20.013342 11.474609 20 z M 14.474609 20 C 14.483155 19.99957 14.491344 20 14.5 20 L 15.5 20 C 15.777 20 16 20.223 16 20.5 C 16 20.777 15.777 21 15.5 21 L 14.5 21 C 14.223 21 14 20.777 14 20.5 C 14 20.231657 14.209696 20.013342 14.474609 20 z " />
  <path d="M 12,7.7424116 C 16,7.7424116 19,2 16,2 H 8 c -3,0 0,5.7424116 4,5.7424116 z" fill-opacity="0.5" />
</svg>
