<?xml version="1.0" encoding="UTF-8"?>
<!-- Taken from Gnome Highscore -->
<svg height="24px" viewBox="0 0 24.003906 24" width="24.003906px" xmlns="http://www.w3.org/2000/svg">
  <path d="m 8.003906 4 c -0.550781 0 -1.460937 0.03125 -1.957031 0.269531 v -0.003906 c -1.222656 0.597656 -2.714844 2.015625 -4.070313 2.535156 c -0.511718 0.199219 -1.398437 0.445313 -1.550781 0.941407 c -0.4179685 1.382812 -0.4335935 4.378906 -0.425781 6.257812 c 0 0.550781 0.0390625 1.476562 0.347656 1.921875 c 0.554688 0.804687 1.777344 1.671875 3.660156 1.976563 c 0.546876 0.089843 1.382813 0.324218 1.878907 0.570312 c 4.121093 2.058594 8.195312 2.023438 12.230469 0.003906 c 0.492187 -0.246094 1.328124 -0.484375 1.875 -0.574218 c 1.882812 -0.304688 3.105468 -1.171876 3.660156 -1.976563 c 0.308594 -0.445313 0.347656 -1.371094 0.347656 -1.921875 c 0.007812 -1.878906 -0.003906 -4.878906 -0.425781 -6.261719 c -0.152344 -0.492187 -1.035157 -0.738281 -1.550781 -0.9375 c -1.355469 -0.519531 -2.847657 -1.9375 -4.070313 -2.53125 c -0.492187 -0.238281 -1.402344 -0.269531 -1.957031 -0.269531 z m 4 3 c 2 0.003906 4 0.335938 4 1 v 8 c 0 1.304688 -8.039062 1.347656 -8 0 v -8 c 0 -0.671875 2 -1 4 -1 z m -8.734375 2 h 1.46875 c 0.148438 0 0.265625 0.117188 0.265625 0.265625 v 1.734375 h 1.734375 c 0.148438 0 0.265625 0.117188 0.265625 0.265625 v 1.46875 c 0 0.148437 -0.117187 0.265625 -0.265625 0.265625 h -1.734375 v 1.734375 c 0 0.148437 -0.117187 0.265625 -0.265625 0.265625 h -1.46875 c -0.148437 0 -0.265625 -0.117188 -0.265625 -0.265625 v -1.734375 h -1.734375 c -0.148437 0 -0.265625 -0.117188 -0.265625 -0.265625 v -1.46875 c 0 -0.148437 0.117188 -0.265625 0.265625 -0.265625 h 1.734375 v -1.734375 c 0 -0.148437 0.117188 -0.265625 0.265625 -0.265625 z m 18.234375 0 c 0.828125 0 1.5 0.671875 1.5 1.5 s -0.671875 1.5 -1.5 1.5 s -1.5 -0.671875 -1.5 -1.5 s 0.671875 -1.5 1.5 -1.5 z m -3 3 c 0.828125 0 1.5 0.671875 1.5 1.5 s -0.671875 1.5 -1.5 1.5 s -1.5 -0.671875 -1.5 -1.5 s 0.671875 -1.5 1.5 -1.5 z m 0 0"/>
</svg>
