<?xml version="1.0" encoding="UTF-8" standalone="no"?>
<svg height="24px" viewBox="0 0 24 24" width="24px" xmlns="http://www.w3.org/2000/svg">
  <path d="M 6 6.046875 C 4.5285524 6.0616796 0.017578125 7.3790019 0.017578125 11.986328 C 0.017578125 13.482459 1.1445562 17.861794 7.0117188 17.873047 C 8.6448017 17.876179 10.357435 17.634766 12 17.634766 C 13.642565 17.634766 15.355202 17.876179 16.988281 17.873047 C 22.855441 17.861797 23.982422 13.482457 23.982422 11.986328 C 23.982422 7.3790009 19.471455 6.0616796 18 6.046875 C 16.392079 6.030697 13.49037 6.3066406 12 6.3066406 C 10.50963 6.3066406 7.6079267 6.030697 6 6.046875 z M 4.25 8 L 5.75 8 C 5.8884997 8 6 8.1115003 6 8.25 L 6 10 L 7.75 10 C 7.8884996 10 8 10.1115 8 10.25 L 8 11.75 C 8 11.8885 7.8884996 12 7.75 12 L 6 12 L 6 13.75 C 6 13.8885 5.8884997 14 5.75 14 L 4.25 14 C 4.1115003 14 4 13.8885 4 13.75 L 4 12 L 2.25 12 C 2.1115004 12 2 11.8885 2 11.75 L 2 10.25 C 2 10.1115 2.1115004 10 2.25 10 L 4 10 L 4 8.25 C 4 8.1115003 4.1115003 8 4.25 8 z M 19 8 A 1 1 0 0 1 20 9 A 1 1 0 0 1 19 10 A 1 1 0 0 1 18 9 A 1 1 0 0 1 19 8 z M 17 10 A 1 1 0 0 1 18 11 A 1 1 0 0 1 17 12 A 1 1 0 0 1 16 11 A 1 1 0 0 1 17 10 z M 21 10 A 1 1 0 0 1 22 11 A 1 1 0 0 1 21 12 A 1 1 0 0 1 20 11 A 1 1 0 0 1 21 10 z M 10 11 A 0.5 0.5 0 0 1 10.5 11.5 A 0.5 0.5 0 0 1 10 12 A 0.5 0.5 0 0 1 9.5 11.5 A 0.5 0.5 0 0 1 10 11 z M 12 11 A 0.5 0.5 0 0 1 12.5 11.5 A 0.5 0.5 0 0 1 12 12 A 0.5 0.5 0 0 1 11.5 11.5 A 0.5 0.5 0 0 1 12 11 z M 14 11 A 0.5 0.5 0 0 1 14.5 11.5 A 0.5 0.5 0 0 1 14 12 A 0.5 0.5 0 0 1 13.5 11.5 A 0.5 0.5 0 0 1 14 11 z M 19 12 A 1 1 0 0 1 20 13 A 1 1 0 0 1 19 14 A 1 1 0 0 1 18 13 A 1 1 0 0 1 19 12 z M 9 13 A 2 2 0 0 1 11 15 A 2 2 0 0 1 9 17 A 2 2 0 0 1 7 15 A 2 2 0 0 1 9 13 z M 15 13 A 2 2 0 0 1 17 15 A 2 2 0 0 1 15 17 A 2 2 0 0 1 13 15 A 2 2 0 0 1 15 13 z M 9 14 A 1 1 0 0 0 8 15 A 1 1 0 0 0 9 16 A 1 1 0 0 0 10 15 A 1 1 0 0 0 9 14 z M 15 14 A 1 1 0 0 0 14 15 A 1 1 0 0 0 15 16 A 1 1 0 0 0 16 15 A 1 1 0 0 0 15 14 z " />
</svg>
