<?xml version="1.0" encoding="UTF-8"?>
<!-- Taken from Gnome Highscore -->
<svg height="24px" viewBox="0 0 24 24" width="24px" xmlns="http://www.w3.org/2000/svg">
  <path d="m 5 7 c -2.761719 0 -5 2.238281 -5 5 s 2.238281 5 5 5 c 1.566406 -0.003906 3.042969 -0.746094 3.984375 -2 h 6.03125 c 0.941406 1.253906 2.417969 1.996094 3.984375 2 c 2.761719 0 5 -2.238281 5 -5 s -2.238281 -5 -5 -5 z m -0.734375 2 h 1.46875 c 0.148437 0 0.265625 0.117188 0.265625 0.265625 v 1.734375 h 1.734375 c 0.148437 0 0.265625 0.117188 0.265625 0.265625 v 1.46875 c 0 0.148437 -0.117188 0.265625 -0.265625 0.265625 h -1.734375 v 1.734375 c 0 0.148437 -0.117188 0.265625 -0.265625 0.265625 h -1.46875 c -0.148437 0 -0.265625 -0.117188 -0.265625 -0.265625 v -1.734375 h -1.734375 c -0.148437 0 -0.265625 -0.117188 -0.265625 -0.265625 v -1.46875 c 0 -0.148437 0.117188 -0.265625 0.265625 -0.265625 h 1.734375 v -1.734375 c 0 -0.148437 0.117188 -0.265625 0.265625 -0.265625 z m 14.734375 0 c 0.550781 0 1 0.449219 1 1 s -0.449219 1 -1 1 s -1 -0.449219 -1 -1 s 0.449219 -1 1 -1 z m -2 2 c 0.550781 0 1 0.449219 1 1 s -0.449219 1 -1 1 s -1 -0.449219 -1 -1 s 0.449219 -1 1 -1 z m 4 0 c 0.550781 0 1 0.449219 1 1 s -0.449219 1 -1 1 s -1 -0.449219 -1 -1 s 0.449219 -1 1 -1 z m -9.5 1 c 0.277344 0 0.5 0.222656 0.5 0.5 c 0 0.132812 -0.054688 0.257812 -0.148438 0.351562 l 0.003907 0.003907 l -1 1 c -0.09375 0.09375 -0.222657 0.144531 -0.355469 0.144531 c -0.277344 0 -0.5 -0.222656 -0.5 -0.5 c 0 -0.132812 0.054688 -0.257812 0.148438 -0.351562 l -0.003907 -0.003907 l 1 -1 c 0.09375 -0.09375 0.222657 -0.144531 0.355469 -0.144531 z m 2 0 c 0.277344 0 0.5 0.222656 0.5 0.5 c 0 0.132812 -0.054688 0.257812 -0.148438 0.351562 l 0.003907 0.003907 l -1 1 c -0.09375 0.09375 -0.222657 0.144531 -0.355469 0.144531 c -0.277344 0 -0.5 -0.222656 -0.5 -0.5 c 0 -0.132812 0.054688 -0.257812 0.148438 -0.351562 l -0.003907 -0.003907 l 1 -1 c 0.09375 -0.09375 0.222657 -0.144531 0.355469 -0.144531 z m 5.5 1 c 0.550781 0 1 0.449219 1 1 s -0.449219 1 -1 1 s -1 -0.449219 -1 -1 s 0.449219 -1 1 -1 z m 0 0"/>
</svg>
