<?xml version="1.0" encoding="UTF-8"?>
<svg height="24px" viewBox="0 0 24 24" width="24px" xmlns="http://www.w3.org/2000/svg">
  <path d="M 7.2480469 4.3203125 C 6.7783978 4.322031 6.3556791 4.5523858 5.5761719 4.7753906 C 4.5942464 5.0563034 3.745006 5.327022 3.5449219 6.2734375 C 2.3427025 7.0008904 -4.4408877e-16 13.895589 0 18.035156 C 0 19.30901 1.0273609 21.061122 2.515625 21 C 4.0038891 20.938878 5.6277472 16.406832 8 16.388672 C 10.372258 16.370512 12 16.404297 12 16.404297 C 12 16.404297 13.627742 16.370522 16 16.388672 C 18.372258 16.406832 19.996104 20.938878 21.484375 21 C 22.972646 21.061122 24 19.30901 24 18.035156 C 24 13.895589 21.6573 7.0008904 20.455078 6.2734375 C 20.254992 5.327022 19.405754 5.0563034 18.423828 4.7753906 C 17.038045 4.3789382 16.778009 3.9592549 15.380859 4.8417969 L 12 4.8203125 L 8.6191406 4.8417969 C 8.0078894 4.4556848 7.6133284 4.3189759 7.2480469 4.3203125 z M 7.7441406 5.4921875 C 8.0981049 5.8391008 8.4059347 6.1686351 8.7011719 6.4667969 C 8.4059346 6.1686352 8.0981046 5.8391004 7.7441406 5.4921875 z M 16.255859 5.4921875 C 15.901896 5.8391004 15.594065 6.1686352 15.298828 6.4667969 C 15.594065 6.1686351 15.901895 5.8391008 16.255859 5.4921875 z M 18.001953 6 A 1 1 0 0 1 19.001953 7 A 1 1 0 0 1 18.001953 8 A 1 1 0 0 1 17.001953 7 A 1 1 0 0 1 18.001953 6 z M 6 7 A 2 2 0 0 1 8 9 A 2 2 0 0 1 6 11 A 2 2 0 0 1 4 9 A 2 2 0 0 1 6 7 z M 6 8 A 1 1 0 0 0 5 9 A 1 1 0 0 0 6 10 A 1 1 0 0 0 7 9 A 1 1 0 0 0 6 8 z M 16 8 A 1 1 0 0 1 17 9 A 1 1 0 0 1 16 10 A 1 1 0 0 1 15 9 A 1 1 0 0 1 16 8 z M 20 8 A 1 1 0 0 1 21 9 A 1 1 0 0 1 20 10 A 1 1 0 0 1 19 9 A 1 1 0 0 1 20 8 z M 18 10 A 1 1 0 0 1 19 11 A 1 1 0 0 1 18 12 A 1 1 0 0 1 17 11 A 1 1 0 0 1 18 10 z M 15 11.5 A 2 2 0 0 1 17 13.5 A 2 2 0 0 1 15 15.5 A 2 2 0 0 1 13 13.5 A 2 2 0 0 1 15 11.5 z M 8.125 12 L 8.875 12 C 8.9442492 12 9 12.05575 9 12.125 L 9 13 L 9.875 13 C 9.9442493 13 10 13.05575 10 13.125 L 10 13.875 C 10 13.94425 9.9442493 14 9.875 14 L 9 14 L 9 14.875 C 9 14.94425 8.9442492 15 8.875 15 L 8.125 15 C 8.0557508 15 8 14.94425 8 14.875 L 8 14 L 7.125 14 C 7.0557507 14 7 13.94425 7 13.875 L 7 13.125 C 7 13.05575 7.0557507 13 7.125 13 L 8 13 L 8 12.125 C 8 12.05575 8.0557508 12 8.125 12 z M 15 12.5 A 1 1 0 0 0 14 13.5 A 1 1 0 0 0 15 14.5 A 1 1 0 0 0 16 13.5 A 1 1 0 0 0 15 12.5 z " />
</svg>
