<?xml version="1.0" encoding="UTF-8"?>
<!-- Taken from Gnome Highscore -->
<svg height="24px" viewBox="0 0 24 24" width="24px" xmlns="http://www.w3.org/2000/svg">
  <path d="m 9.523438 7 c 0.269531 0.011719 0.476562 0.234375 0.476562 0.5 v 4 c 0 0.277344 0.222656 0.5 0.5 0.5 h 13 c 0.265625 0 0.488281 0.207031 0.5 0.472656 v -3.472656 c 0 -1.109375 -0.890625 -2 -2 -2 z m 0 0" fill-opacity="0.74902"/>
  <path d="m 2 7 c -1.109375 0 -2 0.890625 -2 2 v 6 c 0 1.109375 0.890625 2 2 2 h 20 c 1.109375 0 2 -0.890625 2 -2 v -2.527344 c -0.011719 -0.265625 -0.234375 -0.472656 -0.5 -0.472656 h -13 c -0.035156 0 -0.070312 -0.003906 -0.101562 -0.011719 c -0.226563 -0.042969 -0.398438 -0.246093 -0.398438 -0.488281 v -4 c 0 -0.265625 -0.207031 -0.488281 -0.476562 -0.5 z m -1 1 h 1 v 1 h -1 z m 2.265625 2 h 1.46875 c 0.148437 0 0.265625 0.117188 0.265625 0.265625 v 1.734375 h 1.734375 c 0.148437 0 0.265625 0.117188 0.265625 0.265625 v 1.46875 c 0 0.148437 -0.117188 0.265625 -0.265625 0.265625 h -1.734375 v 1.734375 c 0 0.148437 -0.117188 0.265625 -0.265625 0.265625 h -1.46875 c -0.148437 0 -0.265625 -0.117188 -0.265625 -0.265625 v -1.734375 h -1.734375 c -0.148437 0 -0.265625 -0.117188 -0.265625 -0.265625 v -1.46875 c 0 -0.148437 0.117188 -0.265625 0.265625 -0.265625 h 1.734375 v -1.734375 c 0 -0.148437 0.117188 -0.265625 0.265625 -0.265625 z m 14.234375 3 c 0.828125 0 1.5 0.671875 1.5 1.5 s -0.671875 1.5 -1.5 1.5 s -1.5 -0.671875 -1.5 -1.5 s 0.671875 -1.5 1.5 -1.5 z m 4 0 c 0.828125 0 1.5 0.671875 1.5 1.5 s -0.671875 1.5 -1.5 1.5 s -1.5 -0.671875 -1.5 -1.5 s 0.671875 -1.5 1.5 -1.5 z m -12.027344 1 h 0.027344 h 1 c 0.277344 0 0.5 0.222656 0.5 0.5 s -0.222656 0.5 -0.5 0.5 h -1 c -0.277344 0 -0.5 -0.222656 -0.5 -0.5 c 0 -0.269531 0.210938 -0.488281 0.472656 -0.5 z m 3 0 h 0.027344 h 1 c 0.277344 0 0.5 0.222656 0.5 0.5 s -0.222656 0.5 -0.5 0.5 h -1 c -0.277344 0 -0.5 -0.222656 -0.5 -0.5 c 0 -0.269531 0.210938 -0.488281 0.472656 -0.5 z m 0 0"/>
</svg>
