<?xml version="1.0" encoding="UTF-8"?>
<!-- Based on Microsoft Sidewinder Controller -->
<svg height="24px" viewBox="0 0 24 24" width="24px" xmlns="http://www.w3.org/2000/svg">
  <path d="M 12 2.5253906 A 12 16.737743 0 0 0 0.021484375 18.673828 C 0.14226088 19.774276 0.80854998 22.275358 2.7441406 20.185547 C 4.4530303 18.340503 5.3331994 16.223884 6.1210938 13.748047 L 6.1230469 13.714844 A 8 7.0000005 0 0 0 12 16 A 8 7.0000005 0 0 0 17.876953 13.714844 L 17.878906 13.748047 C 18.666798 16.223884 19.546972 18.340503 21.255859 20.185547 C 23.191449 22.275358 23.857738 19.774276 23.978516 18.673828 A 12 16.737743 0 0 0 12 2.5253906 z M 17 5 A 1 1 0 0 1 18 6 A 1 1 0 0 1 17 7 A 1 1 0 0 1 16 6 A 1 1 0 0 1 17 5 z M 6.5 6 L 7.5 6 C 7.7769994 6 8 6.2230006 8 6.5 L 8 8 L 9.5 8 C 9.7769997 8 10 8.2230003 10 8.5 L 10 9.5 C 10 9.7769997 9.7769997 10 9.5 10 L 8 10 L 8 11.5 C 8 11.777 7.7769994 12 7.5 12 L 6.5 12 C 6.2230006 12 6 11.777 6 11.5 L 6 10 L 4.5 10 C 4.2230003 10 4 9.7769997 4 9.5 L 4 8.5 C 4 8.2230003 4.2230003 8 4.5 8 L 6 8 L 6 6.5 C 6 6.2230006 6.2230006 6 6.5 6 z M 15 7 A 1 1 0 0 1 16 8 A 1 1 0 0 1 15 9 A 1 1 0 0 1 14 8 A 1 1 0 0 1 15 7 z M 18 8 A 1 1 0 0 1 19 9 A 1 1 0 0 1 18 10 A 1 1 0 0 1 17 9 A 1 1 0 0 1 18 8 z M 13 9 A 1 1 0 0 1 14 10 A 1 1 0 0 1 13 11 A 1 1 0 0 1 12 10 A 1 1 0 0 1 13 9 z M 16 10 A 1 1 0 0 1 17 11 A 1 1 0 0 1 16 12 A 1 1 0 0 1 15 11 A 1 1 0 0 1 16 10 z M 14 12 A 1 1 0 0 1 15 13 A 1 1 0 0 1 14 14 A 1 1 0 0 1 13 13 A 1 1 0 0 1 14 12 z " />
</svg>
