<?xml version="1.0" encoding="UTF-8" standalone="no"?>
<svg height="24px" viewBox="0 0 24 24" width="24px" xmlns="http://www.w3.org/2000/svg">
  <path d="M 5.0859375 3.0664062 A 4.0838567 9.6563042 10.057525 0 0 0.265625 12.197266 A 4.0838567 9.6563042 10.057525 0 0 0.01171875 15.25 C 0.010278264 15.483567 0.0064058996 15.717347 0.0078125 15.949219 A 4.0838567 9.6563042 10.057525 0 0 0.0078125 15.958984 A 4.0838567 9.6563042 10.057525 0 0 2.8261719 21.992188 C 2.8850045 21.995264 2.9426218 22 3.0039062 22 L 6.46875 18 C 8.6414738 18.990789 10.983766 18.966964 11.996094 19.001953 C 11.997094 19.001988 11.9986 19.001971 12 19.001953 C 12.0014 19.001971 12.002906 19.001988 12.003906 19.001953 C 13.016234 18.966964 15.358524 18.990789 17.53125 18 L 20.996094 22 C 21.05738 22 21.114998 21.995275 21.173828 21.992188 A 9.6563042 4.0838567 79.942475 0 0 23.992188 15.958984 A 9.6563042 4.0838567 79.942475 0 0 23.992188 15.949219 C 23.993575 15.717347 23.989681 15.483567 23.988281 15.25 A 9.6563042 4.0838567 79.942475 0 0 23.734375 12.197266 A 9.6563042 4.0838567 79.942475 0 0 18.914062 3.0664062 L 18.912109 3.0664062 C 17.327694 4.1940031 15.030611 4.8876469 12.556641 4.9785156 C 12.455846 4.9834346 12.354923 4.9873344 12.253906 4.9902344 C 12.170471 4.9933544 12.088956 4.99826 12.003906 5 L 12 5 L 11.996094 5 C 11.911044 4.99826 11.829529 4.9933544 11.746094 4.9902344 C 11.645077 4.9873344 11.544154 4.9834346 11.443359 4.9785156 C 8.9693868 4.8876419 6.6723108 4.1940031 5.0878906 3.0664062 L 5.0859375 3.0664062 z M 18 5.9863281 A 1 1 0 0 1 19 6.9863281 A 1 1 0 0 1 18 7.9863281 A 1 1 0 0 1 17 6.9863281 A 1 1 0 0 1 18 5.9863281 z M 12 6.1699219 A 3.25 3.25 0 0 1 15.25 9.4199219 A 3.25 3.25 0 0 1 12 12.669922 A 3.25 3.25 0 0 1 8.75 9.4199219 A 3.25 3.25 0 0 1 12 6.1699219 z M 5 7 A 2 2 0 0 1 7 9 A 2 2 0 0 1 5 11 A 2 2 0 0 1 3 9 A 2 2 0 0 1 5 7 z M 21 7 A 1 1 0 0 1 22 8 A 1 1 0 0 1 21 9 A 1 1 0 0 1 20 8 A 1 1 0 0 1 21 7 z M 5 8 A 1 1 0 0 0 4 9 A 1 1 0 0 0 5 10 A 1 1 0 0 0 6 9 A 1 1 0 0 0 5 8 z M 18 9 A 1 1 0 0 1 19 10 A 1 1 0 0 1 18 11 A 1 1 0 0 1 17 10 A 1 1 0 0 1 18 9 z M 21 10 A 1 1 0 0 1 22 11 A 1 1 0 0 1 21 12 A 1 1 0 0 1 20 11 A 1 1 0 0 1 21 10 z M 18 12 A 2 2 0 0 1 20 14 A 2 2 0 0 1 18 16 A 2 2 0 0 1 16 14 A 2 2 0 0 1 18 12 z M 6.5 12.5 A 1.5 1.5 0 0 1 8 14 A 1.5 1.5 0 0 1 6.5 15.5 A 1.5 1.5 0 0 1 5 14 A 1.5 1.5 0 0 1 6.5 12.5 z M 18 13 A 1 1 0 0 0 17 14 A 1 1 0 0 0 18 15 A 1 1 0 0 0 19 14 A 1 1 0 0 0 18 13 z M 9.9746094 15.5 C 9.9831594 15.49957 9.991343 15.5 10 15.5 L 11 15.5 C 11.277 15.5 11.5 15.723 11.5 16 C 11.5 16.277 11.277 16.5 11 16.5 L 10 16.5 C 9.7230097 16.5 9.5 16.277 9.5 16 C 9.5 15.731657 9.7097029 15.513342 9.9746094 15.5 z M 12.974609 15.5 C 12.983109 15.49957 12.99135 15.5 13 15.5 L 14 15.5 C 14.277 15.5 14.5 15.723 14.5 16 C 14.5 16.277 14.277 16.5 14 16.5 L 13 16.5 C 12.723 16.5 12.5 16.277 12.5 16 C 12.5 15.731657 12.709726 15.513342 12.974609 15.5 z " />
  <path d="M 15.25,9.4200525 A 3.25,3.25 0 0 1 12,12.670053 3.25,3.25 0 0 1 8.75,9.4200525 a 3.25,3.25 0 0 1 3.25,-3.25 3.25,3.25 0 0 1 3.25,3.25 z" fill-opacity="0.75" />
</svg>
