<?xml version="1.0" encoding="UTF-8"?>
<svg height="24px" viewBox="0 0 24 24" width="24px" xmlns="http://www.w3.org/2000/svg">
  <path d="M 4.2675781 6.421875 A 2.1496718 2.1769028 0 0 1 2.4667969 7.4082031 A 2.1496718 2.1769028 0 0 1 1.8515625 7.3085938 A 3.9435065 5.5337386 0 0 0 0.02734375 11.955078 A 3.9435065 5.5337386 0 0 0 3.9707031 17.490234 L 20 17.490234 A 3.9435065 5.5337386 0 0 0 23.943359 11.955078 A 3.9435065 5.5337386 0 0 0 22.125 7.3144531 A 2.1496718 2.1769028 0 0 1 21.5 7.4082031 A 2.1496718 2.1769028 0 0 1 19.712891 6.421875 L 4.2675781 6.421875 z M 3.3710938 6.4960938 A 3.9435065 5.5337386 0 0 0 3.0410156 6.5976562 A 3.9435065 5.5337386 0 0 1 3.3710938 6.4960938 z M 20.603516 6.4960938 A 3.9435065 5.5337386 0 0 1 20.939453 6.6015625 A 3.9435065 5.5337386 0 0 0 20.603516 6.4960938 z M 21.173828 6.6894531 A 3.9435065 5.5337386 0 0 1 21.566406 6.8984375 A 3.9435065 5.5337386 0 0 0 21.173828 6.6894531 z M 2.7890625 6.6933594 A 3.9435065 5.5337386 0 0 0 2.4179688 6.8886719 A 3.9435065 5.5337386 0 0 1 2.7890625 6.6933594 z M 21.705078 6.9902344 A 3.9435065 5.5337386 0 0 1 22.121094 7.3125 A 3.9435065 5.5337386 0 0 0 21.705078 6.9902344 z M 2.2578125 6.9941406 A 3.9435065 5.5337386 0 0 0 1.8554688 7.3046875 A 3.9435065 5.5337386 0 0 1 2.2578125 6.9941406 z M 5.5 8 L 18.5 8 C 18.777 8 19 8.2230009 19 8.5 L 19 15.5 C 19 15.777 18.777 16 18.5 16 L 5.5 16 C 5.2230009 16 5 15.777 5 15.5 L 5 8.5 C 5 8.2230009 5.2230009 8 5.5 8 z M 2.125 9 L 2.875 9 C 2.9442489 9 3 9.0557511 3 9.125 L 3 9.9941406 L 3.8691406 10 C 3.9383896 10.000362 3.9945029 10.055751 3.9941406 10.125 L 3.9902344 10.875 C 3.9898721 10.944249 3.9344825 11.000362 3.8652344 11 L 3 10.994141 L 3 11.859375 C 3 11.928625 2.9442489 11.984375 2.875 11.984375 L 2.125 11.984375 C 2.0557511 11.984375 2 11.928625 2 11.859375 L 2 10.990234 L 1.1308594 10.984375 C 1.0616104 10.984013 1.0054971 10.928624 1.0058594 10.859375 L 1.0097656 10.109375 C 1.0101279 10.040126 1.0655175 9.9840128 1.1347656 9.984375 L 2 9.9902344 L 2 9.125 C 2 9.0557511 2.0557511 9 2.125 9 z M 21.5 9 A 0.5 0.5 0 0 1 22 9.5 A 0.5 0.5 0 0 1 21.5 10 A 0.5 0.5 0 0 1 21 9.5 A 0.5 0.5 0 0 1 21.5 9 z M 20.5 10 A 0.5 0.5 0 0 1 21 10.5 A 0.5 0.5 0 0 1 20.5 11 A 0.5 0.5 0 0 1 20 10.5 A 0.5 0.5 0 0 1 20.5 10 z M 22.5 10 A 0.5 0.5 0 0 1 23 10.5 A 0.5 0.5 0 0 1 22.5 11 A 0.5 0.5 0 0 1 22 10.5 A 0.5 0.5 0 0 1 22.5 10 z M 21.5 11 A 0.5 0.5 0 0 1 22 11.5 A 0.5 0.5 0 0 1 21.5 12 A 0.5 0.5 0 0 1 21 11.5 A 0.5 0.5 0 0 1 21.5 11 z M 3 12.875 A 1.125 1.125 0 0 1 4.125 14 A 1.125 1.125 0 0 1 3 15.125 A 1.125 1.125 0 0 1 1.875 14 A 1.125 1.125 0 0 1 3 12.875 z M 21.015625 12.875 A 1.125 1.125 0 0 1 22.140625 14 A 1.125 1.125 0 0 1 21.015625 15.125 A 1.125 1.125 0 0 1 19.890625 14 A 1.125 1.125 0 0 1 21.015625 12.875 z M 3 13.25 A 0.75 0.75 0 0 0 2.25 14 A 0.75 0.75 0 0 0 3 14.75 A 0.75 0.75 0 0 0 3.75 14 A 0.75 0.75 0 0 0 3 13.25 z M 21.015625 13.25 A 0.75 0.75 0 0 0 20.265625 14 A 0.75 0.75 0 0 0 21.015625 14.75 A 0.75 0.75 0 0 0 21.765625 14 A 0.75 0.75 0 0 0 21.015625 13.25 z " />
  <path d="M 3.9707031 6.421875 A 3.9435065 5.5337386 0 0 0 1.8515625 7.3085938 A 2.1496718 2.1769028 0 0 0 2.4667969 7.4082031 A 2.1496718 2.1769028 0 0 0 4.2675781 6.421875 L 3.9707031 6.421875 z M 19.712891 6.421875 A 2.1496718 2.1769028 0 0 0 21.5 7.4082031 A 2.1496718 2.1769028 0 0 0 22.125 7.3144531 A 3.9435065 5.5337386 0 0 0 20 6.421875 L 19.712891 6.421875 z " fill-opacity="0.25" />
</svg>
