<?xml version="1.0" encoding="UTF-8" standalone="no"?>
<svg height="24px" viewBox="0 0 24 24" width="24px" xmlns="http://www.w3.org/2000/svg">
  <path d="M 5.0332031 3.25 C 4.8655778 3.2509967 4.7105658 3.2717015 4.5703125 3.3144531 C 2.0184022 4.0923347 0.074351214 8.6810381 0 17 C -0.017146582 18.918485 0.50645366 20.030068 1.8867188 19.917969 C 4.2960127 19.722298 3.2454983 16.525391 12 16.525391 C 20.754499 16.525391 19.703994 19.722298 22.113281 19.917969 C 23.493551 20.030068 24.017147 18.918485 24 17 C 23.925648 8.6810381 21.981593 4.0923347 19.429688 3.3144531 C 17.933652 2.8584289 14.786578 5 12 5 C 9.4746602 5 6.6535853 3.2403655 5.0332031 3.25 z M 5 5 A 2 2 0 0 1 7 7 A 2 2 0 0 1 5 9 A 2 2 0 0 1 3 7 A 2 2 0 0 1 5 5 z M 19 5 A 2 2 0 0 1 21 7 A 2 2 0 0 1 19 9 A 2 2 0 0 1 17 7 A 2 2 0 0 1 19 5 z M 5 6 A 1 1 0 0 0 4 7 A 1 1 0 0 0 5 8 A 1 1 0 0 0 6 7 A 1 1 0 0 0 5 6 z M 19 6 A 1 1 0 0 0 18 7 A 1 1 0 0 0 19 8 A 1 1 0 0 0 20 7 A 1 1 0 0 0 19 6 z M 10 8.5 A 0.5 0.5 0 0 1 10.5 9 A 0.5 0.5 0 0 1 10 9.5 A 0.5 0.5 0 0 1 9.5 9 A 0.5 0.5 0 0 1 10 8.5 z M 12 8.5 A 0.5 0.5 0 0 1 12.5 9 A 0.5 0.5 0 0 1 12 9.5 A 0.5 0.5 0 0 1 11.5 9 A 0.5 0.5 0 0 1 12 8.5 z M 14 8.5 A 0.5 0.5 0 0 1 14.5 9 A 0.5 0.5 0 0 1 14 9.5 A 0.5 0.5 0 0 1 13.5 9 A 0.5 0.5 0 0 1 14 8.5 z M 17 10 A 1 1 0 0 1 18 11 A 1 1 0 0 1 17 12 A 1 1 0 0 1 16 11 A 1 1 0 0 1 17 10 z M 7.125 11.5 L 7.875 11.5 C 7.944249 11.5 8 11.55575 8 11.625 L 8 12.5 L 8.875 12.5 C 8.9442489 12.5 9 12.55575 9 12.625 L 9 13.375 C 9 13.44425 8.9442489 13.5 8.875 13.5 L 8 13.5 L 8 14.375 C 8 14.44425 7.944249 14.5 7.875 14.5 L 7.125 14.5 C 7.055751 14.5 7 14.44425 7 14.375 L 7 13.5 L 6.125 13.5 C 6.0557511 13.5 6 13.44425 6 13.375 L 6 12.625 C 6 12.55575 6.0557511 12.5 6.125 12.5 L 7 12.5 L 7 11.625 C 7 11.55575 7.055751 11.5 7.125 11.5 z M 15 12 A 1 1 0 0 1 16 13 A 1 1 0 0 1 15 14 A 1 1 0 0 1 14 13 A 1 1 0 0 1 15 12 z M 19 12 A 1 1 0 0 1 20 13 A 1 1 0 0 1 19 14 A 1 1 0 0 1 18 13 A 1 1 0 0 1 19 12 z M 17 14 A 1 1 0 0 1 18 15 A 1 1 0 0 1 17 16 A 1 1 0 0 1 16 15 A 1 1 0 0 1 17 14 z " />
</svg>
