<?xml version="1.0" encoding="UTF-8" standalone="no"?>
<svg height="24px" viewBox="0 0 24 24" width="24px" xmlns="http://www.w3.org/2000/svg">
  <path d="M 11.914062 0.95117188 C 10.133227 1.1601715 8.0462223 1.2177534 5.6171875 4.1464844 L 2.8925781 4.7714844 A 0.47886838 0.47886838 0 0 0 2.6132812 4.9550781 C 0.62600503 7.6805815 0.68416961 11.809081 1.4277344 15.414062 C 1.7995164 17.216562 2.3512233 18.893421 2.9492188 20.214844 C 3.5472132 21.536257 4.1232943 22.500157 4.8496094 22.9375 C 4.9914002 23.02287 5.215055 23.031172 5.3515625 22.976562 C 5.48807 22.921961 5.5610081 22.848207 5.6191406 22.78125 C 5.7354066 22.647335 5.8004479 22.513154 5.8710938 22.357422 C 6.0123837 22.045957 6.1405819 21.653392 6.2578125 21.253906 C 6.4443824 20.618142 6.5332241 20.204839 6.5878906 19.966797 C 8.3018825 19.51648 10.147443 19.445176 11.970703 19.400391 C 13.794656 19.445191 15.638973 19.517944 17.353516 19.96875 C 17.408386 20.207616 17.497287 20.619047 17.683594 21.253906 C 17.800826 21.653392 17.929031 22.045958 18.070312 22.357422 C 18.140962 22.513154 18.206 22.647336 18.322266 22.78125 C 18.380396 22.84821 18.453335 22.921963 18.589844 22.976562 C 18.726352 23.031172 18.950004 23.02287 19.091797 22.9375 C 19.81811 22.500157 20.392244 21.536257 20.990234 20.214844 C 21.588235 18.893421 22.141886 17.216562 22.513672 15.414062 C 23.257234 11.809081 23.315401 7.6805819 21.328125 4.9550781 A 0.47886838 0.47886838 0 0 0 21.046875 4.7714844 L 18.322266 4.1464844 C 15.893222 1.2177539 13.806226 1.1601716 12.025391 0.95117188 A 0.47886838 0.47886838 0 0 0 11.914062 0.95117188 z M 9.5 5 L 14.5 5 C 14.777 5 15 5.2230015 15 5.5 L 15 9.5 C 15 9.7769985 14.777 10 14.5 10 L 9.5 10 C 9.2230015 10 9 9.7769985 9 9.5 L 9 5.5 C 9 5.2230015 9.2230015 5 9.5 5 z M 4 6 A 2 2 0 0 1 6 8 A 2 2 0 0 1 4 10 A 2 2 0 0 1 2 8 A 2 2 0 0 1 4 6 z M 4 7 A 1 1 0 0 0 3 8 A 1 1 0 0 0 4 9 A 1 1 0 0 0 5 8 A 1 1 0 0 0 4 7 z M 19 7 A 1 1 0 0 1 20 8 A 1 1 0 0 1 19 9 A 1 1 0 0 1 18 8 A 1 1 0 0 1 19 7 z M 17 9 A 1 1 0 0 1 18 10 A 1 1 0 0 1 17 11 A 1 1 0 0 1 16 10 A 1 1 0 0 1 17 9 z M 21 9 A 1 1 0 0 1 22 10 A 1 1 0 0 1 21 11 A 1 1 0 0 1 20 10 A 1 1 0 0 1 21 9 z M 19 11 A 1 1 0 0 1 20 12 A 1 1 0 0 1 19 13 A 1 1 0 0 1 18 12 A 1 1 0 0 1 19 11 z M 5.125 12 L 5.875 12 C 5.9442488 12 6 12.05575 6 12.125 L 6 13 L 6.875 13 C 6.9442487 13 7 13.05575 7 13.125 L 7 13.875 C 7 13.94425 6.9442487 14 6.875 14 L 6 14 L 6 14.875 C 6 14.94425 5.9442488 15 5.875 15 L 5.125 15 C 5.0557512 15 5 14.94425 5 14.875 L 5 14 L 4.125 14 C 4.0557513 14 4 13.94425 4 13.875 L 4 13.125 C 4 13.05575 4.0557513 13 4.125 13 L 5 13 L 5 12.125 C 5 12.05575 5.0557512 12 5.125 12 z M 12 16 A 0.19978427 0.19978427 0 0 1 12.179688 16.111328 L 12.978516 17.710938 A 0.19978427 0.19978427 0 0 1 12.798828 18 L 11.201172 18 A 0.19978427 0.19978427 0 0 1 11.021484 17.710938 L 11.820312 16.111328 A 0.19978427 0.19978427 0 0 1 12 16 z " />
</svg>
