<?xml version="1.0" encoding="UTF-8"?>
<!-- Adapted from Gnome Highscore -->
<svg height="24px" viewBox="0 0 24 24" width="24px" xmlns="http://www.w3.org/2000/svg">
  <path d="M 5.2050781,4.1074219 C 4.3463019,4.0933228 3.6224987,4.3910129 3.0195312,4.8242188 L 2.9628906,5.25 2.5820312,5.3359375 C 1.1153203,8.2039256 0.02734375,11.962152 0.02734375,15.224609 c 0,3.940991 1.28402435,4.728516 2.88085935,4.728516 1.198775,0 1.6222317,-2.478262 2,-3.316406 0.2408009,-0.534265 0.8270452,-1.21875 2.1171875,-1.21875 1.2901422,0 3.2847584,0.0059 4.9746094,0.0059 1.689851,0 3.684476,-0.0059 4.974609,-0.0059 1.290146,0 1.876384,0.684485 2.117188,1.21875 0.37776,0.838144 0.801222,3.316406 2,3.316406 1.596829,0 2.880859,-0.787525 2.880859,-4.728516 0,-3.262457 -1.087983,-7.0206834 -2.554687,-9.8886715 L 21.037109,5.25 20.980469,4.8242188 C 20.176515,4.2466105 19.157409,3.9109202 17.890625,4.2324219 l -0.08203,0.4375 C 17.11982,4.5797229 16.408374,4.5089257 15.69336,4.4492188 c 0.383424,0.113829 0.480976,0.4375788 0.427735,0.7070312 -0.09983,0.505225 -0.335479,2.3219363 -0.837891,3.4296875 -0.283084,0.6241611 -0.389808,0.890625 -1.853515,0.890625 H 12 10.570312 c -1.4637064,0 -1.5704325,-0.2664639 -1.8535151,-0.890625 C 8.2143863,7.4781863 7.9787353,5.661475 7.8789062,5.15625 7.8256644,4.8867976 7.9232187,4.5630478 8.3066406,4.4492188 7.5916272,4.5089257 6.88018,4.5797227 6.1914062,4.6699219 l -0.082031,-0.4375 C 5.7926792,4.1520468 5.4913369,4.1121216 5.2050781,4.1074219 Z M 11.287109,4.296875 C 10.856884,4.304445 10.42467,4.31909 9.9863281,4.339844 10.443699,4.322338 10.901629,4.306499 11.287109,4.296875 Z m 1.425782,0 c 0.38548,0.00962 0.84341,0.025463 1.300781,0.042969 C 13.57533,4.3190897 13.143116,4.3044467 12.712891,4.296875 Z M 9.9726562,4.3398438 C 9.4402824,4.3652089 8.9079037,4.3996399 8.375,4.4433594 8.907668,4.3996756 9.440308,4.3652038 9.9726562,4.3398438 Z m 4.0546878,0 c 0.532348,0.02536 1.064988,0.059832 1.597656,0.1035156 -0.532904,-0.043719 -1.065283,-0.078151 -1.597656,-0.1035156 z M 4.2578125,6 h 1.5 c 0.1367175,0 0.25,0.1132825 0.25,0.25 v 0.765625 c 0,0.160153 -0.062501,0.3164092 -0.1757813,0.4257812 L 5.1835938,8.0898438 c -0.097656,0.097655 -0.2539073,0.097655 -0.3554688,0 L 4.5390625,7.796875 4.1835938,7.4414062 C 4.0703133,7.3281282 4.0078125,7.175778 4.0078125,7.015625 V 6.25 c 0,-0.1367175 0.1132835,-0.25 0.25,-0.25 z M 19.007812,6 c 0.550782,0 1,0.4492298 1,1 0,0.5546772 -0.449218,1 -1,1 -0.550763,0 -1,-0.4453228 -1,-1 0,-0.5507702 0.449237,-1 1,-1 z M 2.2578125,8 H 3.046875 c 0.1640588,0 0.3164086,0.066411 0.4296875,0.1757812 v 0.00391 C 3.5937484,8.2968546 3.7148484,8.4140641 3.8320312,8.53125 l 0.2890626,0.2929688 c 0.1015578,0.097654 0.1015578,0.2578123 0,0.3554687 L 3.4765625,9.8242188 C 3.3671906,9.9374986 3.2109361,10 3.0507812,10 H 2.2578125 c -0.1367159,0 -0.25,-0.1093756 -0.25,-0.25 v -1.5 c 0,-0.1367169 0.1132841,-0.25 0.25,-0.25 z m 4.6777344,0 c 0.00997,-5.14e-4 0.019287,0 0.029297,0 h 0.7929687 c 0.1367166,0 0.25,0.1132834 0.25,0.25 v 1.5 c 0,0.1406243 -0.1132834,0.25 -0.25,0.25 H 6.9648438 C 6.8046902,10.003906 6.6523421,9.9374984 6.5390625,9.8242188 6.4218779,9.7070315 6.300776,9.5898435 6.1835938,9.4726562 L 5.890625,9.1796875 c -0.093748,-0.09766 -0.093748,-0.2578151 0,-0.3554687 L 6.5351562,8.1796875 C 6.6413557,8.073488 6.7860039,8.0077104 6.9355469,8 Z M 17.007812,8 c 0.550782,0 1,0.4492352 1,1 0,0.5546642 -0.449218,1 -1,1 -0.550754,0 -1,-0.4453358 -1,-1 0,-0.5507648 0.449246,-1 1,-1 z m 4,0 c 0.550782,0 1,0.449237 1,1 0,0.5546616 -0.449218,1 -1,1 -0.550751,0 -1,-0.4453384 -1,-1 0,-0.550763 0.449249,-1 1,-1 z M 5.0078125,9.7851562 c 0.066404,0 0.1289063,0.027339 0.1757813,0.074219 l 0.2929687,0.2890628 c 0.1171847,0.12106 0.2343788,0.238281 0.3515625,0.355468 h 0.00391 c 0.1132777,0.117188 0.1757813,0.269532 0.1757813,0.429688 V 11.75 c 0,0.140625 -0.1132843,0.25 -0.25,0.25 h -1.5 c -0.1367147,0 -0.25,-0.109375 -0.25,-0.25 v -0.820312 c 0,-0.15625 0.062502,-0.3125 0.1757813,-0.425782 L 4.5390625,10.152344 4.8320312,9.859375 C 4.8789062,9.812505 4.9414098,9.785156 5.0078125,9.7851562 Z M 19.007812,10 c 0.550782,0 1,0.449256 1,1 0,0.554651 -0.449218,1 -1,1 -0.550744,0 -1,-0.445349 -1,-1 0,-0.550744 0.449256,-1 1,-1 z M 9,11.25 A 1.75,1.75 0 0 1 10.75,13 1.75,1.75 0 0 1 9,14.75 1.75,1.75 0 0 1 7.25,13 1.75,1.75 0 0 1 9,11.25 Z m 6,0 A 1.75,1.75 0 0 1 16.75,13 1.75,1.75 0 0 1 15,14.75 1.75,1.75 0 0 1 13.25,13 1.75,1.75 0 0 1 15,11.25 Z M 9,12 a 1,1 0 0 0 -1,1 1,1 0 0 0 1,1 1,1 0 0 0 1,-1 1,1 0 0 0 -1,-1 z m 6,0 a 1,1 0 0 0 -1,1 1,1 0 0 0 1,1 1,1 0 0 0 1,-1 1,1 0 0 0 -1,-1 z" />
  <path d="m 12,4.2851562 c -0.149971,0 -0.387079,0.00477 -0.671875,0.011719 -0.0046,7.57e-5 -0.0091,-7.72e-5 -0.01367,0 C 10.923,4.3064935 10.450747,4.3219033 9.9824219,4.3398438 9.4247065,4.3662973 8.8666485,4.4026418 8.3085938,4.4492188 7.9236414,4.5625582 7.8255791,4.8863661 7.8789062,5.15625 c 0.099829,0.5052255 0.3354796,2.3219352 0.8378907,3.4296875 0.2830829,0.6241617 0.3898067,0.890625 1.8535151,0.890625 H 12 13.429688 c 1.463709,0 1.570431,-0.2664633 1.853515,-0.890625 0.502412,-1.1077523 0.738062,-2.924462 0.837891,-3.4296875 0.05333,-0.2698839 -0.04473,-0.5936918 -0.429688,-0.7070312 -0.558055,-0.046577 -1.116113,-0.082921 -1.673828,-0.109375 -0.468325,-0.01794 -0.940578,-0.03335 -1.332031,-0.042969 -0.0041,-1.002e-4 -0.0096,9.9e-5 -0.01367,0 C 12.447872,4.2931534 12.220306,4.2851563 12,4.2851562 Z" fill-opacity="0.75" />
</svg>
