<?xml version="1.0" encoding="UTF-8"?>
<!-- Adapted from Gnome World -->
<svg height="24px" viewBox="0 0 24 24" width="24px" xmlns="http://www.w3.org/2000/svg">
  <path d="M 2 1 C 0.89062722 1 0 1.8906272 0 3 L 0 11 L 24 11 L 24 3 C 24 1.8906272 23.109373 1 22 1 L 2 1 z M 7 3 L 17 3 C 17.553998 3 18 3.4460012 18 4 L 18 9 C 18 9.5539988 17.553998 10 17 10 L 7 10 C 6.4460012 10 6 9.5539988 6 9 L 6 4 C 6 3.4460012 6.4460012 3 7 3 z M 0 12 L 0 20 C 0 21.109368 0.89063277 22 2 22 L 22 22 C 23.109368 22 24 21.109368 24 20 L 24 12 L 0 12 z M 9 14 L 15 14 C 15.554686 14 16 14.445314 16 15 L 16 19 C 16 19.554686 15.554686 20 15 20 L 9 20 C 8.4453132 20 8 19.554686 8 19 L 8 15 C 8 14.445314 8.4453132 14 9 14 z M 20 14 C 20.550777 14 21 14.449223 21 15 C 21 15.550777 20.550777 16 20 16 C 19.449223 16 19 15.550777 19 15 C 19 14.449223 19.449223 14 20 14 z M 4 15 A 2 2 0 0 1 6 17 A 2 2 0 0 1 4 19 A 2 2 0 0 1 2 17 A 2 2 0 0 1 4 15 z M 18 16 C 18.550776 16 19 16.449224 19 17 C 19 17.550776 18.550776 18 18 18 C 17.449224 18 17 17.550776 17 17 C 17 16.449224 17.449224 16 18 16 z M 22 16 C 22.550775 16 23 16.449225 23 17 C 23 17.550775 22.550775 18 22 18 C 21.449225 18 21 17.550775 21 17 C 21 16.449225 21.449225 16 22 16 z M 20 18 C 20.550774 18 21 18.449226 21 19 C 21 19.550774 20.550774 20 20 20 C 19.449226 20 19 19.550774 19 19 C 19 18.449226 19.449226 18 20 18 z"/>
  <path d="m 8 14 h 8 v 6 h -8 z m 0 0" fill-opacity="0.25098"/>
  <path d="m 0 10 h 24 v 3 h -24 z m 0 0" fill-opacity="0.74902"/>
</svg>
