<?xml version="1.0" encoding="UTF-8"?>
<!-- Taken from Gnome Highscore -->
<svg height="24px" viewBox="0 0 24 24" width="24px" xmlns="http://www.w3.org/2000/svg">
  <path d="m 3.5 2 c -1.933594 0 -3.5 1.566406 -3.5 3.5 c 0.00390625 0.519531 0.125 1.03125 0.351562 1.5 l -0.011718 0.007812 c 0.285156 0.59375 0.660156 1.332032 0.660156 1.992188 c 0 0.550781 -0.199219 1.402344 -0.359375 1.933594 c -0.535156 1.792968 -0.6210938 7.371094 -0.640625 10.066406 c -0.00390625 0.550781 0.445312 1 0.996094 1 h 1 c 0.574218 0 1.058594 -0.421875 1.140625 -0.992188 l 0.722656 -9.015624 c 0.082031 -0.570313 0.566406 -0.992188 1.140625 -0.992188 h 3 v 3 c 0 0.554688 0.445312 1 1 1 h 6 c 0.554688 0 1 -0.445312 1 -1 v -3 h 3 c 0.574219 0 1.058594 0.421875 1.140625 0.992188 l 0.722656 9.015624 c 0.082031 0.570313 0.566407 0.992188 1.140625 0.992188 h 1 c 0.550782 0 1 -0.449219 0.996094 -1 c -0.019531 -2.695312 -0.105469 -8.273438 -0.644531 -10.066406 c -0.15625 -0.53125 -0.355469 -1.382813 -0.355469 -1.933594 c 0 -0.660156 0.375 -1.398438 0.65625 -1.992188 l -0.003906 -0.019531 c 0.226562 -0.464843 0.34375 -0.972656 0.347656 -1.488281 c 0 -1.933594 -1.566406 -3.5 -3.5 -3.5 c -0.710938 0 -1.402344 0.214844 -1.988281 0.621094 l -2 1.378906 h -9.027344 l -1.996094 -1.378906 c -0.585937 -0.40625 -1.277343 -0.621094 -1.988281 -0.621094 z m -0.367188 2 h 0.734376 c 0.074218 0 0.132812 0.058594 0.132812 0.132812 v 0.867188 h 0.867188 c 0.074218 0 0.132812 0.058594 0.132812 0.132812 v 0.734376 c 0 0.074218 -0.058594 0.132812 -0.132812 0.132812 h -0.867188 v 0.867188 c 0 0.074218 -0.058594 0.132812 -0.132812 0.132812 h -0.734376 c -0.074218 0 -0.132812 -0.058594 -0.132812 -0.132812 v -0.867188 h -0.867188 c -0.074218 0 -0.132812 -0.058594 -0.132812 -0.132812 v -0.734376 c 0 -0.074218 0.058594 -0.132812 0.132812 -0.132812 h 0.867188 v -0.867188 c 0 -0.074218 0.058594 -0.132812 0.132812 -0.132812 z m 17 0 h 0.734376 c 0.074218 0 0.132812 0.058594 0.132812 0.132812 v 0.867188 h 0.867188 c 0.074218 0 0.132812 0.058594 0.132812 0.132812 v 0.734376 c 0 0.074218 -0.058594 0.132812 -0.132812 0.132812 h -0.867188 v 0.867188 c 0 0.074218 -0.058594 0.132812 -0.132812 0.132812 h -0.734376 c -0.074218 0 -0.132812 -0.058594 -0.132812 -0.132812 v -0.867188 h -0.867188 c -0.074218 0 -0.132812 -0.058594 -0.132812 -0.132812 v -0.734376 c 0 -0.074218 0.058594 -0.132812 0.132812 -0.132812 h 0.867188 v -0.867188 c 0 -0.074218 0.058594 -0.132812 0.132812 -0.132812 z m -9.933593 1 h 3.601562 c 0.074219 0 0.109375 0.089844 0.058594 0.140625 l -0.71875 0.71875 c -0.089844 0.089844 -0.210937 0.140625 -0.339844 0.140625 h -1.601562 c -0.128907 0 -0.25 -0.050781 -0.339844 -0.140625 l -0.71875 -0.71875 c -0.050781 -0.050781 -0.015625 -0.140625 0.058594 -0.140625 z m -3.199219 1 c 0.550781 0 1 0.449219 1 1 s -0.449219 1 -1 1 s -1 -0.449219 -1 -1 s 0.449219 -1 1 -1 z m 10 0 c 0.550781 0 1 0.449219 1 1 s -0.449219 1 -1 1 s -1 -0.449219 -1 -1 s 0.449219 -1 1 -1 z m -7 1 c 0.550781 0 1 0.449219 1 1 s -0.449219 1 -1 1 s -1 -0.449219 -1 -1 s 0.449219 -1 1 -1 z m 4 0 c 0.550781 0 1 0.449219 1 1 s -0.449219 1 -1 1 s -1 -0.449219 -1 -1 s 0.449219 -1 1 -1 z m 0 0"/>
</svg>
