<?xml version="1.0" encoding="UTF-8"?>
<svg height="24px" viewBox="0 0 24 24" width="24px" xmlns="http://www.w3.org/2000/svg">
  <path d="M 4.6660156 7 C 3.6074578 7.0000105 3.8369518 7.7774972 3.2089844 7.8164062 L 1.3027344 7.8964844 C 0.53138165 9.0141894 -3.1086214e-15 10.54126 0 12 C 0 13.648125 1.1647902 17 2.6894531 17 L 12 16.990234 L 21.310547 17 C 21.371622 17 21.432319 16.992854 21.492188 16.982422 C 21.34088 16.996132 21.178939 16.996094 21 16.996094 L 19.333984 16.996094 C 20.392543 16.996084 20.16304 16.218586 20.791016 16.179688 L 22.660156 16.101562 L 22.662109 16.101562 C 23.472198 14.990203 24 13.109442 24 12 C 24 10.54126 23.468616 9.0141896 22.697266 7.8964844 L 20.791016 7.8164062 C 20.16304 7.7774972 20.392543 7.0000105 19.333984 7 L 12 7 L 4.6660156 7 z M 8.546875 8.9257812 L 15.546875 8.9257812 C 15.823875 8.9257812 16.046875 9.1487815 16.046875 9.4257812 L 16.046875 14.425781 C 16.046875 14.702781 15.823875 14.925781 15.546875 14.925781 L 8.546875 14.925781 C 8.2698753 14.925781 8.046875 14.702781 8.046875 14.425781 L 8.046875 9.4257812 C 8.046875 9.1487815 8.2698753 8.9257812 8.546875 8.9257812 z M 3.25 9 L 4.75 9 C 4.8867177 9 5 9.1132823 5 9.25 L 5 10.015625 C 5 10.175779 4.9374987 10.332033 4.8242188 10.441406 L 4.1757812 11.089844 C 4.0781254 11.187504 3.9218742 11.187504 3.8203125 11.089844 L 3.53125 10.796875 L 3.1757812 10.441406 C 3.0625007 10.328127 3 10.175779 3 10.015625 L 3 9.25 C 3 9.1132823 3.1132833 9 3.25 9 z M 20 9 C 20.550779 9 21 9.4492286 21 10 C 21 10.554677 20.550779 11 20 11 C 19.449234 11 19 10.554677 19 10 C 19 9.4492286 19.449234 9 20 9 z M 1.25 11 L 2.0390625 11 C 2.2031217 11 2.3554709 11.06641 2.46875 11.175781 L 2.46875 11.179688 C 2.5859361 11.296856 2.7070352 11.414063 2.8242188 11.53125 L 3.1132812 11.824219 C 3.2148398 11.921869 3.2148398 12.082031 3.1132812 12.179688 L 2.46875 12.824219 C 2.3593779 12.9375 2.2031235 13 2.0429688 13 L 1.25 13 C 1.1132839 13 1 12.890625 1 12.75 L 1 11.25 C 1 11.113282 1.1132839 11 1.25 11 z M 5.9277344 11 C 5.9377044 10.999486 5.9470217 11 5.9570312 11 L 6.75 11 C 6.8867168 11 7 11.113283 7 11.25 L 7 12.75 C 7 12.890625 6.8867168 13 6.75 13 L 5.9570312 13 C 5.7968779 13.003906 5.6445298 12.9375 5.53125 12.824219 C 5.4140652 12.707031 5.2929643 12.589844 5.1757812 12.472656 L 4.8828125 12.179688 C 4.789065 12.082028 4.789065 11.921873 4.8828125 11.824219 L 5.5273438 11.179688 C 5.633543 11.073487 5.7781912 11.00771 5.9277344 11 z M 18 11 C 18.550776 11 19 11.449236 19 12 C 19 12.554663 18.550776 13 18 13 C 17.449244 13 17 12.554663 17 12 C 17 11.449236 17.449244 11 18 11 z M 22 11 C 22.550775 11 23 11.449239 23 12 C 23 12.55466 22.550775 13 22 13 C 21.449246 13 21 12.55466 21 12 C 21 11.449239 21.449246 11 22 11 z M 4 12.785156 C 4.0664042 12.785156 4.128907 12.812495 4.1757812 12.859375 L 4.46875 13.148438 C 4.5859349 13.2695 4.7031286 13.386719 4.8203125 13.503906 L 4.8242188 13.503906 C 4.9374959 13.621094 5 13.773438 5 13.933594 L 5 14.75 C 5 14.890625 4.8867159 15 4.75 15 L 3.25 15 C 3.1132851 15 3 14.890625 3 14.75 L 3 13.929688 C 3 13.773438 3.0625025 13.617188 3.1757812 13.503906 L 3.53125 13.152344 L 3.8242188 12.859375 C 3.871093 12.812505 3.9335971 12.785156 4 12.785156 z M 20 13 C 20.550773 13 21 13.449254 21 14 C 21 14.554653 20.550773 15 20 15 C 19.449254 15 19 14.554653 19 14 C 19 13.449254 19.449254 13 20 13 z M 2.125 16.179688 C 2.3891073 16.179688 2.6682845 16.183 2.9316406 16.1875 C 3.1949978 16.192026 3.4054435 16.237136 3.5625 16.404297 C 3.6463434 16.493534 3.7862753 16.694759 3.5097656 16.693359 L 2.7460938 16.689453 C 2.532531 16.688391 2.3519341 16.646083 2.2050781 16.564453 C 2.2050781 16.564453 2.0158499 16.431306 1.953125 16.347656 C 1.8904003 16.264013 1.8608927 16.179688 2.125 16.179688 z M 22.253906 16.568359 C 22.237628 16.583399 22.221516 16.598925 22.205078 16.613281 C 22.221787 16.598689 22.237363 16.583657 22.253906 16.568359 z M 22.019531 16.755859 C 22.001829 16.76802 21.984658 16.779691 21.966797 16.791016 C 21.984466 16.779796 22.002017 16.767897 22.019531 16.755859 z M 21.884766 16.839844 C 21.859402 16.853891 21.834251 16.866612 21.808594 16.878906 C 21.834133 16.86663 21.859517 16.853858 21.884766 16.839844 z M 21.652344 16.941406 C 21.603701 16.957391 21.555408 16.971194 21.505859 16.980469 C 21.555523 16.971163 21.603584 16.957469 21.652344 16.941406 z " />
  <path d="M 3,7 C 2.4249651,7 2.0187676,6.9919553 1.6132812,7.4824219 1.5056192,7.6126473 1.4028836,7.7513662 1.3027344,7.8964844 l 1.90625,-0.080078 C 3.8369602,7.777496 3.6074446,7.0000105 4.6660156,7 Z" fill-opacity="0.25" />
  <path d="m 21,7 c 0.575035,0 0.981232,-0.00804 1.386719,0.4824219 0.107662,0.1302254 0.210397,0.2689443 0.310547,0.4140625 l -1.90625,-0.080078 C 20.16304,7.777496 20.392555,7.0000105 19.333984,7 Z" fill-opacity="0.25" />
</svg>
