<?xml version="1.0" encoding="UTF-8" standalone="no"?>
<svg height="24px" viewBox="0 0 24 24" width="24px" xmlns="http://www.w3.org/2000/svg">
  <path d="M 5.0136719 3.0117188 C 3.0043551 4.0007129 1.0037232 6.0007715 0.02734375 12.992188 C 0.0037364732 17.000622 -0.49495696 22 3.0039062 22 L 6.46875 18 C 8.6415398 18.990819 10.983736 18.966964 11.996094 19.001953 C 11.998094 19.002023 12.001906 19.001883 12.003906 19.001953 C 13.016257 18.966963 15.360402 18.990821 17.533203 18 L 20.996094 22 C 24.494951 22 23.996263 17.000622 23.972656 12.992188 C 22.996288 6.0007715 20.997598 4.0007129 18.988281 3.0117188 C 16.9994 3.9998436 15.012445 4.938565 12.003906 5 C 12.001206 4.9999471 11.998694 5.0000542 11.996094 5 C 8.9875559 4.9385597 7.0025473 3.9998405 5.0136719 3.0117188 z M 18 5.9863281 A 1 1 0 0 1 19 6.9863281 A 1 1 0 0 1 18 7.9863281 A 1 1 0 0 1 17 6.9863281 A 1 1 0 0 1 18 5.9863281 z M 12 6.1699219 A 3.25 3.25 0 0 1 15.25 9.4199219 A 3.25 3.25 0 0 1 12 12.669922 A 3.25 3.25 0 0 1 8.75 9.4199219 A 3.25 3.25 0 0 1 12 6.1699219 z M 5 7 A 2 2 0 0 1 7 9 A 2 2 0 0 1 5 11 A 2 2 0 0 1 3 9 A 2 2 0 0 1 5 7 z M 21 7 A 1 1 0 0 1 22 8 A 1 1 0 0 1 21 9 A 1 1 0 0 1 20 8 A 1 1 0 0 1 21 7 z M 5 8 A 1 1 0 0 0 4 9 A 1 1 0 0 0 5 10 A 1 1 0 0 0 6 9 A 1 1 0 0 0 5 8 z M 18 9 A 1 1 0 0 1 19 10 A 1 1 0 0 1 18 11 A 1 1 0 0 1 17 10 A 1 1 0 0 1 18 9 z M 21 10 A 1 1 0 0 1 22 11 A 1 1 0 0 1 21 12 A 1 1 0 0 1 20 11 A 1 1 0 0 1 21 10 z M 18 12 A 2 2 0 0 1 20 14 A 2 2 0 0 1 18 16 A 2 2 0 0 1 16 14 A 2 2 0 0 1 18 12 z M 6.5 12.5 A 1.5 1.5 0 0 1 8 14 A 1.5 1.5 0 0 1 6.5 15.5 A 1.5 1.5 0 0 1 5 14 A 1.5 1.5 0 0 1 6.5 12.5 z M 18 13 A 1 1 0 0 0 17 14 A 1 1 0 0 0 18 15 A 1 1 0 0 0 19 14 A 1 1 0 0 0 18 13 z M 9.9746094 15.5 C 9.983155 15.49957 9.9913438 15.5 10 15.5 L 11 15.5 C 11.277 15.5 11.5 15.723 11.5 16 C 11.5 16.277 11.277 16.5 11 16.5 L 10 16.5 C 9.7230024 16.5 9.5 16.277 9.5 16 C 9.5 15.731657 9.7096967 15.513342 9.9746094 15.5 z M 12.974609 15.5 C 12.983155 15.49957 12.991344 15.5 13 15.5 L 14 15.5 C 14.277 15.5 14.5 15.723 14.5 16 C 14.5 16.277 14.277 16.5 14 16.5 L 13 16.5 C 12.723 16.5 12.5 16.277 12.5 16 C 12.5 15.731657 12.709701 15.513342 12.974609 15.5 z " />
  <path d="M 15.25,9.4200525 A 3.25,3.25 0 0 1 12,12.670053 3.25,3.25 0 0 1 8.75,9.4200525 a 3.25,3.25 0 0 1 3.25,-3.25 3.25,3.25 0 0 1 3.25,3.25 z" fill-opacity="0.75" />
</svg>
