<?xml version="1.0" encoding="UTF-8"?>
<svg height="24px" viewBox="0 0 24 24" width="24px" xmlns="http://www.w3.org/2000/svg">
  <path d="M 7.2871094,3.4257812 C 4.4224479,3.4947248 2.7861134,4.26197 2.0722656,6.0917969 1.1644036,8.4189448 0,15.732847 0,16.837891 0,18.254458 0.54351638,20 2.3027344,20 3.2477807,20 3.7504045,19.685198 4.8730469,17.412109 5.2460607,16.656861 5.7606541,15.117187 7,15.117188 l 5,-0.0039 5,0.0039 c 1.239349,0 1.753934,1.539673 2.126953,2.294921 C 20.249596,19.685198 20.75222,20 21.697266,20 23.456481,20 24,18.254458 24,16.837891 24,15.732847 22.835594,8.4189448 21.927734,6.0917969 21.21389,4.26197 19.57755,3.4947248 16.712891,3.4257812 l -0.904297,0.375 C 14.731004,3.7329599 13.798381,3.7226563 12,3.7226562 c -1.798381,0 -2.7310031,0.010304 -3.8085938,0.078125 z M 19,5 A 1,1 0 0 1 20,6 1,1 0 0 1 19,7 1,1 0 0 1 18,6 1,1 0 0 1 19,5 Z M 5.0253906,6 a 2,2 0 0 1 2,2 2,2 0 0 1 -2,2 2,2 0 0 1 -2,-2 2,2 0 0 1 2,-2 z m 0,1 a 1,1 0 0 0 -1,1 1,1 0 0 0 1,1 1,1 0 0 0 1,-1 1,1 0 0 0 -1,-1 z M 17.044922,7 a 1,1 0 0 1 1,1 1,1 0 0 1 -1,1 1,1 0 0 1 -1,-1 1,1 0 0 1 1,-1 z M 21,7 A 1,1 0 0 1 22,8 1,1 0 0 1 21,9 1,1 0 0 1 20,8 1,1 0 0 1 21,7 Z M 10.111328,7.5 c 0.0042,-4.252e-4 0.0093,0 0.01367,0 h 0.75 C 10.94425,7.5 11,7.5557502 11,7.625 v 0.75 C 11,8.4442498 10.94425,8.5 10.875,8.5 h -0.75 C 10.05575,8.5 10,8.4442498 10,8.375 V 7.625 C 10,7.5600783 10.048143,7.5063785 10.111328,7.5 Z M 13.5,7.5 A 0.5,0.5 0 0 1 14,8 0.5,0.5 0 0 1 13.5,8.5 0.5,0.5 0 0 1 13,8 0.5,0.5 0 0 1 13.5,7.5 Z M 19.044922,9 a 1,1 0 0 1 1,1 1,1 0 0 1 -1,1 1,1 0 0 1 -1,-1 1,1 0 0 1 1,-1 z M 16,10 a 2,2 0 0 1 2,2 2,2 0 0 1 -2,2 2,2 0 0 1 -2,-2 2,2 0 0 1 2,-2 z m -7.875,0.5 h 0.75 C 8.9442494,10.5 9,10.55575 9,10.625 V 11.5 H 9.875 C 9.944249,11.5 10,11.55575 10,11.625 v 0.75 C 10,12.44425 9.9442495,12.5 9.875,12.5 H 9 v 0.875 C 9,13.44425 8.9442494,13.5 8.875,13.5 H 8.125 C 8.0557506,13.5 8,13.44425 8,13.375 V 12.5 H 7.125 C 7.0557505,12.5 7,12.44425 7,12.375 v -0.75 C 7,11.55575 7.0557505,11.5 7.125,11.5 H 8 V 10.625 C 8,10.55575 8.0557506,10.5 8.125,10.5 Z M 16,11 a 1,1 0 0 0 -1,1 1,1 0 0 0 1,1 1,1 0 0 0 1,-1 1,1 0 0 0 -1,-1 z" />
</svg>
