<?xml version="1.0" encoding="UTF-8"?>
<!-- Taken from Gnome Highscore -->
<svg height="24px" viewBox="0 0 24 24" width="24px" xmlns="http://www.w3.org/2000/svg">
  <path d="m 3 5 c -1.105469 0 -1.792969 0.867188 -2 1.953125 c -0.773438 4.066406 -0.746094 6.097656 0.007812 10.09375 c 0.203126 1.085937 0.886719 1.953125 1.992188 1.953125 h 4 c 6 -0.007812 17 3.253906 17 -2 v -10 c 0 -1.105469 -0.894531 -2 -2 -2 z m 2.65625 1.285156 c 0.121094 0.066406 0.136719 0.210938 0.039062 0.304688 l -1.027343 1.023437 c -0.097657 0.097657 -0.253907 0.097657 -0.351563 0 l -1.027344 -1.023437 c -0.09375 -0.09375 -0.082031 -0.238282 0.039063 -0.304688 c 0.742187 -0.386718 1.613281 -0.375 2.328125 0 z m 5.265625 0.695313 c 2.140625 0.015625 5.214844 0.179687 7.125 0.714843 c 0.53125 0.148438 1.136719 0.710938 1.328125 1.230469 c 0.800781 2.160157 0.859375 3.882813 0.007812 6.148438 c -0.195312 0.519531 -0.816406 1.042969 -1.355468 1.164062 c -2.296875 0.527344 -5.648438 0.742188 -8.027344 0.761719 c -0.550781 0.007812 -1.15625 -0.417969 -1.320312 -0.945312 c -0.894532 -2.832032 -0.917969 -5.164063 0 -8.109376 c 0.164062 -0.523437 0.769531 -0.957031 1.320312 -0.964843 c 0.308594 0 0.617188 -0.003907 0.921875 0 z m -8.335937 0.320312 l 1.023437 1.019531 c 0.097656 0.097657 0.097656 0.257813 0 0.355469 l -1.023437 1.019531 c -0.09375 0.097657 -0.238282 0.085938 -0.300782 -0.039062 c -0.378906 -0.722656 -0.378906 -1.589844 0 -2.316406 c 0.0625 -0.121094 0.203125 -0.136719 0.300782 -0.039063 z m 4.113281 0.039063 c 0.382812 0.726562 0.382812 1.59375 0 2.316406 c -0.0625 0.125 -0.207031 0.136719 -0.304688 0.039062 l -1.019531 -1.019531 c -0.09375 -0.097656 -0.09375 -0.257812 0 -0.355469 l 1.019531 -1.019531 c 0.101563 -0.097656 0.242188 -0.085937 0.304688 0.039063 z m -2.03125 2.042968 l 1.019531 1.019532 c 0.097656 0.097656 0.085938 0.242187 -0.035156 0.304687 c -0.726563 0.378907 -1.59375 0.378907 -2.320313 0 c -0.121093 -0.0625 -0.132812 -0.207031 -0.039062 -0.304687 l 1.023437 -1.019532 c 0.097656 -0.097656 0.257813 -0.097656 0.351563 0 z m 1 3.902344 c 0.125 0.066406 0.136719 0.210938 0.039062 0.304688 l -1.023437 1.023437 c -0.097656 0.097657 -0.257813 0.097657 -0.355469 0 l -1.023437 -1.023437 c -0.097657 -0.09375 -0.082032 -0.238282 0.039062 -0.304688 c 0.714844 -0.375 1.589844 -0.386718 2.324219 0 z m -3.066407 1.015625 l 1.019532 1.019531 c 0.097656 0.097657 0.097656 0.257813 0 0.355469 l -1.019532 1.019531 c -0.09375 0.097657 -0.238281 0.085938 -0.304687 -0.039062 c -0.378906 -0.722656 -0.378906 -1.589844 0 -2.316406 c 0.066406 -0.125 0.210937 -0.132813 0.304687 -0.039063 z m 4.113282 0.039063 c 0.378906 0.726562 0.378906 1.59375 0 2.316406 c -0.0625 0.125 -0.207032 0.136719 -0.304688 0.039062 l -1.019531 -1.019531 c -0.097656 -0.097656 -0.097656 -0.257812 0 -0.355469 l 1.019531 -1.019531 c 0.105469 -0.101562 0.242188 -0.082031 0.304688 0.039063 z m 16 0 c 0.378906 0.726562 0.378906 1.59375 0 2.316406 c -0.0625 0.125 -0.207032 0.136719 -0.304688 0.039062 l -1.019531 -1.019531 c -0.097656 -0.097656 -0.097656 -0.257812 0 -0.355469 l 1.019531 -1.019531 c 0.101563 -0.097656 0.242188 -0.082031 0.304688 0.039063 z m -18.03125 2.042968 l 1.019531 1.019532 c 0.097656 0.097656 0.085937 0.242187 -0.039063 0.304687 c -0.722656 0.378907 -1.589843 0.378907 -2.316406 0 c -0.121094 -0.0625 -0.132812 -0.207031 -0.039062 -0.304687 l 1.019531 -1.019532 c 0.097656 -0.097656 0.257813 -0.097656 0.355469 0 z m 16 0 l 1.019531 1.019532 c 0.097656 0.097656 0.085937 0.242187 -0.039063 0.304687 c -0.722656 0.378907 -1.589843 0.378907 -2.316406 0 c -0.121094 -0.0625 -0.132812 -0.207031 -0.039062 -0.304687 l 1.019531 -1.019532 c 0.097656 -0.097656 0.257813 -0.097656 0.355469 0 z m 0 0"/>
</svg>
