<?xml version="1.0" encoding="UTF-8"?>
<!-- Taken from Gnome Highscore -->
<svg height="24px" viewBox="0 0 24 24" width="24px" xmlns="http://www.w3.org/2000/svg">
  <path d="m 17.5 6.074219 c -0.359375 -0.003907 -0.722656 0.03125 -0.992188 0.089843 c -1.054687 0.222657 -2.230468 0.699219 -4.011718 0.839844 c -0.546875 0.042969 -1.445313 0.046875 -1.996094 -0.003906 c -1.539062 -0.140625 -2.238281 -0.574219 -3.015625 -0.808594 c -0.527344 -0.15625 -1.433594 -0.121094 -1.972656 0.007813 c -3.636719 0.863281 -4.695313 4.667969 -5.347657 8.359375 c -0.0937495 0.542968 -0.179687 1.445312 -0.023437 1.972656 c 0.335937 1.140625 1.234375 2.039062 2.371094 2.375 c 0.53125 0.152344 1.414062 -0.007812 1.863281 -0.320312 c 1.109375 -0.769532 3.117188 -2.257813 6.625 -2.503907 c 0.550781 -0.039062 1.449219 -0.039062 2 0 c 3.503906 0.242188 5.519531 1.726563 6.625 2.5 c 0.449219 0.308594 1.332031 0.476563 1.859375 0.324219 c 1.140625 -0.335938 2.039063 -1.234375 2.375 -2.375 c 0.15625 -0.527344 0.0625 -1.425781 -0.066406 -1.964844 c -0.523438 -2.203125 -2.089844 -7.433594 -5.277344 -8.375 c -0.011719 -0.003906 -0.019531 -0.003906 -0.03125 -0.007812 c -0.261719 -0.074219 -0.621094 -0.109375 -0.984375 -0.109375 z m 2.5 1.925781 c 0.550781 0 1 0.449219 1 1 s -0.449219 1 -1 1 s -1 -0.449219 -1 -1 s 0.449219 -1 1 -1 z m -14.734375 1 h 1.46875 c 0.148437 0 0.265625 0.117188 0.265625 0.265625 v 1.734375 h 1.734375 c 0.148437 0 0.265625 0.117188 0.265625 0.265625 v 1.46875 c 0 0.148437 -0.117188 0.265625 -0.265625 0.265625 h -1.734375 v 1.734375 c 0 0.148437 -0.117188 0.265625 -0.265625 0.265625 h -1.46875 c -0.148437 0 -0.265625 -0.117188 -0.265625 -0.265625 v -1.734375 h -1.734375 c -0.148437 0 -0.265625 -0.117188 -0.265625 -0.265625 v -1.46875 c 0 -0.148437 0.117188 -0.265625 0.265625 -0.265625 h 1.734375 v -1.734375 c 0 -0.148437 0.117188 -0.265625 0.265625 -0.265625 z m 12.234375 0 c 0.550781 0 1 0.449219 1 1 s -0.449219 1 -1 1 s -1 -0.449219 -1 -1 s 0.449219 -1 1 -1 z m -2.5 1 c 0.550781 0 1 0.449219 1 1 s -0.449219 1 -1 1 s -1 -0.449219 -1 -1 s 0.449219 -1 1 -1 z m 6 1 c 0.550781 0 1 0.449219 1 1 s -0.449219 1 -1 1 s -1 -0.449219 -1 -1 s 0.449219 -1 1 -1 z m -2.5 1 c 0.550781 0 1 0.449219 1 1 s -0.449219 1 -1 1 s -1 -0.449219 -1 -1 s 0.449219 -1 1 -1 z m -2.5 1 c 0.550781 0 1 0.449219 1 1 s -0.449219 1 -1 1 s -1 -0.449219 -1 -1 s 0.449219 -1 1 -1 z m -4.050781 1 h 0.050781 c 0.554688 0 1 0.222656 1 0.5 s -0.445312 0.5 -1 0.5 s -1 -0.222656 -1 -0.5 c 0 -0.269531 0.417969 -0.488281 0.949219 -0.5 z m 0 0"/>
</svg>
