<?xml version="1.0" encoding="UTF-8" standalone="no"?>
<svg height="24px" viewBox="0 0 24 24" width="24px" xmlns="http://www.w3.org/2000/svg">
  <path d="M 12 2.6503906 C 9.2878053 2.6308352 8.1226215 3.0377072 6 3.5742188 C 4.000024 2.999806 2.8572172 3.9016484 2.4589844 5 C 0.6428888 5.5265742 -0.52048966 8.5441309 0.36132812 10.029297 C -0.45522945 20.622335 1.3194803 20.969635 2 21 C 4.6800939 21.119586 4.2071683 14.340439 4.4726562 14.173828 C 4.7685408 13.988141 5.9624163 18.943705 9.4023438 16.931641 C 13.045068 14.800955 9.9000668 11.908866 9.1699219 10.896484 C 8.8890251 10.507013 10.894384 10.416555 12 10.390625 C 13.105616 10.416555 15.110978 10.507013 14.830078 10.896484 C 14.099935 11.908866 10.954932 14.800955 14.597656 16.931641 C 18.037588 18.943705 19.231457 13.988141 19.527344 14.173828 C 19.792824 14.340439 19.31991 21.119586 22 21 C 22.680517 20.96964 24.455227 20.622335 23.638672 10.029297 C 24.520488 8.5441309 23.35711 5.5265742 21.541016 5 C 21.142779 3.9016484 19.999976 2.999806 18 3.5742188 C 15.877377 3.0377072 14.712191 2.6308352 12 2.6503906 z M 19.025391 5.3496094 C 19.238547 5.3409358 19.440351 5.4695395 19.515625 5.6816406 C 19.60827 5.9426881 19.473938 6.2276677 19.212891 6.3203125 L 18.269531 6.6542969 C 18.008484 6.7469417 17.723504 6.61261 17.630859 6.3515625 C 17.538215 6.090515 17.674499 5.8055354 17.935547 5.7128906 L 18.876953 5.3769531 C 18.9259 5.3595822 18.976201 5.351611 19.025391 5.3496094 z M 4.3203125 6.4472656 A 2 2 0 0 1 6.3203125 8.4472656 A 2 2 0 0 1 4.3203125 10.447266 A 2 2 0 0 1 2.3203125 8.4472656 A 2 2 0 0 1 4.3203125 6.4472656 z M 19.494141 7 A 1.5 1.5 0 0 1 20.994141 8.5 A 1.5 1.5 0 0 1 19.494141 10 A 1.5 1.5 0 0 1 17.994141 8.5 A 1.5 1.5 0 0 1 19.494141 7 z M 22.236328 7.03125 C 22.479453 7.0228531 22.697884 7.192721 22.744141 7.4394531 L 22.929688 8.421875 C 22.980728 8.6941312 22.801553 8.9548179 22.529297 9.0058594 C 22.25704 9.0569008 21.996354 8.877725 21.945312 8.6054688 L 21.761719 7.6230469 C 21.710677 7.3507906 21.887901 7.0901039 22.160156 7.0390625 C 22.18568 7.0342774 22.211177 7.0321186 22.236328 7.03125 z M 4.3203125 7.4472656 A 1 1 0 0 0 3.3203125 8.4472656 A 1 1 0 0 0 4.3203125 9.4472656 A 1 1 0 0 0 5.3203125 8.4472656 A 1 1 0 0 0 4.3203125 7.4472656 z M 12 8.3203125 A 0.5 0.5 0 0 1 12.5 8.8203125 A 0.5 0.5 0 0 1 12 9.3203125 A 0.5 0.5 0 0 1 11.5 8.8203125 A 0.5 0.5 0 0 1 12 8.3203125 z M 16.492188 9 A 1 1 0 0 1 17.492188 10 A 1 1 0 0 1 16.492188 11 A 1 1 0 0 1 15.492188 10 A 1 1 0 0 1 16.492188 9 z M 16.066406 12.191406 A 2 2 0 0 1 18.066406 14.191406 A 2 2 0 0 1 16.066406 16.191406 A 2 2 0 0 1 14.066406 14.191406 A 2 2 0 0 1 16.066406 12.191406 z M 7.4902344 12.623047 L 8.2402344 12.623047 C 8.3094838 12.623047 8.3652344 12.678797 8.3652344 12.748047 L 8.3652344 13.623047 L 9.2402344 13.623047 C 9.3094837 13.623047 9.3652344 13.678797 9.3652344 13.748047 L 9.3652344 14.498047 C 9.3652344 14.567297 9.3094837 14.623047 9.2402344 14.623047 L 8.3652344 14.623047 L 8.3652344 15.498047 C 8.3652344 15.567297 8.3094838 15.623047 8.2402344 15.623047 L 7.4902344 15.623047 C 7.4209844 15.623047 7.3652344 15.567297 7.3652344 15.498047 L 7.3652344 14.623047 L 6.4902344 14.623047 C 6.4209844 14.623047 6.3652344 14.567297 6.3652344 14.498047 L 6.3652344 13.748047 C 6.3652344 13.678797 6.4209844 13.623047 6.4902344 13.623047 L 7.3652344 13.623047 L 7.3652344 12.748047 C 7.3652344 12.678797 7.4209844 12.623047 7.4902344 12.623047 z M 16.066406 13.191406 A 1 1 0 0 0 15.066406 14.191406 A 1 1 0 0 0 16.066406 15.191406 A 1 1 0 0 0 17.066406 14.191406 A 1 1 0 0 0 16.066406 13.191406 z " />
</svg>
