<?xml version="1.0" encoding="UTF-8"?>
<!-- Taken from Gnome Highscore -->
<svg height="24px" viewBox="0 0 24 24" width="24px" xmlns="http://www.w3.org/2000/svg">
  <path d="m 15 7.066406 v 0.433594 c 0 0.550781 0.015625 1.457031 -0.140625 1.984375 c -0.335937 1.140625 -1.234375 2.039063 -2.375 2.375 c -0.527344 0.15625 -1.441406 0.15625 -1.972656 0 c -1.136719 -0.335937 -2.035157 -1.234375 -2.371094 -2.375 c -0.15625 -0.527344 -0.140625 -1.433594 -0.140625 -1.984375 v -0.390625 c -2.324219 0.128906 -4.664062 0.367187 -7.015625 0.730469 c -0.542969 0.085937 -0.984375 0.609375 -0.984375 1.160156 v 7 c 0 0.550781 0.449219 1 1 1 h 22 c 0.550781 0 1 -0.449219 1 -1 v -7 c 0 -0.550781 -0.441406 -1.074219 -0.988281 -1.15625 c -2.65625 -0.402344 -5.324219 -0.664062 -8.011719 -0.777344 z m -11 2.933594 c 0.339844 0 0.679688 0.058594 1 0.171875 v 1.828125 h 1.824219 c 0.117187 0.320312 0.175781 0.660156 0.175781 1 c -0.007812 0.34375 -0.074219 0.679688 -0.195312 1 h -1.804688 v 1.804688 c -0.320312 0.121093 -0.65625 0.1875 -1 0.195312 c -0.34375 -0.007812 -0.679688 -0.074219 -1 -0.195312 v -1.804688 h -1.808594 c -0.117187 -0.320312 -0.183594 -0.65625 -0.191406 -1 c 0.007812 -0.34375 0.074219 -0.679688 0.191406 -1 h 1.808594 v -1.808594 c 0.320312 -0.117187 0.65625 -0.183594 1 -0.191406 z m 13.5 3 c 0.828125 0 1.5 0.671875 1.5 1.5 s -0.671875 1.5 -1.5 1.5 s -1.5 -0.671875 -1.5 -1.5 s 0.671875 -1.5 1.5 -1.5 z m 4 0 c 0.828125 0 1.5 0.671875 1.5 1.5 s -0.671875 1.5 -1.5 1.5 s -1.5 -0.671875 -1.5 -1.5 s 0.671875 -1.5 1.5 -1.5 z m -12.027344 1 h 0.027344 h 1 c 0.277344 0 0.5 0.222656 0.5 0.5 s -0.222656 0.5 -0.5 0.5 h -1 c -0.277344 0 -0.5 -0.222656 -0.5 -0.5 c 0 -0.269531 0.210938 -0.488281 0.472656 -0.5 z m 3 0 h 0.027344 h 1 c 0.277344 0 0.5 0.222656 0.5 0.5 s -0.222656 0.5 -0.5 0.5 h -1 c -0.277344 0 -0.5 -0.222656 -0.5 -0.5 c 0 -0.269531 0.210938 -0.488281 0.472656 -0.5 z m 0 0"/>
  <path d="m 8 6.5 v 1.5 c 0 0.277344 -0.003906 0.726562 0.035156 1 c 0.21875 1.53125 1.433594 2.746094 2.964844 2.964844 c 0.273438 0.039062 0.726562 0.039062 1 0 c 1.53125 -0.21875 2.746094 -1.433594 2.964844 -2.964844 c 0.039062 -0.273438 0.035156 -0.722656 0.035156 -1 v -1.5 c 0 -0.277344 -0.214844 -0.566406 -0.480469 -0.640625 c -2.039062 -0.542969 -4.050781 -0.492187 -6.035156 0.011719 c -0.269531 0.066406 -0.484375 0.351562 -0.484375 0.628906 z m 0 0" fill-opacity="0.74902"/>
</svg>
