<?xml version="1.0" encoding="UTF-8"?>
<svg height="24px" viewBox="0 0 24 24" width="24px" xmlns="http://www.w3.org/2000/svg">
  <path d="M 12 4.9980469 C 3.3720906 4.9980469 -0.26851796 14.941049 0 18.164062 C 0.21173017 20.705462 1.906992 20.127369 3 19.09375 L 5.3105469 16.910156 C 7.1314082 15.188235 10.041765 15 12 15 L 12 15.001953 C 13.958235 15.001953 16.868593 15.190188 18.689453 16.912109 L 21 19.095703 C 22.093009 20.129322 23.788268 20.707408 24 18.166016 C 24.26852 14.942995 20.627907 5 12 5 L 12 4.9980469 z M 12 8 A 2 2 0 0 1 14 10 A 2 2 0 0 1 12 12 A 2 2 0 0 1 10 10 A 2 2 0 0 1 12 8 z M 18 8 A 1 1 0 0 1 19 9 A 1 1 0 0 1 18 10 A 1 1 0 0 1 17 9 A 1 1 0 0 1 18 8 z M 5.5 9 L 6.5 9 C 6.7769991 9 7 9.2230009 7 9.5 L 7 11 L 8.5 11 C 8.7769994 11 9 11.223 9 11.5 L 9 12.5 C 9 12.777 8.7769994 13 8.5 13 L 7 13 L 7 14.5 C 7 14.777 6.7769991 15 6.5 15 L 5.5 15 C 5.2230009 15 5 14.777 5 14.5 L 5 13 L 3.5 13 C 3.2230006 13 3 12.777 3 12.5 L 3 11.5 C 3 11.223 3.2230006 11 3.5 11 L 5 11 L 5 9.5 C 5 9.2230009 5.2230009 9 5.5 9 z M 16 10 A 1 1 0 0 1 17 11 A 1 1 0 0 1 16 12 A 1 1 0 0 1 15 11 A 1 1 0 0 1 16 10 z M 19 11 A 1 1 0 0 1 20 12 A 1 1 0 0 1 19 13 A 1 1 0 0 1 18 12 A 1 1 0 0 1 19 11 z M 17 13 A 1 1 0 0 1 18 14 A 1 1 0 0 1 17 15 A 1 1 0 0 1 16 14 A 1 1 0 0 1 17 13 z " />
  <path d="m 13,10 a 1,1 0 0 1 -1,1 1,1 0 0 1 -1,-1 1,1 0 0 1 1,-1 1,1 0 0 1 1,1 z" fill-opacity="0.75" />
</svg>
