<?xml version="1.0" encoding="UTF-8" standalone="no"?>
<!-- Adapted from Gnome Highscore -->
<svg height="24px" viewBox="0 0 24 24" width="24px" xmlns="http://www.w3.org/2000/svg">
  <path d="M 4.7441406 5.0019531 C 4.2828701 5.0014581 3.7558624 5.1430322 3.1835938 5.5546875 L 3.1835938 5.7832031 L 2.9472656 5.8789062 C 1.9102083 7.3229111 1.7988182 7.9726796 1.5175781 8.6796875 C 1.3022111 9.2222472 0.067098254 13.320034 0.12109375 16.507812 C 0.058595602 17.058594 -0.0078057491 17.972689 0.203125 18.476562 C 0.45702275 19.074219 0.933614 19.550781 1.53125 19.804688 C 2.0390456 20.019498 2.9765785 20.01559 3.4804688 19.800781 C 3.6757744 19.718751 3.863288 19.609375 4.03125 19.476562 C 4.4648308 19.140658 4.6835937 18.726562 4.6835938 18.726562 L 6.7460938 15.0625 C 7.1565977 15.936822 8.0340972 16.49649 9 16.5 C 9.9861332 16.491401 10.875109 15.903856 11.269531 15 L 11.992188 15 L 12 15 L 12.722656 15 C 13.117093 15.903856 14.00604 16.491401 14.992188 16.5 C 15.958091 16.4965 16.835576 15.936829 17.246094 15.0625 L 19.308594 18.726562 C 19.308594 18.726562 19.527351 19.140658 19.960938 19.476562 C 20.128888 19.609375 20.31641 19.718751 20.511719 19.800781 C 21.015602 20.015597 21.953135 20.019505 22.460938 19.804688 C 23.058569 19.550781 23.535176 19.074219 23.789062 18.476562 C 23.999994 17.972689 23.933596 17.058594 23.871094 16.507812 C 23.925094 13.320034 22.689979 9.2222472 22.474609 8.6796875 C 22.19338 7.9726796 22.08198 7.3229111 21.044922 5.8789062 L 20.808594 5.7832031 L 20.808594 5.5546875 C 19.500546 4.6137609 18.431136 5.0814377 17.833984 5.4394531 L 17.820312 5.7363281 C 17.621301 5.6427528 17.606512 6 16.492188 6 L 15 6 L 15 7 L 15 8 L 15 9 C 15 9.5539982 14.553997 10 14 10 L 10 10 C 9.4460018 10 9 9.5539982 9 9 L 9 8 L 9 7 L 9 6 L 7.5 6 C 6.3856632 6 6.370896 5.6427528 6.171875 5.7363281 L 6.1582031 5.4394531 C 5.8223113 5.2380691 5.3372033 5.0025896 4.7441406 5.0019531 z M 4.2578125 7 L 5.7578125 7 C 5.8945304 7 6.0078125 7.1132821 6.0078125 7.25 L 6.0078125 8.015625 C 6.0078125 8.1757788 5.9453114 8.3320334 5.8320312 8.4414062 L 5.1835938 9.0898438 C 5.0859378 9.1874987 4.9296869 9.1874987 4.828125 9.0898438 L 4.5390625 8.796875 L 4.1835938 8.4414062 C 4.0703129 8.3281274 4.0078125 8.1757788 4.0078125 8.015625 L 4.0078125 7.25 C 4.0078125 7.1132821 4.1210956 7 4.2578125 7 z M 19.007812 7 C 19.558594 7 20.007812 7.4492268 20.007812 8 C 20.007812 8.5546802 19.558594 9 19.007812 9 C 18.457044 9 18.007812 8.5546802 18.007812 8 C 18.007812 7.4492268 18.457044 7 19.007812 7 z M 2.2578125 9 L 3.046875 9 C 3.210935 9 3.363283 9.0664092 3.4765625 9.1757812 L 3.4765625 9.1796875 C 3.593749 9.2968626 3.7148472 9.4140635 3.8320312 9.53125 L 4.1210938 9.8242188 C 4.2226528 9.9218727 4.2226528 10.082031 4.1210938 10.179688 L 3.4765625 10.824219 C 3.36719 10.9375 3.2109367 11 3.0507812 11 L 2.2578125 11 C 2.121096 11 2.0078125 10.890625 2.0078125 10.75 L 2.0078125 9.25 C 2.0078125 9.1132825 2.121096 9 2.2578125 9 z M 6.9355469 9 C 6.9455169 8.999486 6.9548338 9 6.9648438 9 L 7.7578125 9 C 7.8945298 9 8.0078125 9.1132827 8.0078125 9.25 L 8.0078125 10.75 C 8.0078125 10.890625 7.8945298 11 7.7578125 11 L 6.9648438 11 C 6.8046895 11.003906 6.6523428 10.9375 6.5390625 10.824219 C 6.4218772 10.707031 6.3007774 10.589844 6.1835938 10.472656 L 5.890625 10.179688 C 5.7968771 10.082028 5.7968771 9.9218731 5.890625 9.8242188 L 6.5351562 9.1796875 C 6.6413564 9.0734873 6.7860032 9.0077104 6.9355469 9 z M 17.007812 9 C 17.558594 9 18.007812 9.4492304 18.007812 10 C 18.007812 10.554669 17.558594 11 17.007812 11 C 16.45705 11 16.007812 10.554669 16.007812 10 C 16.007812 9.4492304 16.45705 9 17.007812 9 z M 21.007812 9 C 21.558594 9 22.007812 9.4492316 22.007812 10 C 22.007812 10.554667 21.558594 11 21.007812 11 C 20.457052 11 20.007812 10.554667 20.007812 10 C 20.007812 9.4492316 20.457052 9 21.007812 9 z M 5.0078125 10.785156 C 5.0742174 10.785156 5.1367188 10.812495 5.1835938 10.859375 L 5.4765625 11.148438 C 5.5937482 11.269508 5.7109403 11.386719 5.828125 11.503906 L 5.8320312 11.503906 C 5.9453099 11.621094 6.0078125 11.773438 6.0078125 11.933594 L 6.0078125 12.75 C 6.0078125 12.890625 5.8945292 13 5.7578125 13 L 4.2578125 13 C 4.1210968 13 4.0078125 12.890625 4.0078125 12.75 L 4.0078125 11.929688 C 4.0078125 11.773438 4.0703136 11.617188 4.1835938 11.503906 L 4.5390625 11.152344 L 4.8320312 10.859375 C 4.8789062 10.812505 4.9414088 10.785156 5.0078125 10.785156 z M 19.007812 11 C 19.558594 11 20.007812 11.449245 20.007812 12 C 20.007812 12.554662 19.558594 13 19.007812 13 C 18.457057 13 18.007812 12.554662 18.007812 12 C 18.007812 11.449245 18.457057 11 19.007812 11 z M 9 12.25 A 1.75 1.75 0 0 1 10.75 14 A 1.75 1.75 0 0 1 9 15.75 A 1.75 1.75 0 0 1 7.25 14 A 1.75 1.75 0 0 1 9 12.25 z M 15 12.25 A 1.75 1.75 0 0 1 16.75 14 A 1.75 1.75 0 0 1 15 15.75 A 1.75 1.75 0 0 1 13.25 14 A 1.75 1.75 0 0 1 15 12.25 z M 12 12.5 A 0.5 0.5 0 0 1 12.5 13 A 0.5 0.5 0 0 1 12 13.5 A 0.5 0.5 0 0 1 11.5 13 A 0.5 0.5 0 0 1 12 12.5 z M 9 13 A 1 1 0 0 0 8 14 A 1 1 0 0 0 9 15 A 1 1 0 0 0 10 14 A 1 1 0 0 0 9 13 z M 15 13 A 1 1 0 0 0 14 14 A 1 1 0 0 0 15 15 A 1 1 0 0 0 16 14 A 1 1 0 0 0 15 13 z " />
  <path d="m 9,6 v 1 1 1 c 0,0.5539994 0.4460006,1 1,1 h 4 c 0.553999,0 1,-0.4460006 1,-1 V 8 7 6 h -1 -4 z" fill-opacity="0.5" />
</svg>
