<?xml version="1.0" encoding="UTF-8"?>
<!-- Adapted from Gnome Highscore -->
<svg height="24px" viewBox="0 0 24 24" width="24px" xmlns="http://www.w3.org/2000/svg">
  <path d="M 5.0078125 4.0078125 C 4.8281287 4.0078125 4.6484369 4.0195328 4.5078125 4.0351562 C 4.1171949 4.0859382 3.7343686 4.1914074 3.375 4.3554688 C 3.1250032 4.4687466 2.9062482 4.808599 2.8710938 5.0820312 L 2.6601562 6.7695312 C 2.0586054 7.2109318 1.5781202 7.8086052 1.296875 8.515625 C 1.0937532 9.027336 1.0429687 9.4804688 1.0429688 9.4804688 C 0.64844324 12.484327 0.36718375 14.500048 0.12109375 16.507812 C 0.058594546 17.058594 -0.0078091256 17.972672 0.203125 18.476562 C 0.457027 19.074219 0.9336036 19.550781 1.53125 19.804688 C 2.039054 20.019515 2.9765698 20.015618 3.4804688 19.800781 C 3.6757776 19.718751 3.8632842 19.609375 4.03125 19.476562 C 4.4648376 19.140641 4.6835937 18.726562 4.6835938 18.726562 L 6.7460938 15.0625 A 2.5 2.5 0 0 0 9 16.5 A 2.5 2.5 0 0 0 11.5 14 L 12.5 14 A 2.5 2.5 0 0 0 15 16.5 A 2.5 2.5 0 0 0 17.261719 15.046875 L 18.851562 17.855469 C 19.125 18.339828 19.558594 19.144531 19.992188 19.480469 C 20.16014 19.609375 20.343766 19.71875 20.539062 19.800781 C 21.042969 20.015625 21.980485 20.019522 22.484375 19.804688 C 23.082015 19.550781 23.558594 19.074219 23.808594 18.476562 C 24.023438 17.972672 23.960926 17.054688 23.898438 16.507812 C 23.667973 14.492243 23.37889 12.480437 23.105469 10.46875 C 23.03125 9.921883 22.925781 9.027336 22.722656 8.515625 C 22.437516 7.8086052 21.957015 7.2070248 21.355469 6.7695312 L 21.144531 5.0742188 C 21.109375 4.800784 20.890609 4.4609366 20.636719 4.3476562 C 20.277344 4.1875034 19.894531 4.0820294 19.507812 4.03125 C 19.367204 4.015625 19.1875 4.0078125 19.007812 4.0078125 C 18.828141 4.0078125 18.648438 4.015622 18.511719 4.03125 L 18.511719 4.0351562 C 18.117188 4.0859342 17.734375 4.1914074 17.375 4.3554688 C 17.125 4.4687466 16.90625 4.808599 16.871094 5.0820312 L 16.671875 6.6796875 C 16.246094 6.8554653 15.765609 7 15.386719 7 L 8.6484375 7 C 8.2656309 7 7.7734298 6.8515588 7.3398438 6.671875 L 7.140625 5.0742188 C 7.109375 4.800784 6.89062 4.4609366 6.6367188 4.3476562 C 6.2773486 4.1875034 5.8945264 4.0820294 5.5039062 4.03125 C 5.3671914 4.015625 5.1874973 4.0078125 5.0078125 4.0078125 z M 4.2578125 7 L 5.7578125 7 C 5.8945309 7 6.0078125 7.1132816 6.0078125 7.25 L 6.0078125 8.015625 C 6.0078125 8.1757798 5.9453116 8.3320324 5.8320312 8.4414062 L 5.1835938 9.0898438 C 5.0859378 9.1874992 4.9296874 9.1874992 4.828125 9.0898438 L 4.5390625 8.796875 L 4.1835938 8.4414062 C 4.0703124 8.3281264 4.0078125 8.1757798 4.0078125 8.015625 L 4.0078125 7.25 C 4.0078125 7.1132816 4.1210951 7 4.2578125 7 z M 19.007812 7 C 19.558594 7 20.007812 7.4492232 20.007812 8 C 20.007812 8.5546838 19.558594 9 19.007812 9 C 18.457038 9 18.007812 8.5546838 18.007812 8 C 18.007812 7.4492232 18.457038 7 19.007812 7 z M 2.2578125 9 L 3.046875 9 C 3.2109364 9 3.3632823 9.0664078 3.4765625 9.1757812 L 3.4765625 9.1796875 C 3.5937497 9.2968707 3.7148458 9.4140628 3.8320312 9.53125 L 4.1210938 9.8242188 C 4.2226542 9.921874 4.2226542 10.082031 4.1210938 10.179688 L 3.4765625 10.824219 C 3.3671893 10.9375 3.2109374 11 3.0507812 11 L 2.2578125 11 C 2.1210953 11 2.0078125 10.890625 2.0078125 10.75 L 2.0078125 9.25 C 2.0078125 9.1132818 2.1210953 9 2.2578125 9 z M 6.9355469 9 C 6.9455166 8.999486 6.954834 9 6.9648438 9 L 7.7578125 9 C 7.8945306 9 8.0078125 9.1132819 8.0078125 9.25 L 8.0078125 10.75 C 8.0078125 10.890625 7.8945306 11 7.7578125 11 L 6.9648438 11 C 6.8046887 11.003906 6.6523436 10.9375 6.5390625 10.824219 C 6.4218764 10.707031 6.300779 10.589844 6.1835938 10.472656 L 5.890625 10.179688 C 5.7968759 10.082028 5.7968759 9.9218739 5.890625 9.8242188 L 6.5351562 9.1796875 C 6.6413572 9.0734865 6.7860024 9.0077104 6.9355469 9 z M 17.007812 9 C 17.558594 9 18.007812 9.449225 18.007812 10 C 18.007812 10.554678 17.558594 11 17.007812 11 C 16.457041 11 16.007812 10.554678 16.007812 10 C 16.007812 9.449225 16.457041 9 17.007812 9 z M 21.007812 9 C 21.558594 9 22.007812 9.4492256 22.007812 10 C 22.007812 10.554677 21.558594 11 21.007812 11 C 20.457042 11 20.007812 10.554677 20.007812 10 C 20.007812 9.4492256 20.457042 9 21.007812 9 z M 9.2558594 9.5 L 10.755859 9.5 C 10.892578 9.5 11.005859 9.6132823 11.005859 9.75 L 11.005859 10.25 C 11.005859 10.390625 10.892578 10.5 10.755859 10.5 L 9.2558594 10.5 C 9.1191427 10.5 9.0058594 10.390625 9.0058594 10.25 L 9.0058594 9.75 C 9.0058594 9.6132823 9.1191427 9.5 9.2558594 9.5 z M 13.197266 9.5039062 C 13.212896 9.5039062 13.232427 9.5078188 13.248047 9.5117188 L 14.962891 9.9414062 C 15.025391 9.9570362 15.025391 10.046875 14.962891 10.0625 L 13.248047 10.507812 C 13.123047 10.535152 13.005859 10.441402 13.005859 10.316406 L 13.005859 9.6992188 C 13.005859 9.5937513 13.091799 9.5078122 13.197266 9.5039062 z M 5.0078125 10.785156 C 5.0742183 10.785156 5.1367188 10.812495 5.1835938 10.859375 L 5.4765625 11.148438 C 5.5937493 11.269519 5.7109392 11.386719 5.828125 11.503906 L 5.8320312 11.503906 C 5.945311 11.621094 6.0078125 11.773438 6.0078125 11.933594 L 6.0078125 12.75 C 6.0078125 12.890625 5.8945303 13 5.7578125 13 L 4.2578125 13 C 4.1210957 13 4.0078125 12.890625 4.0078125 12.75 L 4.0078125 11.929688 C 4.0078125 11.773438 4.070313 11.617188 4.1835938 11.503906 L 4.5390625 11.152344 L 4.8320312 10.859375 C 4.8789062 10.812505 4.9414077 10.785156 5.0078125 10.785156 z M 12 10.986328 A 1 1 0 0 1 13 11.986328 A 1 1 0 0 1 12 12.986328 A 1 1 0 0 1 11 11.986328 A 1 1 0 0 1 12 10.986328 z M 19.007812 11 C 19.558594 11 20.007812 11.449233 20.007812 12 C 20.007812 12.554674 19.558594 13 19.007812 13 C 18.457045 13 18.007812 12.554674 18.007812 12 C 18.007812 11.449233 18.457045 11 19.007812 11 z M 9 12.25 A 1.75 1.75 0 0 1 10.75 14 A 1.75 1.75 0 0 1 9 15.75 A 1.75 1.75 0 0 1 7.25 14 A 1.75 1.75 0 0 1 9 12.25 z M 15 12.25 A 1.75 1.75 0 0 1 16.75 14 A 1.75 1.75 0 0 1 15 15.75 A 1.75 1.75 0 0 1 13.25 14 A 1.75 1.75 0 0 1 15 12.25 z M 9 13 A 1 1 0 0 0 8 14 A 1 1 0 0 0 9 15 A 1 1 0 0 0 10 14 A 1 1 0 0 0 9 13 z M 15 13 A 1 1 0 0 0 14 14 A 1 1 0 0 0 15 15 A 1 1 0 0 0 16 14 A 1 1 0 0 0 15 13 z " />
</svg>
