<?xml version="1.0" encoding="UTF-8"?>
<svg height="24px" viewBox="0 0 24 24" width="24px" xmlns="http://www.w3.org/2000/svg">
  <path d="M 10 1 C 9.4460054 1 9 1.4460054 9 2 L 9 22 C 9 22.553991 9.4460054 23 10 23 L 14 23 C 14.553991 23 15 22.553991 15 22 L 15 2 C 15 1.4460054 14.553991 1 14 1 L 10 1 z M 10 1.5 A 0.5 0.5 0 0 1 10.5 2 A 0.5 0.5 0 0 1 10 2.5 A 0.5 0.5 0 0 1 9.5 2 A 0.5 0.5 0 0 1 10 1.5 z M 11.625 3 L 12.375 3 C 12.44425 3 12.5 3.0557509 12.5 3.125 L 12.5 4 L 13.375 4 C 13.44425 4 13.5 4.0557508 13.5 4.125 L 13.5 4.875 C 13.5 4.9442492 13.44425 5 13.375 5 L 12.5 5 L 12.5 5.875 C 12.5 5.9442491 12.44425 6 12.375 6 L 11.625 6 C 11.55575 6 11.5 5.9442491 11.5 5.875 L 11.5 5 L 10.625 5 C 10.55575 5 10.5 4.9442492 10.5 4.875 L 10.5 4.125 C 10.5 4.0557508 10.55575 4 10.625 4 L 11.5 4 L 11.5 3.125 C 11.5 3.0557509 11.55575 3 11.625 3 z M 12 7 A 1 1 0 0 1 13 8 A 1 1 0 0 1 12 9 A 1 1 0 0 1 11 8 A 1 1 0 0 1 12 7 z M 10.5 11 A 0.5 0.5 0 0 1 11 11.5 A 0.5 0.5 0 0 1 10.5 12 A 0.5 0.5 0 0 1 10 11.5 A 0.5 0.5 0 0 1 10.5 11 z M 12 11 A 0.5 0.5 0 0 1 12.5 11.5 A 0.5 0.5 0 0 1 12 12 A 0.5 0.5 0 0 1 11.5 11.5 A 0.5 0.5 0 0 1 12 11 z M 13.5 11 A 0.5 0.5 0 0 1 14 11.5 A 0.5 0.5 0 0 1 13.5 12 A 0.5 0.5 0 0 1 13 11.5 A 0.5 0.5 0 0 1 13.5 11 z M 12 17 A 0.5 0.5 0 0 1 12.5 17.5 A 0.5 0.5 0 0 1 12 18 A 0.5 0.5 0 0 1 11.5 17.5 A 0.5 0.5 0 0 1 12 17 z M 12 19 A 0.5 0.5 0 0 1 12.5 19.5 A 0.5 0.5 0 0 1 12 20 A 0.5 0.5 0 0 1 11.5 19.5 A 0.5 0.5 0 0 1 12 19 z " />
</svg>
