<?xml version="1.0" encoding="UTF-8"?>
<!-- Taken from Gnome Highscore -->
<svg height="24px" viewBox="0 0 24 24" width="24px" xmlns="http://www.w3.org/2000/svg">
  <path d="m 5.5 0 c -0.277344 0 -0.5 0.222656 -0.5 0.5 v 7 c 0 0.277344 0.222656 0.5 0.5 0.5 h 0.5 v 15 c 0 0.554688 0.445312 1 1 1 h 9 c 0.554688 0 1 -0.445312 1 -1 v -15 h 0.5 c 0.277344 0 0.5 -0.222656 0.5 -0.5 v -7 c 0 -0.277344 -0.222656 -0.5 -0.5 -0.5 z m 1.5 1 h 9 v 2 h -9 z m 4.5 4 c 0.59375 0 1.148438 0.148438 1.617188 0.460938 s 0.882812 0.859374 0.882812 1.539062 v 2 c 0 0.679688 -0.414062 1.226562 -0.882812 1.539062 c -0.023438 0.015626 -0.046876 0.027344 -0.070313 0.042969 c 0.570313 0.472657 0.953125 1.175781 0.953125 1.917969 c 0 1.308594 -1.191406 2.5 -2.5 2.5 s -2.5 -1.191406 -2.5 -2.5 c 0 -0.742188 0.382812 -1.445312 0.953125 -1.917969 c -0.023437 -0.015625 -0.046875 -0.027343 -0.070313 -0.042969 c -0.46875 -0.3125 -0.882812 -0.859374 -0.882812 -1.539062 v -2 c 0 -0.679688 0.414062 -1.226562 0.882812 -1.539062 s 1.023438 -0.460938 1.617188 -0.460938 z m 0 0"/>
  <path d="m 13 12.5 c 0 0.828125 -0.671875 1.5 -1.5 1.5 s -1.5 -0.671875 -1.5 -1.5 s 0.671875 -1.5 1.5 -1.5 s 1.5 0.671875 1.5 1.5 z m 0 0" fill-opacity="0.501961"/>
  <path d="m 11.5 8 c 0.277344 0 0.5 0.222656 0.5 0.5 v 4 c 0 0.277344 -0.222656 0.5 -0.5 0.5 s -0.5 -0.222656 -0.5 -0.5 v -4 c 0 -0.277344 0.222656 -0.5 0.5 -0.5 z m 0 0"/>
  <path d="m 11.5 6 c 0.828125 0 1.5 0.449219 1.5 1 v 2 c 0 0.550781 -0.671875 1 -1.5 1 s -1.5 -0.449219 -1.5 -1 v -2 c 0 -0.550781 0.671875 -1 1.5 -1 z m 0 0"/>
  <path d="m 7 1 h 9 v 2 h -9 z m 0 0" fill-opacity="0.501961"/>
</svg>
