<?xml version="1.0" encoding="UTF-8"?>
<!-- Taken from Gnome Highscore -->
<svg height="24px" viewBox="0 0 24 24" width="24px" xmlns="http://www.w3.org/2000/svg">
  <path d="m 11.992188 5.007812 c -0.316407 0 -0.636719 0.007813 -1 0.011719 c -5.527344 0.238281 -9.988282 2.429688 -10.84375 5.246094 c -0.1406255 0.351563 -0.148438 0.632813 -0.148438 1.089844 c 0 5.644531 3.558594 7.84375 5.175781 7.628906 c 0.53125 -0.074219 1.082031 -0.847656 1.429688 -1.277344 c 0.875 -1.082031 2.371093 -2.347656 4.398437 -2.675781 c 0.273438 -0.042969 0.632813 -0.066406 0.996094 -0.066406 s 0.722656 0.023437 0.996094 0.066406 c 2.027344 0.328125 3.523437 1.59375 4.398437 2.675781 c 0.347657 0.429688 0.898438 1.203125 1.425781 1.277344 c 1.621094 0.214844 5.179688 -1.984375 5.179688 -7.628906 c 0 -0.457031 -0.007812 -0.738281 -0.148438 -1.089844 c -0.855468 -2.816406 -5.316406 -5.007813 -10.84375 -5.246094 c -0.371093 -0.007812 -0.695312 -0.011719 -1.015624 -0.011719 z m -6.726563 2.992188 h 1.46875 c 0.148437 0 0.265625 0.117188 0.265625 0.265625 v 1.734375 h 1.734375 c 0.148437 0 0.265625 0.117188 0.265625 0.265625 v 1.46875 c 0 0.148437 -0.117188 0.265625 -0.265625 0.265625 h -1.734375 v 1.734375 c 0 0.148437 -0.117188 0.265625 -0.265625 0.265625 h -1.46875 c -0.148437 0 -0.265625 -0.117188 -0.265625 -0.265625 v -1.734375 h -1.734375 c -0.148437 0 -0.265625 -0.117188 -0.265625 -0.265625 v -1.46875 c 0 -0.148437 0.117188 -0.265625 0.265625 -0.265625 h 1.734375 v -1.734375 c 0 -0.148437 0.117188 -0.265625 0.265625 -0.265625 z m 12.257813 0.003906 c 0.191406 0.007813 0.378906 0.121094 0.449218 0.339844 c 0.089844 0.261719 -0.050781 0.542969 -0.316406 0.632812 l -1.898438 0.632813 c -0.261718 0.085937 -0.546874 -0.054687 -0.632812 -0.316406 c -0.085938 -0.265625 0.054688 -0.546875 0.316406 -0.632813 l 1.898438 -0.632812 c 0.058594 -0.023438 0.121094 -0.027344 0.183594 -0.023438 z m 3.476562 1.996094 c 0.550781 0 1 0.449219 1 1 s -0.449219 1 -1 1 s -1 -0.449219 -1 -1 s 0.449219 -1 1 -1 z m -3 1 c 0.550781 0 1 0.449219 1 1 s -0.449219 1 -1 1 s -1 -0.449219 -1 -1 s 0.449219 -1 1 -1 z m -3 1 c 0.550781 0 1 0.449219 1 1 s -0.449219 1 -1 1 s -1 -0.449219 -1 -1 s 0.449219 -1 1 -1 z m 0 0"/>
</svg>
