<?xml version="1.0" encoding="UTF-8"?>
<!-- Taken from Gnome Highscore -->
<svg height="24px" viewBox="0 0 24 24" width="24px" xmlns="http://www.w3.org/2000/svg">
  <path d="m 11.5 2 c -1.378906 0 -1.867188 0.464844 -2 1 l -0.5 2 c -0.132812 0.535156 1.121094 1 2.5 1 s 2.632812 -0.464844 2.5 -1 l -0.5 -2 c -0.132812 -0.535156 -0.621094 -1 -2 -1 z m 0 0"/>
  <path d="m 11.5 3 c 0.277344 0 0.5 0.222656 0.5 0.5 v 6 c 0 0.277344 -0.222656 0.5 -0.5 0.5 s -0.5 -0.222656 -0.5 -0.5 v -6 c 0 -0.277344 0.222656 -0.5 0.5 -0.5 z m 0 0"/>
  <path d="m 7 0 c -0.578125 0 -1.070312 0.417969 -1.164062 0.984375 l -0.003907 0.015625 h -0.425781 v 0.007812 c -0.023438 -0.003906 -0.046875 -0.007812 -0.074219 -0.007812 c -0.246093 0 -0.460937 0.183594 -0.496093 0.429688 l -0.496094 2.988281 c -0.003906 0.027343 -0.007813 0.054687 -0.007813 0.082031 c 0 0.277344 0.226563 0.5 0.5 0.5 h 0.332031 v 0.015625 c -0.109374 0.652344 -0.144531 1.320313 -0.109374 1.984375 l 0.890624 16.003906 c 0.03125 0.558594 0.492188 0.996094 1.054688 0.996094 h 9 c 0.558594 0 1.023438 -0.4375 1.054688 -0.996094 l 0.890624 -16.003906 c 0.035157 -0.664062 0 -1.332031 -0.109374 -1.984375 l -0.003907 -0.015625 h 0.332031 c 0.277344 0 0.5 -0.222656 0.5 -0.5 c 0 0 0 0 0 -0.003906 c 0 0 0 0 0 -0.003906 c 0 0 0 0 0 -0.003907 c 0 0 0 0 0 -0.003906 c 0 0 0 0 0 -0.003906 c 0 0 0 0 0 -0.003907 c 0 0 0 0 0 -0.003906 v -0.003906 c 0 -0.007812 0 -0.011719 0 -0.019531 c 0 -0.007813 0 -0.015625 -0.003906 -0.023438 c 0 -0.003906 0 -0.003906 0 -0.007812 l -0.5 -2.988281 c -0.035156 -0.246094 -0.246094 -0.429688 -0.496094 -0.429688 c -0.023437 0 -0.046874 0 -0.070312 0.003906 c 0 0 0 0 -0.003906 0 v -0.003906 h -0.425782 v -0.015625 c -0.09375 -0.566406 -0.585937 -0.984375 -1.164062 -0.984375 z m 4.5 1 c 0.800781 0 1.445312 0.125 1.972656 0.4375 c 0.53125 0.3125 0.878906 0.84375 0.996094 1.320312 l 0.5 2 c 0.132812 0.523438 -0.132812 1.066407 -0.40625 1.335938 s -0.566406 0.414062 -0.882812 0.539062 c -0.210938 0.082032 -0.441407 0.152344 -0.679688 0.207032 v 2.660156 c 0 0.8125 -0.6875 1.5 -1.5 1.5 s -1.5 -0.6875 -1.5 -1.5 v -2.660156 c -0.238281 -0.054688 -0.46875 -0.125 -0.683594 -0.207032 c -0.3125 -0.125 -0.605468 -0.269531 -0.878906 -0.539062 s -0.539062 -0.8125 -0.410156 -1.335938 l 0.5 -2 c 0.121094 -0.476562 0.46875 -1.007812 0.996094 -1.320312 c 0.53125 -0.3125 1.175781 -0.4375 1.976562 -0.4375 z m -4.5 11 h 9 v 11 h -9 z m 0 0"/>
  <path d="m 7 12 h 9 v 11 h -9 z m 0 0" fill-opacity="0.501961"/>
</svg>
