<?xml version="1.0" encoding="UTF-8"?>
<!-- Taken from Gnome Highscore -->
<svg height="24px" viewBox="0 0 24 24" width="24px" xmlns="http://www.w3.org/2000/svg">
  <path d="m 2.773438 6.261719 c -1.027344 -0.042969 -2.046876 0.664062 -2.28125 1.671875 c -0.636719 2.796875 -0.679688 5.019531 0.015624 8.128906 c 0.242188 1.078125 1.378907 1.808594 2.472657 1.652344 l 3.039062 -0.433594 c 1.320313 -0.1875 2.648438 -0.28125 3.980469 -0.28125 h 4 c 1.332031 0 2.660156 0.09375 3.980469 0.28125 l 3.039062 0.433594 c 1.09375 0.15625 2.242188 -0.574219 2.484375 -1.652344 c 0.1875 -0.828125 0.320313 -1.597656 0.402344 -2.339844 c 0.210938 -1.953125 0.0625 -3.699218 -0.410156 -5.785156 c -0.242188 -1.078125 -1.382813 -1.808594 -2.476563 -1.65625 l -3.039062 0.433594 c -1.320313 0.191406 -2.648438 0.285156 -3.980469 0.285156 h -4 c -1.332031 0 -2.664062 -0.09375 -3.980469 -0.285156 l -3.039062 -0.433594 c -0.070313 -0.007812 -0.136719 -0.015625 -0.207031 -0.019531 z m 18.226562 1.738281 c 0.550781 0 1 0.449219 1 1 s -0.449219 1 -1 1 s -1 -0.449219 -1 -1 s 0.449219 -1 1 -1 z m -3 0.5 c 0.550781 0 1 0.449219 1 1 s -0.449219 1 -1 1 s -1 -0.449219 -1 -1 s 0.449219 -1 1 -1 z m -13.734375 0.5 h 1.46875 c 0.148437 0 0.265625 0.117188 0.265625 0.265625 v 1.734375 h 1.734375 c 0.148437 0 0.265625 0.117188 0.265625 0.265625 v 1.46875 c 0 0.148437 -0.117188 0.265625 -0.265625 0.265625 h -1.734375 v 1.734375 c 0 0.148437 -0.117188 0.265625 -0.265625 0.265625 h -1.46875 c -0.148437 0 -0.265625 -0.117188 -0.265625 -0.265625 v -1.734375 h -1.734375 c -0.148437 0 -0.265625 -0.117188 -0.265625 -0.265625 v -1.46875 c 0 -0.148437 0.117188 -0.265625 0.265625 -0.265625 h 1.734375 v -1.734375 c 0 -0.148437 0.117188 -0.265625 0.265625 -0.265625 z m 4.734375 0 h 7 v 6 h -7 z m 9 4.5 c 0.550781 0 1 0.449219 1 1 s -0.449219 1 -1 1 s -1 -0.449219 -1 -1 s 0.449219 -1 1 -1 z m 3 0.5 c 0.550781 0 1 0.449219 1 1 s -0.449219 1 -1 1 s -1 -0.449219 -1 -1 s 0.449219 -1 1 -1 z m 0 0"/>
</svg>
