<?xml version="1.0" encoding="UTF-8" standalone="no"?>
<svg height="24px" viewBox="0 0 24 24" width="24px" xmlns="http://www.w3.org/2000/svg">
  <path d="M 12 2.6503906 C 9.2878477 2.6308352 8.1225939 3.0377142 6 3.5742188 C 4.000052 2.999813 2.857217 3.9016638 2.4589844 5 C 0.64291609 5.5265672 -0.52047509 8.5441505 0.36132812 10.029297 C -0.45521486 20.622181 1.3194937 20.96964 2 21 C 4.6800513 21.119586 4.2071825 14.340439 4.4726562 14.173828 C 4.5863741 14.102464 4.8392953 14.792659 5.2949219 15.552734 A 2.9845344 2.9845344 0 0 0 5.3125 15.585938 C 5.4109309 15.748356 5.520389 15.910881 5.6386719 16.072266 A 2.9845344 2.9845344 0 0 0 7.9453125 17.164062 A 2.9845344 2.9845344 0 0 0 10.929688 14.179688 A 2.9845344 2.9845344 0 0 0 10.507812 12.664062 C 10.463092 12.591309 10.415991 12.521532 10.369141 12.451172 C 9.9284561 11.789286 9.4145566 11.235688 9.1699219 10.896484 C 8.8890252 10.507027 10.894398 10.416555 12 10.390625 C 13.105602 10.416555 15.110978 10.507027 14.830078 10.896484 C 14.58544 11.235688 14.071545 11.789286 13.630859 12.451172 C 13.584013 12.521534 13.536909 12.591309 13.492188 12.664062 A 2.9845344 2.9845344 0 0 0 13.070312 14.179688 A 2.9845344 2.9845344 0 0 0 16.054688 17.164062 A 2.9845344 2.9845344 0 0 0 18.361328 16.072266 C 18.479612 15.910881 18.589068 15.748356 18.6875 15.585938 A 2.9845344 2.9845344 0 0 0 18.705078 15.552734 C 19.160711 14.792663 19.413625 14.102464 19.527344 14.173828 C 19.79281 14.340439 19.319952 21.119586 22 21 C 22.680503 20.96964 24.455213 20.622181 23.638672 10.029297 C 24.520474 8.5441505 23.357082 5.5265672 21.541016 5 C 21.142779 3.9016638 19.999948 2.999813 18 3.5742188 C 15.877405 3.0377142 14.712149 2.6308352 12 2.6503906 z M 19.025391 5.3496094 C 19.238544 5.3409394 19.440351 5.4695401 19.515625 5.6816406 C 19.608275 5.9426875 19.473932 6.227668 19.212891 6.3203125 L 18.269531 6.6542969 C 18.008487 6.7469414 17.723504 6.6126091 17.630859 6.3515625 C 17.538215 6.0905159 17.674499 5.8055351 17.935547 5.7128906 L 18.876953 5.3769531 C 18.925903 5.3595821 18.976203 5.3516111 19.025391 5.3496094 z M 4.3203125 6.4472656 A 2 2 0 0 1 6.3203125 8.4472656 A 2 2 0 0 1 4.3203125 10.447266 A 2 2 0 0 1 2.3203125 8.4472656 A 2 2 0 0 1 4.3203125 6.4472656 z M 19.494141 7 A 1.5 1.5 0 0 1 20.994141 8.5 A 1.5 1.5 0 0 1 19.494141 10 A 1.5 1.5 0 0 1 17.994141 8.5 A 1.5 1.5 0 0 1 19.494141 7 z M 22.03125 7.0175781 C 22.274375 7.0091781 22.492811 7.1790509 22.539062 7.4257812 L 22.724609 8.4082031 C 22.775649 8.6804581 22.596469 8.9411466 22.324219 8.9921875 C 22.051962 9.0432283 21.791276 8.8640513 21.740234 8.5917969 L 21.556641 7.609375 C 21.505601 7.3371205 21.682823 7.076432 21.955078 7.0253906 C 21.980598 7.0206006 22.0061 7.0184481 22.03125 7.0175781 z M 4.3203125 7.4472656 A 1 1 0 0 0 3.3203125 8.4472656 A 1 1 0 0 0 4.3203125 9.4472656 A 1 1 0 0 0 5.3203125 8.4472656 A 1 1 0 0 0 4.3203125 7.4472656 z M 12 8.3203125 A 0.5 0.5 0 0 1 12.5 8.8203125 A 0.5 0.5 0 0 1 12 9.3203125 A 0.5 0.5 0 0 1 11.5 8.8203125 A 0.5 0.5 0 0 1 12 8.3203125 z M 16.492188 9 A 1 1 0 0 1 17.492188 10 A 1 1 0 0 1 16.492188 11 A 1 1 0 0 1 15.492188 10 A 1 1 0 0 1 16.492188 9 z M 16.066406 12.191406 A 2 2 0 0 1 18.066406 14.191406 A 2 2 0 0 1 16.066406 16.191406 A 2 2 0 0 1 14.066406 14.191406 A 2 2 0 0 1 16.066406 12.191406 z M 7.4902344 12.623047 L 8.2402344 12.623047 C 8.3094824 12.623047 8.3652344 12.678797 8.3652344 12.748047 L 8.3652344 13.623047 L 9.2402344 13.623047 C 9.3094824 13.623047 9.3652344 13.678797 9.3652344 13.748047 L 9.3652344 14.498047 C 9.3652344 14.567297 9.3094824 14.623047 9.2402344 14.623047 L 8.3652344 14.623047 L 8.3652344 15.498047 C 8.3652344 15.567297 8.3094824 15.623047 8.2402344 15.623047 L 7.4902344 15.623047 C 7.4209844 15.623047 7.3652344 15.567297 7.3652344 15.498047 L 7.3652344 14.623047 L 6.4902344 14.623047 C 6.4209844 14.623047 6.3652344 14.567297 6.3652344 14.498047 L 6.3652344 13.748047 C 6.3652344 13.678797 6.4209844 13.623047 6.4902344 13.623047 L 7.3652344 13.623047 L 7.3652344 12.748047 C 7.3652344 12.678797 7.4209844 12.623047 7.4902344 12.623047 z M 16.066406 13.191406 A 1 1 0 0 0 15.066406 14.191406 A 1 1 0 0 0 16.066406 15.191406 A 1 1 0 0 0 17.066406 14.191406 A 1 1 0 0 0 16.066406 13.191406 z " />
</svg>
