<?xml version="1.0" encoding="UTF-8"?>
<!-- Taken from Gnome Highscore -->
<svg height="24px" viewBox="0 0 24 24" width="24px" xmlns="http://www.w3.org/2000/svg">
  <path d="m 1 7 c -0.554688 0 -1 0.445312 -1 1 v 8 c 0 0.554688 0.445312 1 1 1 h 22 c 0.554688 0 1 -0.445312 1 -1 v -8 c 0 -0.554688 -0.445312 -1 -1 -1 z m 3.5 2 h 3 c 0.832031 0 1.5 0.667969 1.5 1.5 v 3 c 0 0.832031 -0.667969 1.5 -1.5 1.5 h -3 c -0.832031 0 -1.5 -0.667969 -1.5 -1.5 v -3 c 0 -0.832031 0.667969 -1.5 1.5 -1.5 z m 12 3 c 0.828125 0 1.5 0.671875 1.5 1.5 s -0.671875 1.5 -1.5 1.5 s -1.5 -0.671875 -1.5 -1.5 s 0.671875 -1.5 1.5 -1.5 z m 4 0 c 0.828125 0 1.5 0.671875 1.5 1.5 s -0.671875 1.5 -1.5 1.5 s -1.5 -0.671875 -1.5 -1.5 s 0.671875 -1.5 1.5 -1.5 z m 0 0"/>
  <path d="m 7 12 c 0 0.550781 -0.449219 1 -1 1 s -1 -0.449219 -1 -1 s 0.449219 -1 1 -1 s 1 0.449219 1 1 z m 0 0" fill-opacity="0.74902"/>
</svg>
