<?xml version="1.0" encoding="UTF-8"?>
<!-- Taken from Gnome World -->
<svg height="24px" viewBox="0 0 24 24" width="24px" xmlns="http://www.w3.org/2000/svg">
  <path d="m 11.957031 1 c -1.09375 0.007812 -2.195312 0.097656 -2.984375 0.273438 c -0.539062 0.117187 -1.171875 0.628906 -1.421875 1.121093 l -0.050781 0.105469 l -3.335938 0.519531 l -0.003906 0.003907 c -1.558594 0.207031 -3.054687 1.3125 -3.542968 2.957031 c -0.488282 1.644531 -0.617188 3.851562 -0.617188 6.019531 c 0 2 0.113281 3.546875 0.445312 5.015625 c 0.121094 0.535156 0.355469 1.40625 0.589844 1.90625 c 0.761719 1.605469 1.75 1.207031 2.328125 0.003906 c 0.242188 -0.496093 0.46875 -1.367187 0.621094 -1.898437 c 0.285156 -0.96875 0.515625 -1.972656 0.632813 -3.046875 c 0.058593 -0.546875 0.523437 -1.003907 1.070312 -0.957031 c 1.265625 0.109374 2.429688 0.46875 2.90625 1.074218 c 0.339844 0.425782 0.304688 1.359375 0.40625 1.902344 c 0.382812 2.042969 0.59375 4.03125 1.324219 6.027344 c 0.472656 1.285156 1.066406 1.964844 1.664062 1.972656 c 0.601563 0.007812 1.207031 -0.667969 1.683594 -1.972656 c 0.730469 -1.996094 0.945313 -3.984375 1.328125 -6.027344 c 0.101562 -0.542969 0.066406 -1.476562 0.402344 -1.902344 c 0.480468 -0.605468 1.648437 -0.945312 2.910156 -1.054687 c 0.550781 -0.050781 1.015625 0.40625 1.074219 0.957031 c 0.117187 1.074219 0.347656 2.074219 0.628906 3.046875 c 0.15625 0.527344 0.382813 1.398437 0.621094 1.898437 c 0.582031 1.203126 1.570312 1.601563 2.328125 -0.007812 c 0.238281 -0.5 0.472656 -1.367188 0.59375 -1.90625 c 0.339844 -1.507812 0.441406 -3.300781 0.441406 -5.164062 c 0 -2.121094 -0.140625 -4.265626 -0.621094 -5.890626 c -0.484375 -1.625 -1.976562 -2.730468 -3.539062 -2.9375 l -0.003906 -0.003906 l -3.335938 -0.535156 l -0.054688 -0.105469 c -0.246093 -0.492187 -0.878906 -1.003906 -1.421874 -1.121093 c -0.785157 -0.175782 -1.886719 -0.265626 -2.980469 -0.273438 c -0.015625 0 -0.027344 0 -0.042969 0 s -0.027344 0 -0.042969 0 z m 8.042969 3 c 0.550781 0 1 0.449219 1 1 s -0.449219 1 -1 1 s -1 -0.449219 -1 -1 s 0.449219 -1 1 -1 z m -15.734375 1 h 1.46875 c 0.148437 0 0.265625 0.117188 0.265625 0.265625 v 1.734375 h 1.734375 c 0.148437 0 0.265625 0.117188 0.265625 0.265625 v 1.46875 c 0 0.148437 -0.117188 0.265625 -0.265625 0.265625 h -1.734375 v 1.734375 c 0 0.148437 -0.117188 0.265625 -0.265625 0.265625 h -1.46875 c -0.148437 0 -0.265625 -0.117188 -0.265625 -0.265625 v -1.734375 h -1.734375 c -0.148437 0 -0.265625 -0.117188 -0.265625 -0.265625 v -1.46875 c 0 -0.148437 0.117188 -0.265625 0.265625 -0.265625 h 1.734375 v -1.734375 c 0 -0.148437 0.117188 -0.265625 0.265625 -0.265625 z m 13.734375 1 c 0.550781 0 1 0.449219 1 1 s -0.449219 1 -1 1 s -1 -0.449219 -1 -1 s 0.449219 -1 1 -1 z m 4 0 c 0.550781 0 1 0.449219 1 1 s -0.449219 1 -1 1 s -1 -0.449219 -1 -1 s 0.449219 -1 1 -1 z m -10 2 c 0.550781 0 1 0.449219 1 1 s -0.449219 1 -1 1 s -1 -0.449219 -1 -1 s 0.449219 -1 1 -1 z m 4 0 c 0.550781 0 1 0.449219 1 1 s -0.449219 1 -1 1 s -1 -0.449219 -1 -1 s 0.449219 -1 1 -1 z m 4 0 c 0.550781 0 1 0.449219 1 1 s -0.449219 1 -1 1 s -1 -0.449219 -1 -1 s 0.449219 -1 1 -1 z m -2 2 c 0.550781 0 1 0.449219 1 1 s -0.449219 1 -1 1 s -1 -0.449219 -1 -1 s 0.449219 -1 1 -1 z m -6 2 c 1.105469 0 2 0.894531 2 2 s -0.894531 2 -2 2 s -2 -0.894531 -2 -2 s 0.894531 -2 2 -2 z m 0 0"/>
  <path d="m 13 14 c 0 0.550781 -0.449219 1 -1 1 s -1 -0.449219 -1 -1 s 0.449219 -1 1 -1 s 1 0.449219 1 1 z m 0 0"/>
</svg>
