<?xml version="1.0" encoding="UTF-8"?>
<!-- Taken from Gnome World -->
<svg height="24px" viewBox="0 0 24 24" width="24px" xmlns="http://www.w3.org/2000/svg">
  <path d="m 2 1 c -1.109375 0 -2 0.890625 -2 2 v 8 h 24 v -8 c 0 -1.109375 -0.890625 -2 -2 -2 z m 7 2 h 6 c 0.554688 0 1 0.445312 1 1 v 4 c 0 0.554688 -0.445312 1 -1 1 h -6 c -0.554688 0 -1 -0.445312 -1 -1 v -4 c 0 -0.554688 0.445312 -1 1 -1 z m -9 9 v 8 c 0 1.109375 0.890625 2 2 2 h 20 c 1.109375 0 2 -0.890625 2 -2 v -8 z m 3.265625 2 h 1.46875 c 0.148437 0 0.265625 0.117188 0.265625 0.265625 v 1.734375 h 1.734375 c 0.148437 0 0.265625 0.117188 0.265625 0.265625 v 1.46875 c 0 0.148437 -0.117188 0.265625 -0.265625 0.265625 h -1.734375 v 1.734375 c 0 0.148437 -0.117188 0.265625 -0.265625 0.265625 h -1.46875 c -0.148437 0 -0.265625 -0.117188 -0.265625 -0.265625 v -1.734375 h -1.734375 c -0.148437 0 -0.265625 -0.117188 -0.265625 -0.265625 v -1.46875 c 0 -0.148437 0.117188 -0.265625 0.265625 -0.265625 h 1.734375 v -1.734375 c 0 -0.148437 0.117188 -0.265625 0.265625 -0.265625 z m 5.734375 0 h 6 c 0.554688 0 1 0.445312 1 1 v 4 c 0 0.554688 -0.445312 1 -1 1 h -6 c -0.554688 0 -1 -0.445312 -1 -1 v -4 c 0 -0.554688 0.445312 -1 1 -1 z m 11 0 c 0.550781 0 1 0.449219 1 1 s -0.449219 1 -1 1 s -1 -0.449219 -1 -1 s 0.449219 -1 1 -1 z m -2 2 c 0.550781 0 1 0.449219 1 1 s -0.449219 1 -1 1 s -1 -0.449219 -1 -1 s 0.449219 -1 1 -1 z m 4 0 c 0.550781 0 1 0.449219 1 1 s -0.449219 1 -1 1 s -1 -0.449219 -1 -1 s 0.449219 -1 1 -1 z m -2 2 c 0.550781 0 1 0.449219 1 1 s -0.449219 1 -1 1 s -1 -0.449219 -1 -1 s 0.449219 -1 1 -1 z m 0 0"/>
  <path d="m 8 14 h 8 v 6 h -8 z m 0 0" fill-opacity="0.25098"/>
  <path d="m 0 10 h 24 v 3 h -24 z m 0 0" fill-opacity="0.74902"/>
</svg>
