<?xml version="1.0" encoding="UTF-8" standalone="no"?>
<svg
   width="24"
   height="24"
   viewBox="0 0 24 24"
   version="1.1"
   id="svg1"
   xmlns="http://www.w3.org/2000/svg"
   xmlns:svg="http://www.w3.org/2000/svg">
  <defs
     id="defs1" />
  <g
     id="g1">
    <path
       id="path1"
       d="M 11.999017,4.2750339 A 7.7226464,7.7246594 0 0 0 4.2770002,12.000983 7.7226464,7.7246594 0 0 0 11.999017,19.724966 7.7226464,7.7246594 0 0 0 19.723,12.000983 7.7226464,7.7246594 0 0 0 11.999017,4.2750339 Z m 0,1.9128113 A 5.810228,5.8117449 0 0 1 17.81019,12.000983 5.810228,5.8117449 0 0 1 11.999017,17.812154 5.810228,5.8117449 0 0 1 6.1898115,12.000983 5.810228,5.8117449 0 0 1 11.999017,6.1878452 Z" />
    <path
       id="path4768-9"
       d="M 5.1387687,8.5042567 C 4.5329214,8.7988394 3.9617053,9.1043666 3.4351799,9.4187366 2.2642605,10.117852 1.30619,10.848945 0.66740222,11.71221 c -0.63878827,0.863265 -0.91881437,2.058951 -0.38896833,3.058775 0.45093129,0.850913 1.41661701,1.138498 2.28249101,1.146397 0.8658734,0.0079 1.8190954,-0.190584 2.8885889,-0.492966 2.1389873,-0.604762 4.7198122,-1.659995 7.2623912,-2.677096 2.542579,-1.0171 5.051758,-1.994911 6.881296,-2.43421 0.914768,-0.219648 1.664401,-0.286955 2.053697,-0.231028 0.194649,0.02796 0.283225,0.07831 0.303633,0.09379 0.02041,0.01548 0.01095,-0.01312 0.02877,0.06094 0.09036,0.375563 0.04697,0.614388 -0.187097,0.978641 -0.234069,0.364252 -0.711597,0.812748 -1.440116,1.276344 -0.2372,0.150943 -0.499468,0.303176 -0.785483,0.456893 -0.12401,1.19152 -0.636099,2.26409 -0.807235,2.609462 1.0175,-0.448994 1.907913,-0.907588 2.66136,-1.387047 0.872347,-0.555121 1.57513,-1.146682 2.046117,-1.879624 0.470987,-0.732942 0.657424,-1.648419 0.447672,-2.520226 C 23.803333,9.3091272 23.524871,8.8715894 23.153396,8.5898709 22.781922,8.308152 22.355792,8.1729566 21.929926,8.1117761 21.078193,7.9894157 20.16374,8.1290054 19.128422,8.3776003 17.057785,8.8747898 14.522618,9.8790926 11.972554,10.899187 9.4224906,11.919281 6.8623875,12.956344 4.9079521,13.508928 3.9307343,13.78522 3.0991909,13.931701 2.5790999,13.926957 2.0590088,13.922215 2.0375724,13.839515 2.0372464,13.8389 1.8883932,13.558013 1.8959348,13.398355 2.2674976,12.896221 2.6246583,12.41355 3.3545533,11.799515 4.3357028,11.200291 4.5870251,9.7333908 4.7752943,9.2392797 5.1387687,8.5042567 Z" />
    <path
       d="m 7.454306,17.007416 c -2.6384659,0.430396 -4.2618185,0.355428 -4.2618185,0.355428 -0.5541031,-0.03218 -1.0274729,0.395064 -1.0520808,0.949554 -0.024608,0.554493 0.4090536,1.02199 0.963829,1.039022 0,0 2.268505,0.09684 5.7581911,-0.581774 C 8.5722486,18.288093 7.9747652,17.714933 7.454306,17.007416 Z"
       id="path4772" />
    <path
       d="m 18.571892,5.0332709 c -0.828897,0.014829 -1.827515,0.075093 -2.948738,0.2239754 0.961645,0.5509625 1.28171,1.048787 2.049838,1.7945798 1.96248,-0.1164007 3.174976,0.062551 3.174976,0.062551 0.548831,0.089366 1.064438,-0.2882479 1.144863,-0.8384594 0.08042,-0.5502113 -0.305528,-1.0596072 -0.856976,-1.1310689 0,0 -0.966971,-0.1401485 -2.563963,-0.1115779 z"
       id="path4776" />
  </g>
</svg>
