<?xml version="1.0" encoding="UTF-8"?>
<!-- Taken from Gnome Highscore -->
<svg height="24px" viewBox="0 0 24 24" width="24px" xmlns="http://www.w3.org/2000/svg">
  <path d="m 6.664062 4 c -1.476562 0 -2.664062 1.1875 -2.664062 2.664062 v 10.667969 c 0 1.480469 1.1875 2.667969 2.664062 2.667969 h 10.667969 c 1.480469 0 2.667969 -1.1875 2.667969 -2.667969 v -10.667969 c 0 -1.476562 -1.1875 -2.664062 -2.667969 -2.664062 h -3.332031 v 3.417969 c 1.820312 0.796875 3 2.59375 3 4.582031 c 0 2.761719 -2.238281 5 -5 5 s -5 -2.238281 -5 -5 c 0.003906 -1.984375 1.179688 -3.78125 3 -4.578125 v -3.421875 z m -0.164062 1 c 0.828125 0 1.5 0.671875 1.5 1.5 s -0.671875 1.5 -1.5 1.5 s -1.5 -0.671875 -1.5 -1.5 s 0.671875 -1.5 1.5 -1.5 z m 0 0"/>
  <path d="m 16 12 c 0 2.210938 -1.789062 4 -4 4 s -4 -1.789062 -4 -4 s 1.789062 -4 4 -4 s 4 1.789062 4 4 z m 0 0" fill-opacity="0.501961"/>
  <path d="m 11.5 1 h 1 l 0.5 0.5 v 11 l -0.5 0.5 h -1 l -0.5 -0.5 v -11 z m 0 0"/>
</svg>
