<?xml version="1.0" encoding="UTF-8" standalone="no"?>
<svg
   width="24"
   height="24"
   viewBox="0 0 24 24"
   version="1.1"
   id="svg1"
   xmlns="http://www.w3.org/2000/svg"
   xmlns:svg="http://www.w3.org/2000/svg">
  <defs
     id="defs1" />
  <g
     id="g12"
     transform="matrix(0.0761645,0,0,0.0761645,-0.06873042,4.553833)">
    <path
       d="m 145.1,169.3 10.8,-68.7 H 84 L 78.3,136 h 30.2 L 105,154.9 C 87.8,162 58.6,159.3 46.1,136.9 38.2,122.7 30.8,91.1 64.1,62 91.3,38.3 138.3,34 165.4,46.4 c 0,0 3.4,-19.9 6,-38.3 -52.1,-18 -92.6,-3 -119.7,13.8 -37.1,22.7 -54.9,57.6 -50,105 5.5,54.9 76.6,89.6 136.9,54.6 0.7,-0.3 4.12346,-2.8004 4.72346,-2.90039 z"
       id="path10" />
    <path
       d="m 251.3,82 c -21.3,0 -26.8,0 -26.8,0 l 5.9,-35 c 0,0 0.8,0 25.2,0 27.4,0 21.8,35 -4.3,35 m -4.7,76.2 c -21.4,0 -34.2,0 -34.2,0 l 6,-37.6 c 0,0 8.1,0 32.4,0 30.9,0 30,37.6 -4.2,37.6 z M 269.3,7.1 c -20.9,-0.3 -72.6,0 -72.6,0 h 0.4 l -30,187.3 c 0,0 62.1,0 87.3,0 36,0 88.5,-52.9 40.6,-96.1 49,-50.9 0.4,-90.6 -25.7,-91.2 z"
       id="path12" />
  </g>
</svg>
