<?xml version="1.0" encoding="UTF-8" standalone="no"?>
<svg height="24px" viewBox="0 0 24 24" width="24px" xmlns="http://www.w3.org/2000/svg">
  <path d="M 7.2480469 4.3203125 C 6.7783974 4.322031 6.3556799 4.5523856 5.5761719 4.7753906 C 4.5942454 5.0563037 3.7450062 5.3270211 3.5449219 6.2734375 C 2.3427013 7.0008911 -1.6283255e-15 13.895585 0 18.035156 C 0 19.309011 1.0273594 21.061122 2.515625 21 C 4.0038906 20.938878 5.6277448 16.406832 8 16.388672 C 10.37226 16.370512 12 16.404297 12 16.404297 C 12 16.404297 13.62774 16.370512 16 16.388672 C 18.37226 16.406832 19.996103 20.938878 21.484375 21 C 22.972647 21.061122 24 19.309011 24 18.035156 C 24 13.895585 21.657301 7.0008911 20.455078 6.2734375 C 20.254992 5.3270211 19.405755 5.0563037 18.423828 4.7753906 C 17.038043 4.3789378 16.77801 3.959254 15.380859 4.8417969 L 12 4.8203125 L 8.6191406 4.8417969 C 8.0078888 4.4556844 7.6133288 4.3189759 7.2480469 4.3203125 z M 8 5.2539062 L 12 5.2578125 L 16 5.2539062 C 16.306415 5.2539063 16.336149 5.4134967 16.255859 5.4921875 C 14.840003 6.8798405 14.177505 7.9780219 12 7.9824219 C 9.8224958 7.9780223 9.1599978 6.8798405 7.7441406 5.4921875 C 7.6638501 5.4134963 7.6935834 5.2539063 8 5.2539062 z M 18.001953 6 A 1 1 0 0 1 19.001953 7 A 1 1 0 0 1 18.001953 8 A 1 1 0 0 1 17.001953 7 A 1 1 0 0 1 18.001953 6 z M 6 7 A 2 2 0 0 1 8 9 A 2 2 0 0 1 6 11 A 2 2 0 0 1 4 9 A 2 2 0 0 1 6 7 z M 6 8 A 1 1 0 0 0 5 9 A 1 1 0 0 0 6 10 A 1 1 0 0 0 7 9 A 1 1 0 0 0 6 8 z M 16 8 A 1 1 0 0 1 17 9 A 1 1 0 0 1 16 10 A 1 1 0 0 1 15 9 A 1 1 0 0 1 16 8 z M 20 8 A 1 1 0 0 1 21 9 A 1 1 0 0 1 20 10 A 1 1 0 0 1 19 9 A 1 1 0 0 1 20 8 z M 18 10 A 1 1 0 0 1 19 11 A 1 1 0 0 1 18 12 A 1 1 0 0 1 17 11 A 1 1 0 0 1 18 10 z M 15 11.5 A 2 2 0 0 1 17 13.5 A 2 2 0 0 1 15 15.5 A 2 2 0 0 1 13 13.5 A 2 2 0 0 1 15 11.5 z M 8.125 12 L 8.875 12 C 8.9442493 12 9 12.05575 9 12.125 L 9 13 L 9.875 13 C 9.9442494 13 10 13.05575 10 13.125 L 10 13.875 C 10 13.94425 9.9442494 14 9.875 14 L 9 14 L 9 14.875 C 9 14.94425 8.9442493 15 8.875 15 L 8.125 15 C 8.0557507 15 8 14.94425 8 14.875 L 8 14 L 7.125 14 C 7.0557506 14 7 13.94425 7 13.875 L 7 13.125 C 7 13.05575 7.0557506 13 7.125 13 L 8 13 L 8 12.125 C 8 12.05575 8.0557507 12 8.125 12 z M 15 12.5 A 1 1 0 0 0 14 13.5 A 1 1 0 0 0 15 14.5 A 1 1 0 0 0 16 13.5 A 1 1 0 0 0 15 12.5 z " />
  <path d="M 8 5.2539062 C 7.6935831 5.2539063 7.66385 5.4134962 7.7441406 5.4921875 C 9.1599992 6.8798419 9.8224936 7.9780223 12 7.9824219 C 14.177507 7.9780219 14.840001 6.8798419 16.255859 5.4921875 C 16.336149 5.4134966 16.306415 5.2539063 16 5.2539062 L 12 5.2578125 L 8 5.2539062 z " fill-opacity="0.75" />
</svg>
